<?xml version="1.0" standalone="no"?>
<!DOCTYPE svg PUBLIC "-//W3C//DTD SVG 1.1//EN" "http://www.w3.org/Graphics/SVG/1.1/DTD/svg11.dtd" >
<svg xmlns="http://www.w3.org/2000/svg" xmlns:xlink="http://www.w3.org/1999/xlink" version="1.1">
<metadata>
Created by FontForge 20170812 at Tue Jun  7 14:53:11 2022
 By www-data
</metadata>
<defs>
<font id="BrilliantRegular" horiz-adv-x="0" >
  <font-face 
    font-family="Brilliant"
    font-weight="400"
    font-stretch="normal"
    units-per-em="1000"
    panose-1="0 0 0 0 0 0 0 0 0 0"
    ascent="800"
    descent="-200"
    x-height="373.39"
    cap-height="1391.81"
    bbox="-349.999 -533.795 2227.38 1579.73"
    underline-thickness="50"
    underline-position="-100"
    unicode-range="U+000A-20AC"
  />
<missing-glyph horiz-adv-x="527" 
d="M50 700h427v-700h-427v700zM78 680l185 -309l186 309h-371zM251 350l-180 300v-601zM264 329l-185 -308h370zM276 350l181 -303v605z" />
    <glyph glyph-name=".notdef" horiz-adv-x="527" 
d="M50 700h427v-700h-427v700zM78 680l185 -309l186 309h-371zM251 350l-180 300v-601zM264 329l-185 -308h370zM276 350l181 -303v605z" />
    <glyph glyph-name=".null" 
 />
    <glyph glyph-name=".null" 
 />
    <glyph glyph-name="LF" unicode="&#xa;" 
 />
    <glyph glyph-name="controlCR" unicode="&#xd;" 
 />
    <glyph glyph-name="space" unicode=" " horiz-adv-x="293" 
 />
    <glyph glyph-name="exclam" unicode="!" horiz-adv-x="235" 
d="M176.771 401.455c7.61523 -110.351 10.1865 -221.191 6.53809 -331.753c-1.47754 -44.5986 -113.503 -43.9365 -113.025 0c1.17773 108.556 0.521484 217.016 -3.88477 325.507c-2.20312 54.1631 -5.78809 108.25 -8.7168 162.368
c-2.54688 47.0439 -17.6377 110.612 3.12695 154.453c8.48828 17.9121 50.0371 19.708 61.4668 4.57812c30.9785 -41.0137 32.2715 -103.219 38.9062 -152.804c7.21484 -53.9404 11.8379 -108.065 15.5889 -162.35zM112.049 -41.7881
c6.71191 14.9512 40.9775 14.0977 48.0645 0c28.4883 -56.6016 20.6748 -131.854 19.2295 -193.334c-0.821289 -35.0156 -89.6562 -33.9268 -88.1533 0c2.73145 61.6963 -4.93555 135.866 20.8594 193.334z" />
    <glyph glyph-name="quotedbl" unicode="&#x22;" horiz-adv-x="341" 
d="M89.6699 769.09c9.98438 31.418 99.4307 23.1465 86.4404 -13.582c-18.1289 -51.291 -34.0928 -110.357 -66.7715 -154.587c-10.2646 -13.8877 -58.2061 -21.249 -59.2188 4.56543c-2.09473 53.5518 23.5859 113.363 39.5498 163.604zM210.4 727.376
c8.87012 28.8965 89.1836 22.9043 80.2051 -12.6016c-10.71 -42.3828 -26.8516 -84.7344 -52.5449 -120.304c-8.62793 -11.9521 -48.2158 -17.5361 -49.4443 3.81445c-2.47656 43.0322 9.21484 88.1465 21.7842 129.091z" />
    <glyph glyph-name="quotedbl" unicode="&#x201d;" horiz-adv-x="341" 
d="M89.6699 769.09c9.98438 31.418 99.4307 23.1465 86.4404 -13.582c-18.1289 -51.291 -34.0928 -110.357 -66.7715 -154.587c-10.2646 -13.8877 -58.2061 -21.249 -59.2188 4.56543c-2.09473 53.5518 23.5859 113.363 39.5498 163.604zM210.4 727.376
c8.87012 28.8965 89.1836 22.9043 80.2051 -12.6016c-10.71 -42.3828 -26.8516 -84.7344 -52.5449 -120.304c-8.62793 -11.9521 -48.2158 -17.5361 -49.4443 3.81445c-2.47656 43.0322 9.21484 88.1465 21.7842 129.091z" />
    <glyph glyph-name="quotedbl" unicode="&#x201c;" horiz-adv-x="341" 
d="M89.6699 769.09c9.98438 31.418 99.4307 23.1465 86.4404 -13.582c-18.1289 -51.291 -34.0928 -110.357 -66.7715 -154.587c-10.2646 -13.8877 -58.2061 -21.249 -59.2188 4.56543c-2.09473 53.5518 23.5859 113.363 39.5498 163.604zM210.4 727.376
c8.87012 28.8965 89.1836 22.9043 80.2051 -12.6016c-10.71 -42.3828 -26.8516 -84.7344 -52.5449 -120.304c-8.62793 -11.9521 -48.2158 -17.5361 -49.4443 3.81445c-2.47656 43.0322 9.21484 88.1465 21.7842 129.091z" />
    <glyph glyph-name="numbersign" unicode="#" horiz-adv-x="831" 
d="M677.261 844.496c17.0273 33.4238 117.232 28.4209 101.784 -16.0059c-54.583 -156.943 -119.074 -310.231 -175.536 -466.589c0.126953 0 0.260742 0.00683594 0.394531 0.00683594c30.7305 0.477539 30.3926 -28.291 0 -28.6924
c-3.54688 -0.0449219 -7.09375 -0.18457 -10.6406 -0.242188c-5.52734 -15.6328 -11.0928 -31.2529 -16.416 -46.9678c-3.56543 -10.5195 -7.04199 -21.0771 -10.5635 -31.6152c4.23438 0.209961 8.45605 0.477539 12.6904 0.668945
c31.418 1.40723 30.8135 -27.998 0.000976562 -29.2656c-7.53906 -0.3125 -15.0781 -0.713867 -22.6113 -1.11523c-23.6045 -71.4512 -46.3174 -143.228 -68.2598 -215.182c-14.1553 -46.4072 -28.1836 -92.8213 -42.6699 -139.12
c-13.9766 -44.6816 -27.2783 -91.5918 -56.0918 -129.11c-7.87012 -10.2451 -44.127 -11.6074 -47.8262 3.56641c-11.0352 45.2734 1.35645 93.8779 10.8633 138.661c9.7041 45.7129 20.7646 90.9424 32.6787 136.127c17.2822 65.542 35.9453 130.632 55.749 195.41
c-43.1787 -4.92188 -86.1543 -11.3018 -128.875 -19.1279c-16.6387 -52.3545 -32.6729 -104.913 -47.7773 -157.694c-22.9365 -80.1875 -39.7217 -167.691 -79.4238 -241.562c-9.05469 -16.8486 -55.2832 -18.3828 -57.7471 4.45801
c-8.77441 81.3652 16.4219 168.411 35.3525 247.07c9.85742 40.9307 20.3008 81.6836 31.4316 122.245c-36.2705 -9.0166 -72.3242 -19.0205 -108.091 -30.126c-18.5488 -5.7627 -54.0098 14.1426 -24.1523 23.5537c46.7197 14.7217 93.8916 27.6289 141.407 38.8682
c8.33496 29.3105 16.9121 58.5508 26.0303 87.6572c1.62402 5.18945 3.2793 10.3789 4.91602 15.5625c-33.3154 -4.46387 -66.5801 -9.36035 -99.7686 -14.9062c-24 -4.01172 -44.6689 21.1787 -12.8564 26.5781c40.6123 6.88965 81.3398 12.9648 122.156 18.2559
c47.1074 146.589 100.404 292.637 171.206 429.305c17.2812 33.3604 118.329 27.7119 101.792 -15.9951c-50.5781 -133.682 -105.518 -265.453 -153.37 -400.09c41.001 3.74414 82.0723 6.67285 123.201 8.81836c53.9531 165.24 112.351 332.187 191.022 486.595z
M466.573 297.309c3.39355 10.5 6.79785 21.0273 10.2041 31.5469c-41.4219 -2.25391 -82.7734 -5.37402 -124.049 -9.29688c-4.66113 -13.4678 -9.36035 -26.9229 -13.8496 -40.46c-5.7373 -17.3008 -11.3789 -34.6338 -16.9893 -51.9795
c42.5234 7.37988 85.2881 13.4102 128.237 18.0645c5.4248 17.3896 10.8496 34.7793 16.4463 52.125z" />
    <glyph glyph-name="dollar" unicode="$" horiz-adv-x="586" 
d="M450.03 226.842c75.0811 -92.0059 135.068 -229.396 28.0605 -323.719c-41.46 -36.5439 -96.1836 -55.4053 -151.582 -56.959c1.99316 -36.0215 4.22168 -72.0371 6.96582 -108.04c1.45215 -19.0264 -48.3682 -19.8037 -49.8457 0
c-2.76367 37.0977 -4.99219 74.2148 -6.95312 111.338c-37.8877 6.11328 -74.291 20.4727 -105.009 42.9824c-80.7031 59.1426 -124.697 192.035 -68.0381 281.507c9.56445 15.1045 56.2842 9.08691 46.1465 -7.25195c-62.8799 -101.373 10.5449 -262.531 125.207 -285.302
c-6.27832 133.618 -7.71094 267.338 -6.32324 401.071c-10.6025 8.20801 -21.3447 16.2627 -32.2715 24.1074c-51.3418 36.8623 -105.021 72.5596 -142.36 124.596c-33.8125 47.1143 -52.7119 103.506 -40.0977 161.451c11.5322 52.9727 49.3691 99.9785 97.375 124.882
c41.1797 21.3633 87.2432 27.3174 130.301 19.3965c1.83984 45.166 3.75684 90.3252 5.68652 135.472c0.81543 18.9951 48.6113 18.4287 47.8604 0.000976562c-2.05078 -50.1709 -4.08887 -100.36 -6.02441 -150.557c36.0342 -16.6445 67.1211 -44.2607 87.2812 -81.7979
c9.27148 -17.2627 -37.3525 -22.8154 -45.6689 -7.17676c-10.7227 20.1602 -25.623 37.5439 -43.0508 50.916c-4.20215 -112.605 -7.68555 -225.262 -9.38574 -337.918c47.9414 -35.5254 93.5205 -72.1777 131.727 -118.999zM270.137 381.439
c2.19043 108.823 5.97168 217.641 10.3145 326.412c-34.5508 9.92676 -72.4316 5.4502 -105.747 -19.6191c-64.9941 -48.9102 -52.2207 -134.504 -13.7471 -196.416c27.1514 -43.7012 67.8281 -78.9463 109.18 -110.377zM445.207 -8.13086
c10.9648 67.7002 -23.9297 132.453 -64.835 183.534c-19.2686 24.0566 -40.5361 45.9805 -63.1162 66.4775c-0.49707 -120.533 1.4707 -241.034 7.36035 -361.446c0.369141 0.0634766 0.732422 0.0703125 1.1084 0.133789c57.4873 9.35449 109.849 51.8076 119.482 111.301z
" />
    <glyph glyph-name="percent" unicode="%" horiz-adv-x="917" 
d="M840.614 764.627c18.543 -6.63477 36.2539 -23.9316 19.4688 -42.334c-138.426 -151.74 -270.114 -309.523 -392.761 -474.299c-61.2188 -82.251 -120.846 -165.571 -180.765 -248.765c-30.3477 -42.1406 -60.626 -84.4404 -91.8145 -125.964
c-30.2715 -40.3008 -60.543 -88.9561 -102.162 -118.222c-8.8125 -6.18945 -43.8408 -6.90918 -42.5479 10.0479c1.76367 23.0508 15.3525 43.8662 25.9482 64.0898c12.2451 23.376 25.8721 46.1152 39.4736 68.7334c25.6299 42.625 52.3926 84.7529 79.6465 126.353
c56.042 85.543 113.752 170.182 173.926 252.872c121.832 167.424 249.815 330.677 397.328 476.388c17.7334 17.5176 52.1885 18.9951 74.2588 11.0996zM285.271 375.48c-111.351 -44.752 -168.634 68.2412 -166.838 163.521
c-19.9629 60.6455 3.25977 142.374 52.2139 177.854c33.0674 23.9609 78.3027 32.252 117.146 18.2559c46.4141 -16.7217 73.1455 -63.2822 83.6904 -109.06c11.583 -50.2656 4.66113 -103.085 -11.3027 -151.638c-13.4102 -40.7842 -32.6406 -81.9443 -74.9092 -98.9336z
M185.802 674.842c-13.9639 -20.5615 -23.7002 -50.2656 -25.6738 -79.9893c26.5088 3.1709 56.252 -5.80762 54.0039 -26.2412c-2.9541 -26.8271 -4.04297 -53.0938 -1.17773 -79.3604c0.432617 -1.22852 0.591797 -2.48926 0.381836 -3.77539
c1.19727 -9.65332 2.92285 -19.3193 5.35547 -29.0049c3.22168 -12.8496 7.8252 -34.7354 19.0322 -43.0576c13.4551 -9.99121 25.668 -0.331055 37.4414 10.3857c44.1846 40.2119 55.2773 121.59 49.0879 178.07c-3.60449 32.8828 -15.5625 68.5928 -39.3711 92.5156
c-32.9648 33.124 -75.8447 14.6768 -99.0801 -19.543zM739.385 283.526c46.4141 -16.7217 73.1455 -63.2812 83.6904 -109.071c11.583 -50.2598 4.66113 -103.086 -11.3027 -151.639c-13.4102 -40.7852 -32.6406 -81.9453 -74.9092 -98.9277
c-111.351 -44.752 -168.634 68.2412 -166.838 163.521c-19.9629 60.6455 3.25977 142.374 52.2139 177.854c33.0674 23.9678 78.3027 32.2588 117.146 18.2627zM726.758 -27.7861c44.1846 40.2051 55.2773 121.586 49.0879 178.061
c-3.60449 32.8828 -15.5625 68.5928 -39.3711 92.5156c-32.9648 33.124 -75.8447 14.6768 -99.0801 -19.543c-13.9639 -20.5615 -23.6934 -50.2666 -25.6738 -79.9971c26.5088 3.1709 56.252 -5.80762 54.0039 -26.2412
c-2.9541 -26.8203 -4.04297 -53.0869 -1.17773 -79.3535c0.432617 -1.22852 0.591797 -2.4834 0.381836 -3.77637c1.19727 -9.65332 2.92969 -19.3135 5.35547 -28.999c3.22168 -12.8496 7.8252 -34.7285 19.0322 -43.0576
c13.4551 -9.99121 25.668 -0.325195 37.4414 10.3916z" />
    <glyph glyph-name="ampersand" unicode="&#x26;" horiz-adv-x="754" 
d="M560.688 75.9482c-37.6133 -45.9365 -80.9355 -93.1094 -129.807 -131.882c53.8896 -35.334 116.49 -56.6396 186.604 -56.7734c31.6279 -0.0634766 31.3096 -29.0557 0 -29.5459c-82.0723 -1.28613 -155.587 22.4395 -218.524 62.874
c-31.3984 -21.2803 -64.8281 -38.708 -100.379 -49.8389c-76.3291 -23.9043 -215.341 -26.3428 -243.976 69.8662c-13.9072 46.7256 5.60352 95.0938 32.5576 132.969c31.2334 43.8857 68.0127 84.3457 104.544 123.882c-11.6523 33.9902 -20.293 68.9229 -25.6738 103.977
c-27.4443 178.739 21.0645 457.266 231.992 502.056c94.9863 20.166 204.434 -22.2871 206.356 -131.708c1.81445 -103.258 -71.8525 -208.629 -132.218 -286.479c-64.0264 -82.5752 -139.661 -155.001 -212.144 -230.037c31.8701 -72.2852 78.4492 -138.4 137.681 -186.89
c42.1025 34.9014 79.582 76.3613 111.828 114.37c69.4326 81.8428 123.602 177.752 145.398 283.544c4.0498 19.6445 52.832 17.4795 49.3486 0c-21.5859 -108.409 -73.9277 -205.299 -143.59 -290.383zM258.975 631.025
c-44.1338 -94.623 -56.7275 -204.814 -44.916 -307.944c3.20312 -27.9092 8.73633 -56.1562 16.3457 -84.1543c62.3516 66.2744 125.245 132.498 175.798 208.394c28.7119 43.1025 52.9277 88.7773 71.6738 137.076c18.3008 47.1455 32.5576 100.359 13.792 149.523
c-10.6211 27.8389 -25.2988 41.1982 -56.7744 40.708c-25.8652 -0.401367 -51.7373 -10.666 -73.7568 -23.6113c-46.8145 -27.5205 -79.5059 -71.4189 -102.162 -119.991zM234.053 -110.804c47.3945 5.75 91.4912 26.6113 131.881 54.9219
c-58.4678 45.8154 -106.143 106.613 -140.865 174.677c-35.9902 -37.2637 -79.3604 -79.4492 -92.8535 -129.353c-18.9053 -69.917 37.4805 -108.065 101.838 -100.246z" />
    <glyph glyph-name="quotesingle" unicode="'" horiz-adv-x="224" 
d="M80.626 735.609c11.5635 34.5186 108.275 21.6768 91.7197 -14.4082c-19.001 -41.415 -35.9707 -94.9033 -73.9219 -122.507c-10.2393 -7.4502 -39.3652 -7.30371 -44.9814 6.76855c-8.13184 20.3828 0 41.0645 5.33594 61.4277
c6.09375 23.2734 14.2129 45.9102 21.8477 68.7188z" />
    <glyph glyph-name="quotesingle" unicode="&#x2019;" horiz-adv-x="224" 
d="M80.626 735.609c11.5635 34.5186 108.275 21.6768 91.7197 -14.4082c-19.001 -41.415 -35.9707 -94.9033 -73.9219 -122.507c-10.2393 -7.4502 -39.3652 -7.30371 -44.9814 6.76855c-8.13184 20.3828 0 41.0645 5.33594 61.4277
c6.09375 23.2734 14.2129 45.9102 21.8477 68.7188z" />
    <glyph glyph-name="quotesingle" unicode="&#x2018;" horiz-adv-x="224" 
d="M80.626 735.609c11.5635 34.5186 108.275 21.6768 91.7197 -14.4082c-19.001 -41.415 -35.9707 -94.9033 -73.9219 -122.507c-10.2393 -7.4502 -39.3652 -7.30371 -44.9814 6.76855c-8.13184 20.3828 0 41.0645 5.33594 61.4277
c6.09375 23.2734 14.2129 45.9102 21.8477 68.7188z" />
    <glyph glyph-name="parenleft" unicode="(" horiz-adv-x="551" 
d="M493.332 -261.014c10.6211 -8.9082 11.2783 -23.5977 -3.13184 -30.0098c-112.828 -50.1709 -256.852 -46.541 -339.325 56.6338c-65.5742 82.041 -84.3018 199.575 -94.541 301.095c-12.2451 121.373 -6.55273 245.421 15.5303 365.368
c21.4844 116.687 52.2148 236.652 102.646 344.45c21.2422 45.4141 53.1123 95.5723 98.5771 119.979c43.2236 23.21 92.5791 37.3271 141.591 31.8896c32.5898 -3.61719 10.4619 -28.5654 -12.8564 -26.5791c-57.2002 4.87109 -96.3799 -50.7373 -118.946 -96.6221
c-22.248 -45.2422 -35.6709 -93.7764 -49.7246 -141.998c-55.3984 -190.112 -82.4541 -393.138 -60.6006 -590.726c9.55176 -86.3516 23.3252 -178.262 66.835 -254.884c17.6006 -30.998 41.2051 -60.4102 74.6348 -75.2217
c39.3584 -17.4473 87.6758 -8.0166 127.588 2.50879c15.9316 4.20215 38.04 5.58984 51.7236 -5.88477z" />
    <glyph glyph-name="parenright" unicode=")" horiz-adv-x="552" 
d="M395.475 732.477c88.332 -223.956 129.71 -478.351 92.9883 -717.582c-14.9512 -97.418 -38.0215 -210.769 -115.968 -278.762c-86.8477 -75.749 -211.297 -71.6738 -311.422 -27.1514c-14.8115 6.59082 -13.6338 21.1914 -3.13379 30.0107
c13.7227 11.5254 35.6338 10.1309 51.7246 5.88379c46.4072 -12.2324 99.9463 -21.0898 142.857 5.86426c34.9961 21.9814 57.3848 58.7295 74.0234 95.6045c37.123 82.2637 49.126 177.409 55.9521 266.606c7.57129 98.9277 2.26074 197.778 -10.6084 296.024
c-13.0859 99.8379 -36.6777 196.816 -65.2109 293.254c-12.2764 41.498 -26.043 83.3145 -47.7568 120.985c-23.127 40.1094 -58.958 82.9062 -109.466 78.6016c-23.4395 -1.99316 -45.3438 22.9746 -12.8564 26.5791c52.2461 5.80078 114.375 -10.1943 156.993 -41.6631
c50.6611 -37.4102 79.4111 -97.2852 101.883 -154.256z" />
    <glyph glyph-name="asterisk" unicode="*" horiz-adv-x="412" 
d="M339.447 533.698c29.5332 -2.17773 30.0713 -30.3467 -0.0224609 -28.1367c-28.9277 2.13965 -57.8682 3.22852 -86.8408 3.29199c24.9609 -23.5664 49.1133 -48.0625 72.3428 -73.5771c16.3008 -17.9121 -30.5391 -26.999 -42.1787 -14.0596
c-17.2686 19.1982 -35.0918 37.8232 -53.3672 55.9648c0.3125 -31.4688 -0.0820312 -62.9502 -1.3877 -94.4443c-0.821289 -19.9434 -50.9854 -19.4404 -50.3418 0c0.808594 24.5342 1.26074 49.0557 1.36914 73.5713c-18.3516 -20.3574 -36.2129 -41.167 -53.4814 -62.4854
c-10.2324 -12.6338 -53.6084 -5.2793 -39.6064 13.1934c26.2471 34.6143 54.3223 67.4775 83.9189 98.876c-7.48242 -0.553711 -14.9707 -1.06348 -22.4395 -1.7959c-12.5127 -1.22266 -45.542 0.598633 -54.4189 -9.97168
c-10.6084 -12.6396 -54.7109 -4.71191 -40.0332 13.3398c11.3408 13.9453 28.0879 15.5312 44.8984 18.167c23.5986 3.69336 47.4834 6.01074 71.3047 7.87012c-33.1367 29.291 -67.541 57.1689 -103.213 83.5244c-16.0469 11.8564 23.7256 23.0566 34.8496 15.3262
c26.0312 -18.0908 51.209 -37.168 75.7246 -57.0029c-1.375 29.3613 -3.27246 58.71 -5.88281 88.0391c-1.62988 18.3701 46.4326 19.1787 48.3555 -0.000976562c3.3623 -33.583 5.94727 -67.2041 7.73047 -100.857c21.4521 20.0518 43.5225 39.4922 66.3564 58.1943
c13.665 11.1875 61.2061 0.477539 43.0391 -14.3398c-27.1582 -22.1465 -53.3418 -45.376 -78.6846 -69.4834c27.3301 -0.0830078 54.6533 -1.18457 82.0088 -3.20312z" />
    <glyph glyph-name="plus" unicode="+" horiz-adv-x="358" 
d="M285.455 393.54c30.3799 0.108398 30.1611 -28.4268 0.0166016 -28.4072c-19.9814 0.00683594 -39.8926 -0.617188 -59.7471 -1.73828c0.34375 -30.7432 1.62988 -61.4355 2.43848 -92.1719c0.859375 -32.7549 6.43066 -67.5918 -3.98633 -99.0732
c-8.83203 -26.6934 -66.0322 -20.0645 -77.8057 0c-17.4727 29.7754 -19.2559 71.541 -23.0254 105.283c-2.75684 24.6426 -4.29102 49.5078 -5.41797 74.3291c-12.9961 -2.06934 -25.9736 -4.29785 -38.9316 -6.84473c-24.0381 -4.72461 -44.4014 20.2432 -12.8564 26.5791
c16.8301 3.375 33.7236 6.32324 50.6484 8.9209c-2.4834 69.8721 0.121094 138.648 9.1377 208.036c5.34277 41.1348 107.378 41.0586 105.563 0c-2.88477 -65.4463 -5.45703 -131.173 -5.78809 -196.722c19.873 1.10156 39.791 1.73242 59.7539 1.80859z" />
    <glyph glyph-name="comma" unicode="," horiz-adv-x="246" 
d="M99.7725 64.1045c14.2822 33.1494 110.065 23.9404 94.1143 -14.7998c-12.5 -30.3477 -25.8594 -60.2949 -40.8613 -89.5029c-14.3525 -27.9346 -26.6035 -54.1377 -53.5127 -71.3877c-11.1309 -7.1377 -38.4355 -7.47559 -44.9814 6.76855
c-11.6787 25.4199 1.94824 53.3486 10.2773 78.4883c10.1816 30.7178 22.165 60.7285 34.9639 90.4336z" />
    <glyph glyph-name="hyphen" unicode="-" horiz-adv-x="404" 
d="M306.576 313.805c15.1611 0.18457 47.8066 -6.24023 47.8066 -27.2471c0 -21.5859 -32.0225 -26.6357 -47.8076 -27.2529c-79.8369 -3.11328 -160.725 -3.02441 -239.95 7.74316c-22.9678 3.12012 -21.3506 23.0508 0 27.126
c78.6143 15.002 159.986 18.6758 239.951 19.6309z" />
    <glyph glyph-name="period" unicode="." horiz-adv-x="228" 
d="M82.5908 57.7881c12.1816 33.5127 107.099 25.9229 94.1211 -14.7979c-12.5762 -39.4473 -25.5156 -91.5596 -53.4316 -122.99c-12.8818 -14.5059 -49.4834 -14.4678 -62.3711 -0.000976562c-10.0225 11.252 -12.627 16.6641 -9.88867 31.5391
c2.03125 11.0605 4.89648 22.166 7.94043 32.9844c6.94043 24.7002 14.874 49.1582 23.6299 73.2656z" />
    <glyph glyph-name="slash" unicode="/" horiz-adv-x="734" 
d="M587.096 768.142c18.7402 24.9551 115.515 11.7725 93.7373 -22.5303c-100.551 -158.433 -205.82 -313.032 -299.418 -475.885c-46.375 -80.6973 -91.4707 -162.254 -135.178 -244.428c-44.2168 -83.1484 -83.3584 -174.435 -148.296 -243.86
c-10.2969 -11.0098 -53.3799 -10.7168 -47.3691 11.3848c24.2607 89.1465 68.248 174.823 108.822 257.514c40.7275 83.002 83.8682 164.616 129.225 245.186c91.1084 161.84 186.846 323.947 298.477 472.619z" />
    <glyph glyph-name="zero" unicode="0" horiz-adv-x="560" 
d="M79.2637 69.0293c-6.47559 68 -0.515625 136.361 10.8633 203.73c-50.1768 84.4795 -48.6426 190.603 -20.8984 282.176c23.3564 77.0869 67.8984 155.625 149.493 180.873c71.9482 22.2617 140.674 -8.09277 184.413 -66.5791
c51.1318 -68.3691 74.8701 -156.638 89.9551 -239.48c17.4795 -95.9795 22.9814 -196.639 10.9463 -293.599c-10.3223 -83.1484 -32.0801 -173.677 -86.377 -239.741c-55.4238 -67.4395 -149.824 -92.8525 -227.096 -46.2861
c-75.8193 45.6943 -103.372 135.682 -111.3 218.906zM111.91 531.388c-14.7988 -56.3857 -18.415 -117.487 -5.15137 -174.669c0.949219 4.27246 1.8916 8.55176 2.85938 12.8057c9.33496 41.1416 113.382 39.1484 106.556 0
c-8.58398 -49.2217 -17.8682 -98.6982 -24.3691 -148.436c26.8965 -18.1162 58.8936 -26.7256 94.457 -18.4414c17.3203 4.03711 43.6699 -17.4092 17.6709 -23.8916c-40.7979 -10.1689 -80.6338 -6.53906 -116.12 7.94141
c-2.52832 -25.0635 -4.17773 -50.1904 -4.43848 -75.3936c-0.732422 -70.8271 3.22168 -155.746 53.8955 -211.081c11.7354 -12.8184 28.501 -27.54 46.8203 -26.8398c16.3135 0.624023 33.7227 13.5566 45.7959 23.834c24.2285 20.625 42.376 46.8467 56.7539 75.0361
c33.0166 64.7461 50.4961 138.967 60.0859 210.597c18.9883 141.769 3.46387 300.877 -61.4473 429.91c-31.0166 61.6387 -89.0068 128.906 -163.941 89.6309c-61.7783 -32.373 -92.6357 -107.015 -109.427 -171.003z" />
    <glyph glyph-name="one" unicode="1" horiz-adv-x="481" 
d="M97.3789 561.737c-6.34863 -16.6582 -53.9023 -12.2969 -46.624 7.32227c26.3242 71.0059 97.4121 149.945 180.465 142.578c86.7656 -7.69824 127.226 -105.518 144.074 -178.268c25.127 -108.505 24.6172 -225.007 25.2861 -335.797
c0.681641 -113.592 -1.56641 -227.738 -12.207 -340.84c-0.222656 -2.38184 -0.801758 -4.61719 -1.60449 -6.7373c4.25391 0.388672 8.51367 0.674805 12.7676 1.09473c8.58984 0.853516 27.502 0.726562 31.2715 -10.1172
c3.63574 -10.4688 -8.94629 -16.9697 -17.7529 -17.8232c-59.4102 -5.75586 -118.891 -8.85059 -178.587 -8.91406c-30.6797 -0.0322266 -30.457 28.6162 -0.000976562 28.6992c15.499 0.0380859 30.9785 0.331055 46.4521 0.763672
c-2.46387 3.80176 -3.95996 8.125 -4.07422 13.0342c-4.29199 182.865 18.3701 365.928 19.0898 548.997c0.298828 75.7363 4.5459 166.494 -27.7441 237.003c-47.0439 102.723 -148.958 -23.6426 -170.812 -80.9961z" />
    <glyph glyph-name="two" unicode="2" horiz-adv-x="586" 
d="M63.0293 -170.992c-11.6143 8.36035 -18.6416 19.3906 -7.21191 31.9033c30.7432 33.6338 73.7441 58.2451 107.747 88.9502c34.3594 31.0293 66.0889 64.9053 95.6348 100.538c53.0996 64.0391 96.5781 136.726 130.225 212.749
c37.1426 83.9316 67.459 176.186 66.1094 268.898c-0.694336 47.7002 -11.373 95.375 -47.7959 128.812c-37.9512 34.8438 -93.127 35.8311 -137.217 11.9268c-69.3691 -37.6201 -141.228 -150.143 -106.002 -229.4c8.46875 -19.0645 -39.7148 -23.8779 -47.1074 -7.40527
c-43.8662 97.7686 48.3945 229.565 137.879 266.402c41.3828 17.0332 89.4199 21.0322 132.637 8.51953c48.6865 -14.0977 80.3594 -48.0947 104.085 -91.4141c55.6846 -101.679 48.3486 -212.724 14.6445 -320.63c-31.1123 -99.6025 -81.9258 -190.526 -146.328 -272.344
c-48.292 -61.3525 -111.268 -128.27 -181.878 -171.735c3.33008 0.350586 6.66016 0.649414 9.99023 1.01855c20.8096 2.31738 41.6123 4.69238 62.415 7.04199c33.4551 3.77637 66.9043 8.04297 100.519 10.125c61.4414 3.80762 125.48 -1.51562 177.224 -37.8496
c24.4395 -17.1611 -20.7012 -31.0361 -35.9512 -20.4912c-65.2559 45.1084 -147.538 28.2148 -221.129 19.1094c-42.4785 -5.25293 -84.8867 -11.7607 -127.391 -16.6514c-27.7881 -3.19629 -57.168 -5.29102 -81.0977 11.9268z" />
    <glyph glyph-name="three" unicode="3" horiz-adv-x="683" 
d="M244.178 -158.595c76.0742 -46.0381 163.557 -1.49707 217.089 57.9961c54.6982 60.7725 79.9971 145.43 74.5781 226.317c-5.34277 79.7354 -43.9561 152.18 -104.499 203.814c-44.8086 38.2188 -115.292 73.5332 -175.867 60.1162
c-13.5439 -5.85156 -27.2598 -11.2891 -41.1289 -16.2363c-21.0898 -7.52051 -52.3867 -6.39941 -70.6172 8.03613c-16.6963 13.2188 -13.0918 30.3223 4.2793 40.9688c20.4912 12.5566 42.7334 20.9424 65.9502 25.8262c41.2812 18.2627 80.0605 41.46 115.936 69.6494
c33.9141 26.6484 128.836 96.8389 87.3701 148.486c-20.2871 25.2666 -68.5088 24.9414 -96.8066 22.1777c-33.666 -3.28613 -66.4023 -13.8945 -96.9287 -28.1768c-54.3984 -25.4512 -112.433 -65.3633 -126.874 -127.32
c-4.22852 -18.1348 -49.4199 -16.0332 -45.8672 0.000976562c17.2559 77.8252 89.0254 125.965 158.273 155.619c67.1787 28.7627 159.51 46.127 227.58 9.88867c31.7363 -16.8994 54.3477 -48.1895 53.2715 -85.0449c-1.15918 -39.709 -23.9238 -70.3242 -49.999 -97.96
c-26.3174 -27.8838 -55.8311 -52.2969 -87.542 -73.5078c57.4043 -14.8877 112.013 -42.8096 153.402 -75.3545c174.632 -137.292 168.321 -412.112 -11.8887 -542.069c-93.8525 -67.6816 -233.074 -82.7539 -330.779 -13.8496
c-99.9141 70.4639 -123.544 207.808 -109.331 321.858c4.31738 34.6523 86.8359 35.3145 89.1475 0c6.61621 -101.055 1.2168 -230.699 101.252 -291.236z" />
    <glyph glyph-name="four" unicode="4" horiz-adv-x="705" 
d="M113.193 133.884c-33.6914 1.7832 -67.583 21.041 -62.7305 59.2148c10.5957 83.2314 122.755 113.752 189.691 129.175c14.709 3.3877 29.5078 6.32324 44.3506 8.99121c18.2939 37.002 32.9463 75.501 44.6816 111.663c15.8047 48.7061 26.458 98.9336 32.0293 149.837
c5.67383 51.832 10.7871 110.108 -5.14453 160.482c-6.48828 20.5166 41.7402 24.2607 47.1084 7.40527c17.0146 -53.4307 13.0732 -112.828 7.23438 -167.889c-5.85156 -55.2139 -17.8096 -109.956 -35.2246 -162.674
c-9.8252 -29.7373 -21.5166 -60.1875 -35.3594 -89.9307c53.4375 7.81348 107.098 14.3018 159.713 25.999c-1.62402 31.7939 -2.80859 63.6064 -3.25391 95.4443c-1.07617 77.418 4.6543 152.977 11.2705 229.98c3.69922 43.0068 111.045 40.6191 107.556 0
c-12.6904 -147.703 -2.3623 -300.074 6.66016 -447.771c4.44434 -72.7314 8.46875 -145.717 15.8301 -218.219c3.63574 -35.7607 7.59668 -71.54 12.7031 -107.122c4.21582 -29.4053 6.94727 -55.0605 -0.235352 -84.0586
c-3.52148 -14.2188 -33.7744 -12.1807 -42.4854 -6.39258c-57.1494 37.9824 -66.0127 122.621 -76.0732 185.597c-11.5449 72.2148 -17.5303 144.901 -23.0703 217.767c-2.66797 35.0732 -5.18945 70.1592 -7.27148 105.276
c-58.5117 -11.7734 -118.005 -18.4531 -177.046 -28.1191c-26.6611 -50.0938 -60.1934 -96.5137 -102.442 -131.815c-30.1885 -25.2285 -68.127 -44.9678 -108.491 -42.8408zM100.041 188.712c-2.1709 -44.1338 49.2012 -18.8057 68.0498 -5.37598
c40.2939 28.6865 72.5908 69.5029 98.6348 114.599c-44.459 -9.18848 -92.5215 -21.7705 -128.384 -49.5332c-17.8545 -13.8242 -37.1289 -35.9004 -38.3008 -59.6895z" />
    <glyph glyph-name="five" unicode="5" horiz-adv-x="646" 
d="M229.264 661.9c-61.085 -14.4668 -148.303 -19.998 -178.332 49.3203c-8.06152 18.6191 38.6455 23.1787 45.6689 7.17676c24.9736 -56.9072 92.668 -37.626 139.457 -24.7383c43.2236 11.9014 85.8232 26.1963 129.855 34.9775
c56.3662 11.2393 174.912 24.9229 190.124 -53.0039c3.4707 -17.7656 -45.9678 -19.8477 -49.8457 0c-11.3594 58.1553 -120.934 32.9268 -201.229 9.1123c0.439453 -1.45801 0.65625 -3.04395 0.337891 -4.91016c-7.18262 -42.1533 -15.1484 -82.1416 -28.7305 -122.844
c-6.52051 -19.5488 -13.2705 -39.0342 -19.9053 -58.5508c-3.78223 -11.1182 -10.1562 -23.4775 -12.168 -35.0986c-12.5312 -0.668945 -11.9961 -1.49023 1.61133 -2.44531c1.5791 -0.0888672 3.1582 -0.18457 4.7373 -0.273438
c76.4053 -5.58398 147.907 -14.6328 214.239 -56.8438c49.9668 -31.7939 91.4453 -77.7432 113.579 -133.104c25.5537 -63.9121 19.6895 -130.925 1.84082 -196.009c-34.7803 -126.812 -126.385 -228.783 -264.467 -233.929
c-59.9004 -2.22852 -122.742 14.6016 -168.086 55.1123c-44.9619 40.167 -58.5889 96.4883 -52.3613 154.638c13.0723 121.997 100.29 231.902 229.884 232.062c30.4248 0.0380859 30.0938 -27.8965 0 -28.4121c-139.802 -2.36914 -192.15 -183.617 -138.242 -290.746
c52.7754 -104.875 181.821 -84.5049 245.6 -3.26074c64.7842 82.5244 101.29 217.244 53.959 314.942c-22.4209 46.2803 -60.0664 84.0527 -105.907 107.263c-53.7109 27.1963 -106.326 23.1719 -164.157 27.7568c-22.8408 1.81445 -54.4941 6.3291 -67.3379 28.4307
c-12.251 21.083 5.8584 49.5459 14.2568 68.375c24.6875 55.3223 50.1201 107.798 81.0283 159.293c-6.11914 -1.83984 -11.3789 -3.33594 -15.4092 -4.29102z" />
    <glyph glyph-name="six" unicode="6" horiz-adv-x="563" 
d="M161.86 -144.49c-60.4922 37.4795 -91.001 108.452 -103.845 175.86c-28.4756 149.403 22.2812 314.955 98.9287 442.575c37.9189 63.1348 84.5869 122.315 142.227 168.614c47.4453 38.1104 111.453 91.7891 176.25 69.292
c30.2207 -10.4941 -5.97266 -29.5273 -24.4072 -23.8027c-26.1387 8.11914 -68.6807 -32.583 -84.5811 -49.0498c-21.5293 -22.2871 -40.5049 -46.9111 -58.5 -72.0889c-35.4355 -49.5723 -66.8086 -102.634 -91.2861 -158.472
c-41.2109 -94.0244 -68.4004 -199.594 -65.1533 -303.195c93.3877 55.5508 219.562 69.1523 307.958 5.36133c50.1387 -36.1748 64.377 -100.036 44.3379 -157.218c-20.2744 -57.8564 -75.7236 -95.3682 -132.325 -112.58
c-66.0518 -20.084 -149.232 -22.707 -209.604 14.7031zM398.944 104.891c-81.6074 37.7539 -176.957 12.543 -244.333 -42.5879c12.3535 -100.354 64.6377 -212.5 183.751 -191.2c53.9912 9.65332 101.525 45.248 118.113 98.666
c17.002 54.7363 -4.9541 110.804 -57.5312 135.122z" />
    <glyph glyph-name="seven" unicode="7" horiz-adv-x="569" 
d="M77.9492 620.854c-22.9492 -3.40625 -42.9668 20.7373 -12.3135 25.4688c57.3467 8.87695 113.503 21.5039 169.475 36.7539c47.4512 12.9326 95.9023 25.3369 145.513 21.001c36.8945 -3.22168 76.8193 -15.3008 98.0615 -47.9473
c24.5088 -37.6582 30.5391 -89.3955 31.2715 -133.097c1.63672 -97.2207 -25.2539 -191.29 -49.8457 -284.569c11.9268 0.419922 23.8535 0.999023 35.7734 1.89062c24.1338 1.81445 34.0166 -25.4775 6.55957 -27.623
c-16.5752 -1.29297 -33.1377 -2.27344 -49.7256 -2.80176c-27.8965 -109.555 -44.5029 -221.459 -72.3994 -330.842c-8.54492 -33.4873 -106.301 -30.5586 -104.658 8.07422c4.77539 112.204 35.1875 219.606 69.2285 326.099
c-3.78906 -0.458008 -7.48828 -1.12012 -11.0352 -2.0752c-9.04199 -2.43262 -27.9033 -4.22168 -34.4434 5.15137c-6.04883 8.66602 -1.06934 16.9443 9.0293 19.6318c15.5117 4.12598 30.3545 5.14453 45.3633 4.97266c21.707 66.9238 44.1084 133.612 61.7148 201.039
c12.5889 48.2031 18.6191 96.6543 23.4268 146.093c1.86523 19.1729 3.75 39.1416 -6.48242 56.5059c-14.4932 24.5986 -43.5107 31.5332 -70.0508 32.2207c-50.6797 1.32422 -100.442 -17.5498 -149.021 -29.4824c-44.7266 -10.9902 -89.8799 -19.708 -135.44 -26.4639z
" />
    <glyph glyph-name="eight" unicode="8" horiz-adv-x="574" 
d="M413.13 649.643c46.6934 -54.1826 55.1426 -130.568 54.7227 -199.371c-0.541016 -89.6758 -14.8682 -178.447 -30.1953 -266.62c17.9883 -24.5596 34.4736 -50.1064 48.6865 -76.7617c19.2871 -36.1621 34.7539 -75.2471 37.6895 -116.503
c2.92285 -41.0518 -10.7676 -74.959 -32.0801 -109.434c-77.8574 -125.913 -260.685 -106.53 -348.405 -4.08105c-51.4951 60.1426 -71.6992 141.081 -68.751 219.04c3.22168 85.1543 29.8701 181.363 73.7236 254.438c1.41406 2.34961 3.77637 4.14551 6.62305 5.52734
c-1.95508 1.84668 -3.92871 3.66797 -5.87695 5.52051c-56.2578 53.4756 -110.268 122.851 -97.3281 205.554c24.4834 156.479 265.874 193.296 361.191 82.6904zM262.878 680.78c-94.9668 -0.273438 -137.146 -94.5977 -105.264 -175.868
c32.1377 -81.9453 109.663 -136 170.22 -196.13c23.0762 -22.917 45.8086 -46.8271 67.3438 -71.833c13.5889 80.8057 24.4072 162.534 21.1982 244.288c-3.64844 92.8721 -42.9688 199.854 -153.498 199.543zM403.799 -151.629
c35.9199 25.8525 50.8594 56.6152 48.5732 100.228c-4.57227 86.9941 -58.7549 162.712 -113.612 227.044c-46.8848 54.9844 -100.437 103.111 -153.345 151.996c-45.1533 -83.4736 -69.9111 -190.979 -60.0605 -284.105
c9.66016 -91.3564 61.0918 -186.394 153.588 -215.437c43.332 -13.6016 88.001 -6.24707 124.856 20.2744z" />
    <glyph glyph-name="nine" unicode="9" horiz-adv-x="678" 
d="M254.648 661.613c53.3291 27.0303 182.2 72.2119 219.565 -2.06055c8.98438 -17.8672 -36.3213 -21.2168 -44.707 -7.02344c-27.5146 46.541 -105.219 -6.08105 -131.842 -28.7119c-33.6846 -28.6348 -64.2109 -60.3896 -90.5791 -95.8828
c-45.4268 -61.1543 -89.0195 -165.036 -23.2227 -228.84c35.0215 -33.9648 86.9873 4.68652 118.329 28.3164c36.1104 27.2344 66.6494 61.7148 92.292 98.8193c53.0293 76.7236 86.9814 165.47 118.73 252.592c6.01758 16.5244 48.502 14.6904 50.5908 -3.90332
c3.72461 -33.2266 17.9688 -65.3955 24.2666 -98.5195c5.4502 -28.6865 10.4746 -57.3916 15.1934 -86.2051c9.21387 -56.2773 16.8994 -113.02 21.3438 -169.883c7.87695 -100.818 6.19629 -206.858 -38.2246 -300.004
c-39.5625 -82.9639 -117.789 -159.7 -213.215 -167.367c-94.6553 -7.60254 -172.111 61.0215 -184.337 153.257c-2.84668 21.4775 51.749 21.4395 56.3145 0c8.53906 -40.0781 34.334 -89.5293 77.5508 -101.08c34.6904 -9.27148 65.9941 14.7852 89.2236 37.5117
c50.8203 49.7314 81.0156 119.871 93.6494 189.157c16.1934 88.7588 8.5332 176.867 4.47656 266.237c-1.94824 42.9629 -3.76953 85.8809 -4.24707 128.882c-25.7129 -57.2324 -56.1885 -111.949 -97.6035 -160.451c-56.1621 -65.7715 -143.634 -136.751 -235.99 -121.628
c-93.5596 15.3145 -140.209 106.919 -115.783 194.188c26.5146 94.7373 112.459 179.128 198.225 222.6z" />
    <glyph glyph-name="colon" unicode=":" horiz-adv-x="204" 
d="M152.889 408.727c2.55957 -27.5078 0.662109 -56.1113 0.0576172 -83.709c-0.674805 -31.0615 -79.5439 -30.0996 -78.2002 0c0.904297 20.3125 2.19727 40.5869 3.52148 60.8809c1.40137 21.4209 0.0830078 37.7217 20.7139 48.3936
c11.4551 5.92871 24.8203 5.33008 36.3008 0c12.7031 -5.90234 16.3584 -12.2129 17.6064 -25.5654zM92.0967 0.338867c24.7129 10.042 49.2031 -8.45703 52.5908 -32.3037c3.77637 -26.5723 -0.286133 -54.6533 -1.50879 -81.334
c-1.71289 -37.2568 -95.6035 -35.4102 -93.127 0c1.54688 22.1152 3.22754 44.0771 7.5 65.8672c4.73145 24.1465 11.3604 38.3525 34.5449 47.7705z" />
    <glyph glyph-name="semicolon" unicode=";" horiz-adv-x="249" 
d="M182.535 455.555c13.7031 -34.6465 18.3574 -68.585 15.333 -105.791c-2.56641 -31.5391 -80.8115 -27.6865 -76.7109 0c5.01758 33.9014 8.52637 68.1016 12.9141 102.054c2.30469 17.8926 42.2295 19.5039 48.4639 3.7373zM131.187 4.11621
c3.41895 18.835 40.1543 18.3262 48.4766 3.73828c24.6172 -43.1982 17.7529 -89.7715 7.18945 -136.644c-11.1309 -49.3555 -26.668 -96.4189 -49.6865 -141.54c-14.4932 -28.4121 -100.138 -22.4395 -85.4854 13.4297c34.876 85.3643 63.0459 170.271 79.5059 261.016z
" />
    <glyph glyph-name="less" unicode="&#x3c;" horiz-adv-x="434" 
d="M360.423 157.76c17.1611 -5.35547 32.4668 -21.7021 17.5156 -38.0479c-15.8047 -17.2754 -46.458 -15.3584 -66.7705 -9.97754c-52.7305 13.9707 -107.129 19.7012 -160.178 32.2705c-28.667 6.78809 -106.568 19.5869 -100.672 63.5557
c5.80762 43.2998 75.2783 70.9355 108.473 86.6768c50.7695 24.0762 102.124 39.8936 155.517 56.4873c19.2051 5.9668 56.9268 -11.5 25.6621 -25.0244c-36.3145 -15.709 -71.5527 -37.8555 -105.843 -57.5566c-16.1543 -9.28418 -32.1885 -18.8105 -47.7637 -29.0371
c-7.18262 -4.71875 -38.4219 -24.3242 -39.1602 -30.8066c-0.216797 -1.92285 37.1992 -11.5381 47.0186 -13.7285c18.3447 -4.10059 36.9385 -7.14453 55.4619 -10.3604c37.3076 -6.47559 74.5391 -13.1426 110.739 -24.4512z" />
    <glyph glyph-name="equal" unicode="=" horiz-adv-x="586" 
d="M272.868 374.094c-66.166 -3.33008 -133.189 -1.64453 -199.095 -6.12695c-24.8213 -1.68066 -34.9971 24.9619 -6.75684 28.4639c66.9619 8.30371 132.867 21.1982 200.383 27.2344c68.2168 6.10059 136.497 10.0234 204.93 12.6025
c14.3594 0.541016 45.3184 -6.18945 45.3184 -25.834c0 -20.5928 -30.3613 -25.0566 -45.3193 -25.834c-66.4912 -3.45117 -132.963 -7.16309 -199.46 -10.5059zM534.79 260.251c7.5459 -19.3262 -17.3184 -31.9668 -33.2119 -33.3418
c-71.2158 -6.20215 -142.432 -12.8311 -213.558 -20.0078c-67.4902 -6.80664 -138.75 -19.2549 -206.502 -13.5938c-19.9502 1.66211 -25.7637 20.1533 -6.43164 28.0361c59.3271 24.1904 131.981 28.0488 195.116 36.0215c68.5791 8.66016 137.229 15.8242 206.088 21.8164
c16.8232 1.46484 50.5586 1.39453 58.499 -18.9307z" />
    <glyph glyph-name="greater" unicode="&#x3e;" horiz-adv-x="401" 
d="M349.833 260.935c10.0928 -42.0195 -44.0322 -73.6289 -73.7373 -90.6055c-46.9932 -26.8584 -97.6348 -47.585 -148.423 -65.9873c-19.1406 -6.94043 -54.4492 -6.57715 -69.1523 10.335c-15.6514 18.0078 1.13379 32.1562 18.1357 39.415
c37.4541 15.9951 75.6533 30.4307 111.872 49.1455c13.3848 6.92188 83.8555 39.2881 57.3535 58.5059c-10.125 7.3418 -31.5713 7.02344 -43.0713 8.93359c-17.9756 2.98633 -35.8818 5.89648 -53.6475 9.99121c-33.8379 7.79395 -60.2695 21.2617 -91.0059 36.0342
c-25.9414 12.4678 17.0977 26.9287 30.5078 22.5352c49.6162 -16.2627 108.236 -15.085 159.82 -22.3311c34.0479 -4.78809 91.6943 -15.7852 101.348 -55.9717z" />
    <glyph glyph-name="question" unicode="?" horiz-adv-x="493" 
d="M442.429 601.603c3.91016 -109.567 -39.0967 -222.684 -69.8457 -326.094c-16.9951 -57.1494 -34.6523 -114.356 -46.3691 -172.881c-11.1816 -55.8506 -13.3086 -111.771 -19.3838 -168.157c-4.70605 -43.7012 -104.041 -42.7715 -110.039 0
c-8.32227 59.3398 3.94824 122.188 16.9893 180.025c12.251 54.3477 27.8896 107.887 46.1396 160.516c36.9453 106.537 84.792 214.825 103.105 326.59c7.76172 47.3691 8.57031 110.594 -41.5684 135.746c-53.2656 26.7188 -126.531 -10.0605 -165.195 -46.8652
c-69.7383 -66.3887 -89.7393 -212.934 23.5791 -248.356c30.1631 -9.43066 -5.67383 -29.6094 -24.4072 -23.7959c-95.3232 29.5771 -129.441 136.095 -88.2109 222.676c38.6895 81.251 130.205 134.306 219.568 133.025
c94.3877 -1.34961 152.454 -83.2119 155.638 -172.429zM309.938 -198.995c-1.31152 -35.2578 6.31055 -76.8701 -9.75488 -109.466c-6.77539 -13.7539 -35.2002 -13.3467 -44.6436 -3.32422c-28.2656 30.0039 -30.6855 73.4697 -31.2646 112.79
c-0.49707 33.7998 86.8984 33.2139 85.6631 0z" />
    <glyph glyph-name="at" unicode="@" horiz-adv-x="1057" 
d="M1004.08 475.715c14.4229 -108.849 -20.1826 -227.593 -89.2139 -312.537c-66.1084 -81.3906 -206.024 -145.608 -289.511 -49.4824c-34.4746 39.6826 -48.0566 95.3867 -51.2598 146.799c-0.853516 13.6963 -0.49707 27.1895 0.584961 40.5674
c-22.4072 -37.626 -46.9033 -73.9404 -75.1562 -107.887c-50.7119 -60.9316 -122.437 -137.337 -209.246 -100.271c-88.4785 37.7852 -49.8457 156.516 -17.8359 221.784c36.1104 73.6221 100.856 137.413 175.326 171.626
c52.9658 24.3242 147.978 37.9385 174.237 -29.4248c13.875 1.11426 28.2979 -2.96094 27.0049 -14.3271c-6.48828 -56.9902 -0.598633 -114.229 8.51367 -170.868c7.62207 -47.3818 21.4336 -107.313 61.1162 -139.202c33.0801 -26.5781 80.7676 28.9092 100.946 52.6094
c31.6025 37.1104 53.1123 83.25 66.5225 129.874c25.8018 89.7012 23.5918 194.685 -30.6416 273.592c-48.3369 70.3301 -129.964 112.548 -214.462 117.222c-170.729 9.44336 -325.245 -108.071 -412.132 -246.815c-95.5273 -152.543 -132.243 -367.043 -33.0166 -527.431
c46.3369 -74.8965 128.244 -113.146 214.972 -111.981c95.8262 1.29297 183.483 49.0371 264.015 96.2979c23.1016 13.5635 91.9033 -4.6543 54.2451 -30.9141c-105.671 -73.6797 -233.443 -122.5 -363.82 -110.841c-121.271 10.8379 -225.682 76.6475 -275.209 189.609
c-89.8604 204.923 -20.2812 456.559 126.505 616.481c149.244 162.604 400.065 242.402 606.115 141.074c97.0996 -47.7441 167.099 -137.598 181.4 -245.555zM483.353 248.071c42.8604 56.6465 75.7861 119.66 107.541 182.979
c-6.12598 1.55371 -11.0547 4.6416 -12.4492 9.42383c-29.9404 102.685 -141.011 -26.5596 -167.978 -66.2168c-37.0342 -54.4492 -75.749 -133.063 -68.8271 -200.809c1.08887 -10.6406 3.4707 -19.9629 9.02344 -29.1387
c2.55371 -4.22852 10.832 -7.99805 5.76367 -7.6543c15.9443 -1.07617 43.0771 24.8213 54.1182 34.1436c27.2539 23.0127 51.2979 48.8398 72.8076 77.2715z" />
    <glyph glyph-name="A" unicode="A" horiz-adv-x="1149" 
d="M347.855 452.628c28.9277 141.037 71.6973 279.787 135.546 409.088c57.8115 117.075 136.445 259.194 268.179 304.487c52.9277 18.2051 114.261 10.1631 150.072 -35.8809c34.2129 -43.9941 41.4082 -104.983 49.3994 -158.325
c22.0762 -147.397 26.9727 -296.527 34.5566 -445.167c1.47754 -28.9541 3.05078 -57.9395 4.86523 -86.9248c29.6348 -6.68555 57.2324 -18.918 79.207 -41.79c17.0332 -17.7275 -30.7939 -27.0879 -43.0391 -14.3398c-10.125 10.5322 -21.625 17.8105 -33.9717 22.9424
c7.62891 -109.727 19.4727 -219.243 43.4082 -326.64c30.1377 -135.217 77.3408 -280.183 187.087 -371.979c18.5557 -15.5176 -30.2266 -26.0752 -43.8975 -14.626c-102.806 86.0713 -151.658 216.563 -183.509 343.113
c-31.4365 124.901 -45.5029 252.979 -54.1562 381.249c-9.52637 0.802734 -19.1602 1.19141 -28.7432 1.47754c-43.7461 1.29883 -87.5488 0.948242 -131.288 -0.478516c-93.7695 -3.05664 -187.246 -11.2451 -280.57 -20.5293
c-17.7275 -1.76367 -35.4482 -3.59766 -53.1689 -5.4248c-1.46484 -7.57715 -2.8916 -15.167 -4.27344 -22.7695c97.8828 -88.5039 153.727 -212.863 181.687 -340.648c16.9316 -77.373 24.1396 -158.656 2.55957 -235.883
c-15.333 -54.8887 -51.8516 -109.135 -115.572 -104.295c-56.4492 4.28516 -108.384 59.3711 -134.312 105.944c-32.7744 58.8818 -49.9482 132.039 -59.1943 198.319c-17.9316 128.581 -6.7373 260.016 15.6064 387.865
c-35.3916 -3.45801 -70.7959 -6.75684 -106.251 -9.47559c-64.835 -4.9668 -134.828 -1.1084 -176.549 55.5762c-10.2139 13.875 33.6592 22.6494 42.8281 10.29c28.5146 -38.4287 71.8145 -42.7715 116.547 -40.0078c42.9111 2.64844 85.7715 7.40527 128.543 11.8623
c2.7002 14.3721 5.48242 28.7119 8.40527 42.9688zM561.883 88.5518c-25.6611 86.6318 -66.1572 168.767 -126.172 235.461c-14.4805 -91.4326 -22.4658 -184.095 -19.6709 -276.317c1.98047 -65.4209 5.24023 -133.745 21.7002 -197.364
c8.85742 -34.2383 47.916 -166.239 101.812 -123.48c47.9287 38.0273 53.5449 121.997 52.7744 177.759c-0.859375 62.1484 -12.8301 124.475 -30.4434 183.942zM656.394 984.553c-31.2139 -54.7041 -58.2246 -112.351 -82.3838 -170.468
c-48.5918 -116.91 -86.8105 -237.762 -113.886 -361.453c-2.26074 -10.3281 -4.43848 -20.6943 -6.57812 -31.0801c55.0859 5.7373 110.191 11.3154 165.398 15.8496c87.3643 7.17676 174.957 12.0605 262.646 10.9717c18.8037 -0.235352 38.499 -0.375 58.1562 -1.63574
c-0.439453 7.11914 -0.878906 14.2441 -1.29297 21.3691c-7.60938 131.154 -11.8115 262.607 -25.3232 393.348c-6.59668 63.8799 -20.4268 344.38 -144.882 263.95c-49.3623 -31.9014 -83.4229 -91.0312 -111.854 -140.852z" />
    <glyph glyph-name="A" unicode="&#xc5;" horiz-adv-x="1149" 
d="M347.855 452.628c28.9277 141.037 71.6973 279.787 135.546 409.088c57.8115 117.075 136.445 259.194 268.179 304.487c52.9277 18.2051 114.261 10.1631 150.072 -35.8809c34.2129 -43.9941 41.4082 -104.983 49.3994 -158.325
c22.0762 -147.397 26.9727 -296.527 34.5566 -445.167c1.47754 -28.9541 3.05078 -57.9395 4.86523 -86.9248c29.6348 -6.68555 57.2324 -18.918 79.207 -41.79c17.0332 -17.7275 -30.7939 -27.0879 -43.0391 -14.3398c-10.125 10.5322 -21.625 17.8105 -33.9717 22.9424
c7.62891 -109.727 19.4727 -219.243 43.4082 -326.64c30.1377 -135.217 77.3408 -280.183 187.087 -371.979c18.5557 -15.5176 -30.2266 -26.0752 -43.8975 -14.626c-102.806 86.0713 -151.658 216.563 -183.509 343.113
c-31.4365 124.901 -45.5029 252.979 -54.1562 381.249c-9.52637 0.802734 -19.1602 1.19141 -28.7432 1.47754c-43.7461 1.29883 -87.5488 0.948242 -131.288 -0.478516c-93.7695 -3.05664 -187.246 -11.2451 -280.57 -20.5293
c-17.7275 -1.76367 -35.4482 -3.59766 -53.1689 -5.4248c-1.46484 -7.57715 -2.8916 -15.167 -4.27344 -22.7695c97.8828 -88.5039 153.727 -212.863 181.687 -340.648c16.9316 -77.373 24.1396 -158.656 2.55957 -235.883
c-15.333 -54.8887 -51.8516 -109.135 -115.572 -104.295c-56.4492 4.28516 -108.384 59.3711 -134.312 105.944c-32.7744 58.8818 -49.9482 132.039 -59.1943 198.319c-17.9316 128.581 -6.7373 260.016 15.6064 387.865
c-35.3916 -3.45801 -70.7959 -6.75684 -106.251 -9.47559c-64.835 -4.9668 -134.828 -1.1084 -176.549 55.5762c-10.2139 13.875 33.6592 22.6494 42.8281 10.29c28.5146 -38.4287 71.8145 -42.7715 116.547 -40.0078c42.9111 2.64844 85.7715 7.40527 128.543 11.8623
c2.7002 14.3721 5.48242 28.7119 8.40527 42.9688zM561.883 88.5518c-25.6611 86.6318 -66.1572 168.767 -126.172 235.461c-14.4805 -91.4326 -22.4658 -184.095 -19.6709 -276.317c1.98047 -65.4209 5.24023 -133.745 21.7002 -197.364
c8.85742 -34.2383 47.916 -166.239 101.812 -123.48c47.9287 38.0273 53.5449 121.997 52.7744 177.759c-0.859375 62.1484 -12.8301 124.475 -30.4434 183.942zM656.394 984.553c-31.2139 -54.7041 -58.2246 -112.351 -82.3838 -170.468
c-48.5918 -116.91 -86.8105 -237.762 -113.886 -361.453c-2.26074 -10.3281 -4.43848 -20.6943 -6.57812 -31.0801c55.0859 5.7373 110.191 11.3154 165.398 15.8496c87.3643 7.17676 174.957 12.0605 262.646 10.9717c18.8037 -0.235352 38.499 -0.375 58.1562 -1.63574
c-0.439453 7.11914 -0.878906 14.2441 -1.29297 21.3691c-7.60938 131.154 -11.8115 262.607 -25.3232 393.348c-6.59668 63.8799 -20.4268 344.38 -144.882 263.95c-49.3623 -31.9014 -83.4229 -91.0312 -111.854 -140.852z" />
    <glyph glyph-name="A" unicode="&#xc4;" horiz-adv-x="1149" 
d="M347.855 452.628c28.9277 141.037 71.6973 279.787 135.546 409.088c57.8115 117.075 136.445 259.194 268.179 304.487c52.9277 18.2051 114.261 10.1631 150.072 -35.8809c34.2129 -43.9941 41.4082 -104.983 49.3994 -158.325
c22.0762 -147.397 26.9727 -296.527 34.5566 -445.167c1.47754 -28.9541 3.05078 -57.9395 4.86523 -86.9248c29.6348 -6.68555 57.2324 -18.918 79.207 -41.79c17.0332 -17.7275 -30.7939 -27.0879 -43.0391 -14.3398c-10.125 10.5322 -21.625 17.8105 -33.9717 22.9424
c7.62891 -109.727 19.4727 -219.243 43.4082 -326.64c30.1377 -135.217 77.3408 -280.183 187.087 -371.979c18.5557 -15.5176 -30.2266 -26.0752 -43.8975 -14.626c-102.806 86.0713 -151.658 216.563 -183.509 343.113
c-31.4365 124.901 -45.5029 252.979 -54.1562 381.249c-9.52637 0.802734 -19.1602 1.19141 -28.7432 1.47754c-43.7461 1.29883 -87.5488 0.948242 -131.288 -0.478516c-93.7695 -3.05664 -187.246 -11.2451 -280.57 -20.5293
c-17.7275 -1.76367 -35.4482 -3.59766 -53.1689 -5.4248c-1.46484 -7.57715 -2.8916 -15.167 -4.27344 -22.7695c97.8828 -88.5039 153.727 -212.863 181.687 -340.648c16.9316 -77.373 24.1396 -158.656 2.55957 -235.883
c-15.333 -54.8887 -51.8516 -109.135 -115.572 -104.295c-56.4492 4.28516 -108.384 59.3711 -134.312 105.944c-32.7744 58.8818 -49.9482 132.039 -59.1943 198.319c-17.9316 128.581 -6.7373 260.016 15.6064 387.865
c-35.3916 -3.45801 -70.7959 -6.75684 -106.251 -9.47559c-64.835 -4.9668 -134.828 -1.1084 -176.549 55.5762c-10.2139 13.875 33.6592 22.6494 42.8281 10.29c28.5146 -38.4287 71.8145 -42.7715 116.547 -40.0078c42.9111 2.64844 85.7715 7.40527 128.543 11.8623
c2.7002 14.3721 5.48242 28.7119 8.40527 42.9688zM561.883 88.5518c-25.6611 86.6318 -66.1572 168.767 -126.172 235.461c-14.4805 -91.4326 -22.4658 -184.095 -19.6709 -276.317c1.98047 -65.4209 5.24023 -133.745 21.7002 -197.364
c8.85742 -34.2383 47.916 -166.239 101.812 -123.48c47.9287 38.0273 53.5449 121.997 52.7744 177.759c-0.859375 62.1484 -12.8301 124.475 -30.4434 183.942zM656.394 984.553c-31.2139 -54.7041 -58.2246 -112.351 -82.3838 -170.468
c-48.5918 -116.91 -86.8105 -237.762 -113.886 -361.453c-2.26074 -10.3281 -4.43848 -20.6943 -6.57812 -31.0801c55.0859 5.7373 110.191 11.3154 165.398 15.8496c87.3643 7.17676 174.957 12.0605 262.646 10.9717c18.8037 -0.235352 38.499 -0.375 58.1562 -1.63574
c-0.439453 7.11914 -0.878906 14.2441 -1.29297 21.3691c-7.60938 131.154 -11.8115 262.607 -25.3232 393.348c-6.59668 63.8799 -20.4268 344.38 -144.882 263.95c-49.3623 -31.9014 -83.4229 -91.0312 -111.854 -140.852z" />
    <glyph glyph-name="A" unicode="&#xc3;" horiz-adv-x="1149" 
d="M347.855 452.628c28.9277 141.037 71.6973 279.787 135.546 409.088c57.8115 117.075 136.445 259.194 268.179 304.487c52.9277 18.2051 114.261 10.1631 150.072 -35.8809c34.2129 -43.9941 41.4082 -104.983 49.3994 -158.325
c22.0762 -147.397 26.9727 -296.527 34.5566 -445.167c1.47754 -28.9541 3.05078 -57.9395 4.86523 -86.9248c29.6348 -6.68555 57.2324 -18.918 79.207 -41.79c17.0332 -17.7275 -30.7939 -27.0879 -43.0391 -14.3398c-10.125 10.5322 -21.625 17.8105 -33.9717 22.9424
c7.62891 -109.727 19.4727 -219.243 43.4082 -326.64c30.1377 -135.217 77.3408 -280.183 187.087 -371.979c18.5557 -15.5176 -30.2266 -26.0752 -43.8975 -14.626c-102.806 86.0713 -151.658 216.563 -183.509 343.113
c-31.4365 124.901 -45.5029 252.979 -54.1562 381.249c-9.52637 0.802734 -19.1602 1.19141 -28.7432 1.47754c-43.7461 1.29883 -87.5488 0.948242 -131.288 -0.478516c-93.7695 -3.05664 -187.246 -11.2451 -280.57 -20.5293
c-17.7275 -1.76367 -35.4482 -3.59766 -53.1689 -5.4248c-1.46484 -7.57715 -2.8916 -15.167 -4.27344 -22.7695c97.8828 -88.5039 153.727 -212.863 181.687 -340.648c16.9316 -77.373 24.1396 -158.656 2.55957 -235.883
c-15.333 -54.8887 -51.8516 -109.135 -115.572 -104.295c-56.4492 4.28516 -108.384 59.3711 -134.312 105.944c-32.7744 58.8818 -49.9482 132.039 -59.1943 198.319c-17.9316 128.581 -6.7373 260.016 15.6064 387.865
c-35.3916 -3.45801 -70.7959 -6.75684 -106.251 -9.47559c-64.835 -4.9668 -134.828 -1.1084 -176.549 55.5762c-10.2139 13.875 33.6592 22.6494 42.8281 10.29c28.5146 -38.4287 71.8145 -42.7715 116.547 -40.0078c42.9111 2.64844 85.7715 7.40527 128.543 11.8623
c2.7002 14.3721 5.48242 28.7119 8.40527 42.9688zM561.883 88.5518c-25.6611 86.6318 -66.1572 168.767 -126.172 235.461c-14.4805 -91.4326 -22.4658 -184.095 -19.6709 -276.317c1.98047 -65.4209 5.24023 -133.745 21.7002 -197.364
c8.85742 -34.2383 47.916 -166.239 101.812 -123.48c47.9287 38.0273 53.5449 121.997 52.7744 177.759c-0.859375 62.1484 -12.8301 124.475 -30.4434 183.942zM656.394 984.553c-31.2139 -54.7041 -58.2246 -112.351 -82.3838 -170.468
c-48.5918 -116.91 -86.8105 -237.762 -113.886 -361.453c-2.26074 -10.3281 -4.43848 -20.6943 -6.57812 -31.0801c55.0859 5.7373 110.191 11.3154 165.398 15.8496c87.3643 7.17676 174.957 12.0605 262.646 10.9717c18.8037 -0.235352 38.499 -0.375 58.1562 -1.63574
c-0.439453 7.11914 -0.878906 14.2441 -1.29297 21.3691c-7.60938 131.154 -11.8115 262.607 -25.3232 393.348c-6.59668 63.8799 -20.4268 344.38 -144.882 263.95c-49.3623 -31.9014 -83.4229 -91.0312 -111.854 -140.852z" />
    <glyph glyph-name="A" unicode="&#xc2;" horiz-adv-x="1149" 
d="M347.855 452.628c28.9277 141.037 71.6973 279.787 135.546 409.088c57.8115 117.075 136.445 259.194 268.179 304.487c52.9277 18.2051 114.261 10.1631 150.072 -35.8809c34.2129 -43.9941 41.4082 -104.983 49.3994 -158.325
c22.0762 -147.397 26.9727 -296.527 34.5566 -445.167c1.47754 -28.9541 3.05078 -57.9395 4.86523 -86.9248c29.6348 -6.68555 57.2324 -18.918 79.207 -41.79c17.0332 -17.7275 -30.7939 -27.0879 -43.0391 -14.3398c-10.125 10.5322 -21.625 17.8105 -33.9717 22.9424
c7.62891 -109.727 19.4727 -219.243 43.4082 -326.64c30.1377 -135.217 77.3408 -280.183 187.087 -371.979c18.5557 -15.5176 -30.2266 -26.0752 -43.8975 -14.626c-102.806 86.0713 -151.658 216.563 -183.509 343.113
c-31.4365 124.901 -45.5029 252.979 -54.1562 381.249c-9.52637 0.802734 -19.1602 1.19141 -28.7432 1.47754c-43.7461 1.29883 -87.5488 0.948242 -131.288 -0.478516c-93.7695 -3.05664 -187.246 -11.2451 -280.57 -20.5293
c-17.7275 -1.76367 -35.4482 -3.59766 -53.1689 -5.4248c-1.46484 -7.57715 -2.8916 -15.167 -4.27344 -22.7695c97.8828 -88.5039 153.727 -212.863 181.687 -340.648c16.9316 -77.373 24.1396 -158.656 2.55957 -235.883
c-15.333 -54.8887 -51.8516 -109.135 -115.572 -104.295c-56.4492 4.28516 -108.384 59.3711 -134.312 105.944c-32.7744 58.8818 -49.9482 132.039 -59.1943 198.319c-17.9316 128.581 -6.7373 260.016 15.6064 387.865
c-35.3916 -3.45801 -70.7959 -6.75684 -106.251 -9.47559c-64.835 -4.9668 -134.828 -1.1084 -176.549 55.5762c-10.2139 13.875 33.6592 22.6494 42.8281 10.29c28.5146 -38.4287 71.8145 -42.7715 116.547 -40.0078c42.9111 2.64844 85.7715 7.40527 128.543 11.8623
c2.7002 14.3721 5.48242 28.7119 8.40527 42.9688zM561.883 88.5518c-25.6611 86.6318 -66.1572 168.767 -126.172 235.461c-14.4805 -91.4326 -22.4658 -184.095 -19.6709 -276.317c1.98047 -65.4209 5.24023 -133.745 21.7002 -197.364
c8.85742 -34.2383 47.916 -166.239 101.812 -123.48c47.9287 38.0273 53.5449 121.997 52.7744 177.759c-0.859375 62.1484 -12.8301 124.475 -30.4434 183.942zM656.394 984.553c-31.2139 -54.7041 -58.2246 -112.351 -82.3838 -170.468
c-48.5918 -116.91 -86.8105 -237.762 -113.886 -361.453c-2.26074 -10.3281 -4.43848 -20.6943 -6.57812 -31.0801c55.0859 5.7373 110.191 11.3154 165.398 15.8496c87.3643 7.17676 174.957 12.0605 262.646 10.9717c18.8037 -0.235352 38.499 -0.375 58.1562 -1.63574
c-0.439453 7.11914 -0.878906 14.2441 -1.29297 21.3691c-7.60938 131.154 -11.8115 262.607 -25.3232 393.348c-6.59668 63.8799 -20.4268 344.38 -144.882 263.95c-49.3623 -31.9014 -83.4229 -91.0312 -111.854 -140.852z" />
    <glyph glyph-name="A" unicode="&#xc1;" horiz-adv-x="1149" 
d="M347.855 452.628c28.9277 141.037 71.6973 279.787 135.546 409.088c57.8115 117.075 136.445 259.194 268.179 304.487c52.9277 18.2051 114.261 10.1631 150.072 -35.8809c34.2129 -43.9941 41.4082 -104.983 49.3994 -158.325
c22.0762 -147.397 26.9727 -296.527 34.5566 -445.167c1.47754 -28.9541 3.05078 -57.9395 4.86523 -86.9248c29.6348 -6.68555 57.2324 -18.918 79.207 -41.79c17.0332 -17.7275 -30.7939 -27.0879 -43.0391 -14.3398c-10.125 10.5322 -21.625 17.8105 -33.9717 22.9424
c7.62891 -109.727 19.4727 -219.243 43.4082 -326.64c30.1377 -135.217 77.3408 -280.183 187.087 -371.979c18.5557 -15.5176 -30.2266 -26.0752 -43.8975 -14.626c-102.806 86.0713 -151.658 216.563 -183.509 343.113
c-31.4365 124.901 -45.5029 252.979 -54.1562 381.249c-9.52637 0.802734 -19.1602 1.19141 -28.7432 1.47754c-43.7461 1.29883 -87.5488 0.948242 -131.288 -0.478516c-93.7695 -3.05664 -187.246 -11.2451 -280.57 -20.5293
c-17.7275 -1.76367 -35.4482 -3.59766 -53.1689 -5.4248c-1.46484 -7.57715 -2.8916 -15.167 -4.27344 -22.7695c97.8828 -88.5039 153.727 -212.863 181.687 -340.648c16.9316 -77.373 24.1396 -158.656 2.55957 -235.883
c-15.333 -54.8887 -51.8516 -109.135 -115.572 -104.295c-56.4492 4.28516 -108.384 59.3711 -134.312 105.944c-32.7744 58.8818 -49.9482 132.039 -59.1943 198.319c-17.9316 128.581 -6.7373 260.016 15.6064 387.865
c-35.3916 -3.45801 -70.7959 -6.75684 -106.251 -9.47559c-64.835 -4.9668 -134.828 -1.1084 -176.549 55.5762c-10.2139 13.875 33.6592 22.6494 42.8281 10.29c28.5146 -38.4287 71.8145 -42.7715 116.547 -40.0078c42.9111 2.64844 85.7715 7.40527 128.543 11.8623
c2.7002 14.3721 5.48242 28.7119 8.40527 42.9688zM561.883 88.5518c-25.6611 86.6318 -66.1572 168.767 -126.172 235.461c-14.4805 -91.4326 -22.4658 -184.095 -19.6709 -276.317c1.98047 -65.4209 5.24023 -133.745 21.7002 -197.364
c8.85742 -34.2383 47.916 -166.239 101.812 -123.48c47.9287 38.0273 53.5449 121.997 52.7744 177.759c-0.859375 62.1484 -12.8301 124.475 -30.4434 183.942zM656.394 984.553c-31.2139 -54.7041 -58.2246 -112.351 -82.3838 -170.468
c-48.5918 -116.91 -86.8105 -237.762 -113.886 -361.453c-2.26074 -10.3281 -4.43848 -20.6943 -6.57812 -31.0801c55.0859 5.7373 110.191 11.3154 165.398 15.8496c87.3643 7.17676 174.957 12.0605 262.646 10.9717c18.8037 -0.235352 38.499 -0.375 58.1562 -1.63574
c-0.439453 7.11914 -0.878906 14.2441 -1.29297 21.3691c-7.60938 131.154 -11.8115 262.607 -25.3232 393.348c-6.59668 63.8799 -20.4268 344.38 -144.882 263.95c-49.3623 -31.9014 -83.4229 -91.0312 -111.854 -140.852z" />
    <glyph glyph-name="B" unicode="B" horiz-adv-x="1215" 
d="M928.553 903.418c-75.2207 -53.1318 -163.47 -89.625 -249.452 -121.412c-12.9072 -4.77539 -25.8652 -9.3916 -38.8486 -13.9258c121.736 -8.37305 243.046 -43.6943 339.375 -120.431c202.045 -160.948 208.05 -468.722 75.6221 -674.619
c-134.318 -208.839 -399.142 -306.098 -639.01 -247.063c-111.07 27.3359 -214.557 96.4883 -239.11 214.646c-22.3057 107.352 19.9121 217.926 87.2373 301.552c-10.6406 69.5156 -18.4414 139.489 -24.6367 209.521c-5.97949 67.5801 -9.19531 135.472 -10.749 203.331
c-39.5557 -9.02246 -79.1562 -17.835 -118.725 -26.6289c-37.4795 -8.3291 -91.1016 27.9854 -37.8877 51.2275c49.54 21.6377 102.309 34.959 155.529 45.7139c-0.662109 78.8252 0.662109 160.433 17.3262 237.149c8.10645 37.3018 95.7188 40.708 99.5967 0
c6.7627 -70.9609 4.02441 -143.438 2.89062 -215.124c18.3389 3.12695 36.7285 5.99902 55.1562 8.64746c29.1641 7.60254 58.2129 15.5938 87.1475 23.9736c48.2861 93.3496 108.938 180.727 184.858 250.306c56.4619 51.7432 125.392 95.0176 201.077 111.185
c54.8887 11.7227 139.775 6.3418 160.858 -57.2646c24.375 -73.54 -56.2578 -144.055 -108.256 -180.783zM411.367 699.259c-21.249 -5.55859 -42.5479 -10.959 -63.8799 -16.2246c0.47168 -75.1377 3.40039 -150.167 7.55859 -225.203
c1.05078 -18.8867 2.31152 -37.7539 3.66797 -56.6084c13.0342 64.5801 30.0547 128.364 51.4883 190.62c13.0156 37.8047 27.7441 75.8574 44.2168 113.465c-14.3721 -1.82715 -28.7246 -3.8457 -43.0518 -6.04883zM1032.76 132.596
c55.9268 205.197 -18.0293 443.562 -219.807 535.733c-94.623 43.2168 -200.95 51.1318 -303.622 42.835c-33.5889 -72.8389 -60.4795 -148.843 -81.0273 -225.961c-11.0928 -41.6123 -20.1475 -83.709 -27.54 -126.092c55.0547 32.3535 116.069 54.6787 178.86 65.1221
c102.283 17.0078 255.456 1.88477 274.26 -125.716c2.75684 -18.708 -47.7959 -20.2617 -50.8398 0c-22.3818 148.907 -232.762 104.767 -325.296 60.875c-29.9531 -14.2061 -58.5693 -31.666 -85.1602 -51.832c-2.58496 -18.2686 -4.90234 -36.582 -6.91406 -54.9268
c-2.58496 -23.5605 -4.66113 -47.1592 -6.30371 -70.7891c4.03027 -34.3154 8.62109 -68.5605 12.3076 -102.914c4.21582 -39.2754 14.3975 -82.0469 5.2793 -121.011c-5.62305 -24.0254 -48.8086 -22.332 -60.6846 -4.68066
c-25.1963 37.4482 -32.7549 86.9502 -42.8662 130.352c-7.1377 30.6602 -12.8047 61.7021 -18.1787 92.751c-10.1943 -17.5742 -19.1279 -35.8936 -26.5273 -54.9268c-38.9951 -100.31 -33.9326 -220.938 50.3809 -296.661
c78.0098 -70.0635 195.607 -88.7461 296.7 -77.0938c210.183 24.2227 381.975 183.133 436.979 384.936zM554.345 799.418c30.4307 9.61523 60.71 19.7354 90.7715 30.5918c76.0801 27.4824 153.81 55.9326 224.223 96.1758c34.8115 19.8984 70.7246 43.7129 96.1572 75.207
c23.9873 29.7109 39.1738 79.0156 0.790039 105.181c-53.6279 36.5498 -141.609 -13.251 -186.928 -42.9619c-62.7598 -41.1416 -114.892 -98.457 -158.363 -159.134c-24.1523 -33.7168 -46.3057 -68.8594 -66.6504 -105.06z" />
    <glyph glyph-name="C" unicode="C" horiz-adv-x="912" 
d="M182.472 904.8c68.2422 111.287 179.682 220.356 318.954 221.847c132.39 1.40137 192.914 -121.672 204.777 -237.862c12.6211 -123.608 -30.9521 -255.488 -119.838 -343.343c-41.2686 -40.791 -95.3359 -68.9609 -154.688 -63.2109
c-58.1426 5.62891 -99.583 43.0322 -113.312 99.5957c-25.7383 106.072 34.124 278.705 165.928 265.072c33.2705 -3.44531 11.1689 -29.9346 -13.251 -27.4004c-35.2197 3.66113 -64.4531 -38.2891 -78.5576 -64.9697
c-16.2441 -30.7109 -26.2354 -64.5039 -29.292 -99.1055c-5.14551 -58.2959 11.3535 -148.061 87.0391 -145.545c62.8291 2.08887 114.802 66.0518 145.335 115.006c29.8389 47.8271 49.4639 102.372 57.334 158.165c13.0088 92.2227 0.248047 222.612 -78.252 285.2
c-97.0488 77.3799 -212.889 -58.1357 -261.085 -131.752c-124.207 -189.704 -166.928 -436.342 -146.431 -659.177c10.2266 -111.179 34.4746 -224.396 87.5488 -323.533c24.7002 -46.127 54.125 -90.8086 93.4893 -125.83
c51.2656 -45.6113 113.42 -46.2354 172.894 -14.4287c99.1182 53.0039 165.08 170.06 210.736 268.631c48.7441 105.231 77.125 218.843 85.1416 334.46c1.24805 18.0332 46.3438 17.377 45.3691 0c-9.08008 -162.088 -59.6641 -320.292 -148.015 -456.712
c-78.0352 -120.488 -195.015 -232.501 -349.933 -187.825c-129.811 37.4355 -211.635 169.061 -256.584 288.18c-52.1699 138.241 -66.7646 291.739 -52.7627 438.182c13.4932 141.119 52.9531 284.85 127.454 406.356z" />
    <glyph glyph-name="D" unicode="D" horiz-adv-x="1227" 
d="M337.3 260.389c10.8184 144.011 31.8213 287.375 63.7871 427.979c40.4473 177.898 103.124 367.425 230.636 503.208c55.2842 58.875 130.098 104.454 213.584 96.7686c83.5684 -7.68555 144.628 -64.5928 191.277 -129.849
c116.572 -163.088 145.494 -387.362 139.91 -583.109c-10.2012 -357.542 -195.767 -777.003 -572.533 -871.454c-166.59 -41.7656 -366.826 -19.2373 -489.722 112.375c-60.4033 64.6885 -82.9258 149.161 -47.0947 232.093c30.4375 70.4512 91.3379 120.201 156.67 158.127
c-8.97168 81.8877 -15.2695 164.202 -20.625 246.249c-14.8623 227.617 -21.6816 455.744 -8.7041 683.597c2.50293 43.8789 111.109 43.5537 111.536 -0.000976562c2.20996 -225.796 3.3623 -451.771 16.0215 -677.28c3.73828 -66.5605 8.08691 -133.083 13.0283 -199.562
c0.745117 0.280273 1.4834 0.585938 2.22852 0.859375zM379.787 -100.684c79.6338 29.8828 154.967 66.5361 222.839 119.903c36.3086 28.5459 71.5469 63.9941 80.3662 111.248c9.84473 52.7432 -19.7266 94.5654 -67.6426 114.923
c-72.998 31.0166 -155.771 21.7451 -230.259 -2.80859c-8.1377 -114.19 -9.8252 -228.808 -5.30371 -343.266zM536.225 955.529c-71.3496 -161.419 -106.029 -338.545 -130.182 -512.502c-7.68555 -55.3281 -13.7666 -110.841 -18.3574 -166.469
c45.0254 12.1875 91.4453 18.6445 138.101 16.8486c72.6924 -2.79492 179.376 -25.7373 204.789 -105.683c26.6484 -83.8359 -41.7334 -153.301 -103.251 -198.308c-74.0742 -54.1953 -158.299 -101.087 -246.032 -129.468
c1.52832 -13.6396 2.55371 -27.292 2.74512 -40.9316c0.388672 -27.7051 -54.6025 -20.7197 -65.0771 -5.01758c-57.2637 85.8418 -70.6484 203.986 -84.3516 304.193c-2.17773 15.9189 -4.19629 31.8701 -6.13184 47.8398
c-45.8154 -31.4434 -85.5811 -70.9229 -107.46 -120.985c-35.3789 -80.9385 -5.59766 -160.578 58.2637 -216.333c58.1553 -50.7754 131.167 -74.7051 206.675 -83.7666c148.531 -17.8291 292.09 43.9619 400.148 143.297c246.211 226.337 321.381 599.244 292.229 920.064
c-7.89551 86.9307 -21.8662 176.319 -52.0488 258.525c-27.6289 75.2656 -75.042 155.205 -154.121 184.923c-82.2383 30.9082 -159.472 -30.5391 -210.375 -89.4209c-52.7051 -60.9639 -93.1016 -133.37 -125.563 -206.808z" />
    <glyph glyph-name="E" unicode="E" horiz-adv-x="1099" 
d="M160.521 325.173c-148.665 136.261 -134.731 364.087 -32.8936 522.8c102.468 159.706 290.472 279.456 479.246 302.487c85.4795 10.4238 178.511 2.19043 253.095 -44.2041c75.1631 -46.7578 115.853 -125.188 135.159 -209.412
c23.5918 -102.933 20.3701 -211.762 16.4033 -316.579c-4.46973 -118.304 -15.6191 -237.079 -33.4736 -354.097c-3.80176 -24.9033 -65.9111 -23.8525 -63.2812 0.000976562c23.5791 213.787 73.8965 436.667 32.0039 651.549
c-15.4541 79.252 -51.2148 159.058 -121.316 204.128c-71.2852 45.8281 -161.024 47.8975 -241.479 29.7246c-164.902 -37.251 -310.562 -154.39 -388.425 -303.539c-76.6729 -146.863 -74.6992 -348.157 64.0068 -458.999
c66.4521 -53.0996 151.339 -73.0498 234.939 -72.3809c18.2305 0.146484 36.7344 0.974609 55.3281 2.4834c78.4941 27.9668 159.172 48.8721 241.678 65.332c26.4893 5.28516 94.7695 -20.1914 49.5088 -48.4766c-85.0527 -53.1504 -194.665 -76.7998 -297.853 -81.8496
c-30.4375 -12.582 -60.3145 -26.3613 -89.4785 -41.2109c-94.0498 -47.8721 -192.812 -106.754 -264.11 -185.814c-30.2529 -33.5508 -87.8867 -106.467 -34.8252 -143.456c49.1514 -34.2578 117.813 -30.0615 174.804 -29.2148
c236.876 3.51465 470.638 67.3506 677.987 181.42c15.2568 8.38574 58.6709 -5.96094 34.1934 -19.4922c-132.765 -73.3867 -275.508 -126.665 -423.899 -158.185c-127.779 -27.1455 -266.078 -42.9561 -396.538 -28.9092
c-52.1318 5.61035 -121.704 13.0352 -154.949 59.7861c-36.3086 51.0684 9.36621 114.955 42.3564 155.001c76.4688 92.8086 191.328 161.764 298.712 214.749c-90.459 11.9648 -178.88 44.0127 -246.898 106.358z" />
    <glyph glyph-name="E" unicode="&#xcb;" horiz-adv-x="1099" 
d="M160.521 325.173c-148.665 136.261 -134.731 364.087 -32.8936 522.8c102.468 159.706 290.472 279.456 479.246 302.487c85.4795 10.4238 178.511 2.19043 253.095 -44.2041c75.1631 -46.7578 115.853 -125.188 135.159 -209.412
c23.5918 -102.933 20.3701 -211.762 16.4033 -316.579c-4.46973 -118.304 -15.6191 -237.079 -33.4736 -354.097c-3.80176 -24.9033 -65.9111 -23.8525 -63.2812 0.000976562c23.5791 213.787 73.8965 436.667 32.0039 651.549
c-15.4541 79.252 -51.2148 159.058 -121.316 204.128c-71.2852 45.8281 -161.024 47.8975 -241.479 29.7246c-164.902 -37.251 -310.562 -154.39 -388.425 -303.539c-76.6729 -146.863 -74.6992 -348.157 64.0068 -458.999
c66.4521 -53.0996 151.339 -73.0498 234.939 -72.3809c18.2305 0.146484 36.7344 0.974609 55.3281 2.4834c78.4941 27.9668 159.172 48.8721 241.678 65.332c26.4893 5.28516 94.7695 -20.1914 49.5088 -48.4766c-85.0527 -53.1504 -194.665 -76.7998 -297.853 -81.8496
c-30.4375 -12.582 -60.3145 -26.3613 -89.4785 -41.2109c-94.0498 -47.8721 -192.812 -106.754 -264.11 -185.814c-30.2529 -33.5508 -87.8867 -106.467 -34.8252 -143.456c49.1514 -34.2578 117.813 -30.0615 174.804 -29.2148
c236.876 3.51465 470.638 67.3506 677.987 181.42c15.2568 8.38574 58.6709 -5.96094 34.1934 -19.4922c-132.765 -73.3867 -275.508 -126.665 -423.899 -158.185c-127.779 -27.1455 -266.078 -42.9561 -396.538 -28.9092
c-52.1318 5.61035 -121.704 13.0352 -154.949 59.7861c-36.3086 51.0684 9.36621 114.955 42.3564 155.001c76.4688 92.8086 191.328 161.764 298.712 214.749c-90.459 11.9648 -178.88 44.0127 -246.898 106.358z" />
    <glyph glyph-name="E" unicode="&#xca;" horiz-adv-x="1099" 
d="M160.521 325.173c-148.665 136.261 -134.731 364.087 -32.8936 522.8c102.468 159.706 290.472 279.456 479.246 302.487c85.4795 10.4238 178.511 2.19043 253.095 -44.2041c75.1631 -46.7578 115.853 -125.188 135.159 -209.412
c23.5918 -102.933 20.3701 -211.762 16.4033 -316.579c-4.46973 -118.304 -15.6191 -237.079 -33.4736 -354.097c-3.80176 -24.9033 -65.9111 -23.8525 -63.2812 0.000976562c23.5791 213.787 73.8965 436.667 32.0039 651.549
c-15.4541 79.252 -51.2148 159.058 -121.316 204.128c-71.2852 45.8281 -161.024 47.8975 -241.479 29.7246c-164.902 -37.251 -310.562 -154.39 -388.425 -303.539c-76.6729 -146.863 -74.6992 -348.157 64.0068 -458.999
c66.4521 -53.0996 151.339 -73.0498 234.939 -72.3809c18.2305 0.146484 36.7344 0.974609 55.3281 2.4834c78.4941 27.9668 159.172 48.8721 241.678 65.332c26.4893 5.28516 94.7695 -20.1914 49.5088 -48.4766c-85.0527 -53.1504 -194.665 -76.7998 -297.853 -81.8496
c-30.4375 -12.582 -60.3145 -26.3613 -89.4785 -41.2109c-94.0498 -47.8721 -192.812 -106.754 -264.11 -185.814c-30.2529 -33.5508 -87.8867 -106.467 -34.8252 -143.456c49.1514 -34.2578 117.813 -30.0615 174.804 -29.2148
c236.876 3.51465 470.638 67.3506 677.987 181.42c15.2568 8.38574 58.6709 -5.96094 34.1934 -19.4922c-132.765 -73.3867 -275.508 -126.665 -423.899 -158.185c-127.779 -27.1455 -266.078 -42.9561 -396.538 -28.9092
c-52.1318 5.61035 -121.704 13.0352 -154.949 59.7861c-36.3086 51.0684 9.36621 114.955 42.3564 155.001c76.4688 92.8086 191.328 161.764 298.712 214.749c-90.459 11.9648 -178.88 44.0127 -246.898 106.358z" />
    <glyph glyph-name="E" unicode="&#xc9;" horiz-adv-x="1099" 
d="M160.521 325.173c-148.665 136.261 -134.731 364.087 -32.8936 522.8c102.468 159.706 290.472 279.456 479.246 302.487c85.4795 10.4238 178.511 2.19043 253.095 -44.2041c75.1631 -46.7578 115.853 -125.188 135.159 -209.412
c23.5918 -102.933 20.3701 -211.762 16.4033 -316.579c-4.46973 -118.304 -15.6191 -237.079 -33.4736 -354.097c-3.80176 -24.9033 -65.9111 -23.8525 -63.2812 0.000976562c23.5791 213.787 73.8965 436.667 32.0039 651.549
c-15.4541 79.252 -51.2148 159.058 -121.316 204.128c-71.2852 45.8281 -161.024 47.8975 -241.479 29.7246c-164.902 -37.251 -310.562 -154.39 -388.425 -303.539c-76.6729 -146.863 -74.6992 -348.157 64.0068 -458.999
c66.4521 -53.0996 151.339 -73.0498 234.939 -72.3809c18.2305 0.146484 36.7344 0.974609 55.3281 2.4834c78.4941 27.9668 159.172 48.8721 241.678 65.332c26.4893 5.28516 94.7695 -20.1914 49.5088 -48.4766c-85.0527 -53.1504 -194.665 -76.7998 -297.853 -81.8496
c-30.4375 -12.582 -60.3145 -26.3613 -89.4785 -41.2109c-94.0498 -47.8721 -192.812 -106.754 -264.11 -185.814c-30.2529 -33.5508 -87.8867 -106.467 -34.8252 -143.456c49.1514 -34.2578 117.813 -30.0615 174.804 -29.2148
c236.876 3.51465 470.638 67.3506 677.987 181.42c15.2568 8.38574 58.6709 -5.96094 34.1934 -19.4922c-132.765 -73.3867 -275.508 -126.665 -423.899 -158.185c-127.779 -27.1455 -266.078 -42.9561 -396.538 -28.9092
c-52.1318 5.61035 -121.704 13.0352 -154.949 59.7861c-36.3086 51.0684 9.36621 114.955 42.3564 155.001c76.4688 92.8086 191.328 161.764 298.712 214.749c-90.459 11.9648 -178.88 44.0127 -246.898 106.358z" />
    <glyph glyph-name="F" unicode="F" horiz-adv-x="964" 
d="M522.116 1070.9c5.97949 39.123 88.3311 44.4307 112.789 18.8643c105.995 37.9834 216.308 63.9629 329.34 65.4336c115.076 1.49609 286.499 -37.9453 293.007 -181.949c6.26562 -138.706 -163.801 -188.291 -261.436 -115.731
c-10.3535 7.69238 2.42676 17.498 9.29785 20.2109c11.583 4.57227 25.7441 1.91699 35.4609 -5.30371c63.3896 -47.1016 142.642 -5.90332 161.089 65.6943c16.1865 62.8164 -23.0127 124.43 -76.4307 155.307c-60.5566 35.0088 -136.02 35.3525 -203.828 30.3604
c-71.9541 -5.29102 -142.826 -21.1211 -211.508 -42.8477c-23.3311 -7.37988 -46.541 -15.4727 -69.6494 -23.9736c-20.4209 -201.014 -30.8379 -402.613 -27.1953 -604.664c0.585938 -32.2969 1.64941 -64.5684 3.05664 -96.8203
c10.8506 1.85938 21.7139 3.91016 32.5703 6.19629c2.85938 7.90234 5.73145 15.792 8.81934 23.5859c26.4385 66.7842 62.8037 131.288 113.331 182.904c44.5674 45.5352 112.548 96.6543 180.07 89.8604c26.8018 -2.69336 56.2773 -15.7656 67.1211 -42.21
c11.3662 -27.7246 -3.01172 -58.4043 -17.5615 -81.7676c-31.9209 -51.2656 -78.5381 -91.5596 -130.198 -122.073c-54.6729 -32.2969 -115.771 -56.1758 -179.192 -72.3301c-8.29102 -24.8525 -15.4482 -49.9727 -21.6436 -74.959
c-16.1992 -65.3379 -25.502 -132.479 -28.3545 -199.721c-0.171875 -4.05664 -0.34375 -8.15723 -0.509766 -12.2705c2.10156 -16.3389 4.2666 -32.6719 6.50195 -49.0049c3.4834 -25.4385 7.79395 -50.7051 11.6777 -76.0801
c2.03809 -13.3145 5.40039 -27.1572 6.36816 -40.5547c0.458008 -6.35449 -2.61133 -14.5498 2.17676 -20.0771c15.2373 -17.5938 -19.0459 -23.3438 -30.1133 -22.3252c-48.502 4.47656 -62.1543 53.4688 -74.4307 93.2412
c-15.0342 48.7061 -25.9805 98.4248 -34.8252 148.589c-13.2764 75.2969 -22.0449 151.288 -28.3105 227.483c-16.2188 -0.337891 -32.3545 -0.274414 -48.293 0.304688c-125.69 4.57227 -279.647 38.0469 -360.58 143.902
c-87.4717 114.407 -19.3379 253.916 66.0078 346.699c98.7686 107.377 229.178 179.675 361.287 237.977c1.33691 9.35449 2.66113 18.709 4.08789 28.0498zM816.783 557.321c-50.916 -50.9023 -86.7383 -114.554 -112.833 -181.904
c65.3506 18.874 128.027 47.0127 180.363 88.3066c34.8623 27.5078 101.289 87.083 90.9795 137.305c-15.9512 77.7236 -131.377 -16.5811 -158.51 -43.707zM637.18 327.856c-6.52637 -1.19727 -13.0664 -2.31934 -19.6123 -3.36328
c0.949219 -18.4912 2.00586 -36.9766 3.18359 -55.4551c4.8584 19.791 10.3027 39.4287 16.4287 58.8184zM492.934 408.935c-11.6084 198.18 -5.75098 397.677 19.7324 594.563c-46.3623 -21.9238 -91.6104 -46.0439 -134.98 -72.5781
c-96.1826 -58.8438 -193.066 -136.809 -245.428 -238.958c-26.209 -51.1318 -40.0645 -110.81 -22.0762 -166.946c15.7471 -49.1387 53.9785 -87.9688 97.0234 -114.668c84.8164 -52.6025 189.812 -70.126 290.115 -67.21
c-1.61719 21.9238 -3.10059 43.8604 -4.38672 65.7969z" />
    <glyph glyph-name="G" unicode="G" horiz-adv-x="1079" 
d="M54.7266 313.565c-18.835 125.022 21.6406 263.559 68.2139 378.711c88.1602 217.971 276.05 466.213 524.057 504.113c102.939 15.7344 221.027 -18.3516 224.771 -139.936c3.24707 -105.289 -58.0664 -215.5 -137.324 -281.793
c-65.0518 -54.4053 -200.969 -116.037 -265.243 -26.8008c-65.332 90.7002 23.7578 205.776 113.841 230.725c9.00977 2.49609 27.9346 4.18945 34.4424 -5.14551c6.08789 -8.72363 1.02539 -16.8486 -9.0293 -19.6309
c-53.1123 -14.6777 -97.291 -58.4619 -107.568 -113.669c-10.5449 -56.6143 19.625 -117.157 84.6895 -105.632c101.245 17.9375 177.638 117.636 212.494 207.725c29.8262 77.0869 38.0273 217.869 -79.3916 217.837
c-43.5801 -0.00683594 -87.4404 -22.1221 -124.748 -42.6768c-41.9883 -23.1338 -79.7803 -51.5146 -115.063 -83.8809c-146.596 -134.465 -249.98 -319.705 -299.005 -511.677c-25.1143 -98.335 -43.0459 -212.78 5.65332 -306.85
c20.9492 -40.4658 55.5322 -75.7998 100.749 -87.332c52.5713 -13.4102 111.981 0.356445 160.286 22.3125c193.646 88.0068 297.043 288.243 389.074 468.237c1.62988 3.19629 4.83301 5.50781 8.7998 7.07422c0.126953 0.0830078 0.228516 0.15918 0.355469 0.242188
c8.83789 5.80078 26.4951 6.16406 35.3652 0c14.3203 -9.94629 18.752 -27.833 25.0244 -43.7012c9.34082 -23.6367 15.1738 -49.0566 21.541 -73.6357c11.8311 -45.6816 21.9619 -91.541 31.8633 -137.688c20.4404 -95.2275 43.2236 -196.065 39.085 -294
c-3.0752 -72.7441 -42.0264 -126.487 -118.361 -131.658c-76.3545 -5.1709 -153.282 27.0684 -225.656 47.3301c-8.15723 2.28613 -16.333 4.39355 -24.5088 6.37402c-15.4609 -19.2744 -30.667 -38.7598 -45.5859 -58.4736
c-56.2578 -74.3232 -102.888 -159.083 -168.188 -226.058c-46.7764 -47.9678 -117.075 -97.0811 -187.743 -76.0293c-59.9385 17.8486 -91.8916 80.5381 -82.4551 140.426c22.5156 142.89 183.858 242.174 315.7 262.684c49.4131 7.68555 99.4502 6.16992 148.952 -0.363281
c40.167 49.999 81.9453 98.8193 126.372 146.022c12.627 13.417 61.6709 3.54688 44.332 -14.7666c-42.5869 -44.9805 -83.709 -91.3047 -123.239 -138.96c18.543 -3.54004 36.958 -7.57715 55.1689 -11.9648c42.7646 -10.2969 89.6494 -30.2783 133.942 -31.291
c36.4609 -0.833984 43.2676 39.3203 44.4199 68.6816c3.60449 91.7764 -13.2568 184.241 -27.3232 274.554c-7.74316 49.7188 -14.7158 99.8379 -18.874 149.971c-1.31152 15.7979 -2.61035 31.5703 -3.70605 47.3682
c-53.8447 -102.596 -113.376 -202.937 -195.971 -284.933c-91.2861 -90.624 -223.401 -168.653 -356.357 -159.879c-127.226 8.39844 -215.373 105.377 -233.852 228.036zM434.1 -194.869c48.8584 68.8408 98.0029 136.649 149.556 202.58
c-56.2578 8.87598 -112.745 7.97168 -168.742 -10.7998c-70.4893 -23.6367 -133.796 -69.0762 -177.611 -129.275c-38.4092 -52.7754 -75.5645 -163.661 5.40039 -200.988c41.708 -19.2305 94.502 27.6543 122.118 54.5957c26.0244 25.3945 48.2725 54.291 69.2793 83.8877z
" />
    <glyph glyph-name="H" unicode="H" horiz-adv-x="1242" 
d="M323.383 463.688c2.03125 -53.5449 4.19434 -107.155 7.20605 -160.714c180.611 25.2227 364.712 30.501 543.107 69.8271c15.4287 3.40039 30.9717 7.06152 46.5088 11.0283c-5.58398 49.1201 -10.0664 98.3486 -12.8809 147.679
c-7.62891 133.656 -3.95508 267.249 17.918 399.498c19.7266 119.291 49.3174 253.826 137.089 343.094c34.8496 35.4424 85.3955 60.3975 134.999 41.4092c47.623 -18.2305 61.7461 -71.6934 74.252 -115.897c34.8057 -123.035 47.5342 -258.386 42.4463 -385.974
c-4.68066 -117.298 -35.9717 -238.767 -118.948 -325.838c-44.5225 -46.7197 -100.551 -77.9844 -160.355 -100.844c0.81543 -7.6416 1.64941 -15.2764 2.50879 -22.8984c13.792 -122.558 35.1104 -243.771 58.6641 -364.77
c11.5889 -59.5244 23.9736 -118.839 36.8682 -178.096c13.1299 -60.3525 30.4375 -120.221 32.8955 -182.006c1.05078 -26.3496 -54.5264 -21.5166 -64.1035 -4.94824c-39.0654 67.5928 -59.4863 145.398 -80.1426 220.441
c-20.2109 73.4316 -37.7598 147.589 -52.4814 222.307c-18.0137 91.4268 -33.6719 183.586 -45.1719 276.196c-10.252 -2.53418 -20.4844 -4.99805 -30.6475 -7.3418c-184.4 -42.4844 -373.531 -58.4482 -559.606 -90.4395
c1.96777 -29.2588 4.22852 -58.499 6.98535 -87.6885c4.59082 -48.5527 9.32227 -97.1055 16.3076 -145.385c6.75586 -46.7129 19.7393 -96.0879 12.2959 -143.139c-3.89746 -24.6494 -47.4648 -19.8359 -58.7295 -4.52832
c-30.2021 41.0586 -41.4219 92.5283 -52.3301 141.648c-10.6719 48.0498 -19.873 96.5264 -26.4385 145.315c-3.24121 24.0947 -6.17676 48.2344 -8.84473 72.3994c-37.9131 -8.2334 -75.6348 -17.4668 -113.089 -28.1387
c-15.8428 -4.50781 -42.5996 -5.89551 -54.8574 8.20215c-11.8242 13.6016 0.15332 26.5791 14.3848 31.2725c48.9229 16.123 98.4756 28.623 148.455 38.6777c-5.49512 57.6846 -9.60254 115.509 -12.6338 173.365c-10.6465 203.299 -11.7158 406.93 3.24805 610.031
c3.3623 45.5732 116.713 44.7705 115.516 0c-5.38672 -201.16 -8.03613 -402.606 -0.394531 -603.747zM1062.08 1090.82c-52.3418 -218.11 -52.2734 -447.319 -30.7695 -670.015c52.7178 23.0508 100.921 54.5068 138.152 100.373
c74.75 92.0762 96.0879 213.634 96.209 329.206c0.121094 121.997 -9.76758 254.412 -50.1318 370.284c-7.18262 20.625 -16.2119 46.9932 -33.9326 61.1035c-25.8906 20.625 -51.0176 -15.7471 -63.9121 -36.0723c-29.8447 -47.0508 -42.7715 -101.366 -55.6152 -154.88z
" />
    <glyph glyph-name="I" unicode="I" horiz-adv-x="855" 
d="M743.242 1003.5c30.1377 -256.373 -0.876953 -516.449 -21.3867 -772.402c-10.2324 -127.665 -17.4473 -255.629 -14.5693 -383.752c1.40723 -62.8037 3.80762 -125.977 11.7734 -188.348c5.4248 -42.4971 18.3066 -106.135 65.2363 -122.761
c42.6885 -15.123 9.4873 -48.8076 -22.249 -46.8145c-57.4229 3.61035 -105.601 28.2275 -133.739 79.9521c-27.623 50.7881 -29.75 114.031 -34.0986 170.365c-10.1631 131.625 -5.1709 263.811 4.47559 395.321c17.0146 232.005 51.9727 462.749 58.5439 695.512
c3.16504 112.045 3.06348 225.401 -10.7539 336.81c-12.0732 97.3545 -54.6025 202.089 -168.762 204.133c-102.806 1.84668 -192.92 -72.4824 -252.107 -149.989c-64.9502 -85.04 -112.376 -190.316 -123.717 -297.19c-10.876 -102.468 14.0342 -212.144 84.333 -290.064
c68.8916 -76.3672 177.479 -110.021 273.859 -67.8926c18.5234 8.09375 53.3418 -11.1172 24.4072 -23.8018c-101.227 -44.376 -223.645 -22.2422 -308.341 46.9932c-91.2676 74.6035 -132.021 197.607 -125.468 312.83c11.3027 198.689 149.665 440.232 354.785 489.416
c91.8594 22.0195 190.889 0.694336 247.103 -79.6143c62.3262 -89.0381 78.2705 -203.21 90.6748 -308.702z" />
    <glyph glyph-name="I" unicode="&#xcf;" horiz-adv-x="855" 
d="M743.242 1003.5c30.1377 -256.373 -0.876953 -516.449 -21.3867 -772.402c-10.2324 -127.665 -17.4473 -255.629 -14.5693 -383.752c1.40723 -62.8037 3.80762 -125.977 11.7734 -188.348c5.4248 -42.4971 18.3066 -106.135 65.2363 -122.761
c42.6885 -15.123 9.4873 -48.8076 -22.249 -46.8145c-57.4229 3.61035 -105.601 28.2275 -133.739 79.9521c-27.623 50.7881 -29.75 114.031 -34.0986 170.365c-10.1631 131.625 -5.1709 263.811 4.47559 395.321c17.0146 232.005 51.9727 462.749 58.5439 695.512
c3.16504 112.045 3.06348 225.401 -10.7539 336.81c-12.0732 97.3545 -54.6025 202.089 -168.762 204.133c-102.806 1.84668 -192.92 -72.4824 -252.107 -149.989c-64.9502 -85.04 -112.376 -190.316 -123.717 -297.19c-10.876 -102.468 14.0342 -212.144 84.333 -290.064
c68.8916 -76.3672 177.479 -110.021 273.859 -67.8926c18.5234 8.09375 53.3418 -11.1172 24.4072 -23.8018c-101.227 -44.376 -223.645 -22.2422 -308.341 46.9932c-91.2676 74.6035 -132.021 197.607 -125.468 312.83c11.3027 198.689 149.665 440.232 354.785 489.416
c91.8594 22.0195 190.889 0.694336 247.103 -79.6143c62.3262 -89.0381 78.2705 -203.21 90.6748 -308.702z" />
    <glyph glyph-name="I" unicode="&#xce;" horiz-adv-x="855" 
d="M743.242 1003.5c30.1377 -256.373 -0.876953 -516.449 -21.3867 -772.402c-10.2324 -127.665 -17.4473 -255.629 -14.5693 -383.752c1.40723 -62.8037 3.80762 -125.977 11.7734 -188.348c5.4248 -42.4971 18.3066 -106.135 65.2363 -122.761
c42.6885 -15.123 9.4873 -48.8076 -22.249 -46.8145c-57.4229 3.61035 -105.601 28.2275 -133.739 79.9521c-27.623 50.7881 -29.75 114.031 -34.0986 170.365c-10.1631 131.625 -5.1709 263.811 4.47559 395.321c17.0146 232.005 51.9727 462.749 58.5439 695.512
c3.16504 112.045 3.06348 225.401 -10.7539 336.81c-12.0732 97.3545 -54.6025 202.089 -168.762 204.133c-102.806 1.84668 -192.92 -72.4824 -252.107 -149.989c-64.9502 -85.04 -112.376 -190.316 -123.717 -297.19c-10.876 -102.468 14.0342 -212.144 84.333 -290.064
c68.8916 -76.3672 177.479 -110.021 273.859 -67.8926c18.5234 8.09375 53.3418 -11.1172 24.4072 -23.8018c-101.227 -44.376 -223.645 -22.2422 -308.341 46.9932c-91.2676 74.6035 -132.021 197.607 -125.468 312.83c11.3027 198.689 149.665 440.232 354.785 489.416
c91.8594 22.0195 190.889 0.694336 247.103 -79.6143c62.3262 -89.0381 78.2705 -203.21 90.6748 -308.702z" />
    <glyph glyph-name="I" unicode="&#xcd;" horiz-adv-x="855" 
d="M743.242 1003.5c30.1377 -256.373 -0.876953 -516.449 -21.3867 -772.402c-10.2324 -127.665 -17.4473 -255.629 -14.5693 -383.752c1.40723 -62.8037 3.80762 -125.977 11.7734 -188.348c5.4248 -42.4971 18.3066 -106.135 65.2363 -122.761
c42.6885 -15.123 9.4873 -48.8076 -22.249 -46.8145c-57.4229 3.61035 -105.601 28.2275 -133.739 79.9521c-27.623 50.7881 -29.75 114.031 -34.0986 170.365c-10.1631 131.625 -5.1709 263.811 4.47559 395.321c17.0146 232.005 51.9727 462.749 58.5439 695.512
c3.16504 112.045 3.06348 225.401 -10.7539 336.81c-12.0732 97.3545 -54.6025 202.089 -168.762 204.133c-102.806 1.84668 -192.92 -72.4824 -252.107 -149.989c-64.9502 -85.04 -112.376 -190.316 -123.717 -297.19c-10.876 -102.468 14.0342 -212.144 84.333 -290.064
c68.8916 -76.3672 177.479 -110.021 273.859 -67.8926c18.5234 8.09375 53.3418 -11.1172 24.4072 -23.8018c-101.227 -44.376 -223.645 -22.2422 -308.341 46.9932c-91.2676 74.6035 -132.021 197.607 -125.468 312.83c11.3027 198.689 149.665 440.232 354.785 489.416
c91.8594 22.0195 190.889 0.694336 247.103 -79.6143c62.3262 -89.0381 78.2705 -203.21 90.6748 -308.702z" />
    <glyph glyph-name="J" unicode="J" horiz-adv-x="1031" 
d="M239.917 970.476c53.2656 11.6211 106.059 25.292 158.643 39.6318c101.258 27.6357 201.79 58.0029 303.748 83.04c96.8008 23.7705 196.047 45.8662 296.229 45.8408c63.5742 -0.0195312 175.453 -2.30566 193.734 -80.7744
c4.02441 -17.2822 -45.2607 -19.7715 -49.8457 0c-11.1816 48.2158 -81.3213 50.3555 -120.145 51.9854c-49.4951 2.08203 -98.8701 -2.77051 -147.685 -10.6533c-14.6328 -2.3623 -29.208 -5.00488 -43.7646 -7.78711c21.083 -80.7861 43.707 -159.242 56.9326 -242.053
c13.499 -84.5049 25.2979 -169.169 31.8379 -254.527c12.4424 -162.432 11.9648 -329.11 -13.9258 -490.294c-19.6445 -122.29 -59.9961 -249.572 -158.115 -331.938c-93.5342 -78.5195 -216.812 -97.7246 -333.078 -65.4023
c-110.135 30.6221 -198.104 112.911 -248.567 213.991c-57.7676 115.7 -63.4033 250.445 -38.2959 375.582c23.6367 117.801 70.5469 233.367 147.703 326.462c57.5762 69.4707 182.445 178.969 275.33 101.386c43.2744 -36.1494 47.999 -101.666 53.5322 -153.696
c7.66016 -71.9922 6.98535 -144.608 4.75 -216.888c-4.49512 -145.603 -20.1787 -290.606 -24.2031 -436.253c-0.662109 -24.0889 -60.2188 -23.9873 -61.2881 0c-6.44434 144.183 18.7715 286.9 30.5137 430.21c5.75 70.1963 7.05566 140.673 1.17188 210.927
c-4.01758 47.9863 -8.5127 162.075 -78.748 161.509c-56.0605 -0.452148 -109.918 -57.7354 -144.424 -96.502c-34.7734 -39.0654 -63.2363 -83.3838 -86.4971 -130.154c-52.418 -105.397 -82.5557 -225.504 -80.8047 -343.407
c1.62402 -109.529 35.9521 -222.771 109.919 -305.621c70.5088 -78.9717 177.428 -127.264 283.258 -100.393c98.7236 25.0625 163.687 117.839 197.123 208.667c42.4463 115.292 47.6611 246.662 52.8125 368.303c5.45703 128.887 1.7002 256.927 -8.45605 385.47
c-5.06836 64.1543 -12.6328 128.034 -18.9814 192.055c-5.95996 60.0977 -7.57129 119.604 -10.9395 179.714c-65.3252 -14.7539 -130.039 -32.4941 -194.46 -50.4189c-95.3232 -26.5215 -190.398 -54.0869 -286.823 -76.4121
c-71.3115 -16.5117 -165.018 -47.3633 -231.464 -1.08301c-22.8027 15.8809 19.2617 28.9473 33.4873 19.0898c43.2617 -29.9785 102.755 -9.86328 149.786 0.394531z" />
    <glyph glyph-name="K" unicode="K" horiz-adv-x="1118" 
d="M89.4258 320.824c-9.8252 -4.14551 -53.3115 3.90234 -34.96 19.9424c43.8916 38.3584 88.0381 76.4111 132.452 114.152c-6.35449 275.189 6.38086 551.277 28.4512 823.563c3.39355 41.9248 107.804 40.8994 106.059 0
c-10.3984 -243.677 -23.2354 -487.359 -24.5596 -731.29c98.1064 81.4551 197.423 161.464 298.031 239.83c90.2168 70.2734 181.427 139.254 273.541 207.024c88.9941 65.4785 187.909 125.137 257.228 212.787c10.3984 13.1426 55.0098 5.00488 40.4658 -13.4805
c-66.0137 -83.9258 -159.363 -141.68 -244.391 -204.286c-95.9219 -70.6299 -190.774 -142.718 -284.576 -216.137c-115.146 -90.1338 -228.648 -182.344 -340.489 -276.527c0.00683594 -3.83984 -0.0566406 -7.67969 -0.0439453 -11.5254
c0.0380859 -12.8691 0.204102 -25.7383 0.287109 -38.6074c116.088 42.8984 236.303 66.3438 358.039 21.083c152.932 -56.8633 253.629 -192.144 330.989 -329.328c47.5918 -84.3965 91.6172 -178.363 148.238 -261.32c36.8174 5.80762 74.0166 9.04883 111.255 9.49414
c79.8887 0.955078 190.959 -7.48828 247.16 -73.3105c53.6152 -62.791 -0.280273 -132.026 -66.9307 -151.116c-87.3252 -25.0059 -185.157 9.93945 -255.188 62.5488c-39.9062 29.9785 -73.9727 66.834 -104.148 106.835
c-126.124 -35.0283 -242.143 -103.168 -333.492 -198.186c-12.6338 -13.1426 -61.2061 -3.28516 -43.8984 14.627c97.2275 100.634 222.912 173.104 358.071 210.271c-19.873 28.6992 -38.0654 58.5381 -55.1621 88.3008c-89.7012 156.16 -158.363 343.19 -313.129 449.091
c-124.067 84.8994 -254.674 62.6641 -381.536 15.0537c2.32422 -238.99 12.3975 -477.821 34.9902 -715.85c2.58496 -27.2344 -65.2236 -26.833 -70.2412 0c-41.3066 220.906 -63.5488 445.358 -72.2666 670.76c-33.9902 -15.2119 -67.4775 -30.5703 -100.245 -44.4004z
M1194.04 -145.191c-13.627 -1.29883 -27.1836 -3.01855 -40.6826 -5.0625c37.1426 -50.0371 79.8506 -94.9414 132.116 -129.658c36.875 -24.4902 85.4346 -43.5488 129.129 -25.9482c38.0146 15.3145 63.6504 55.2842 41.0645 94.2734
c-23.376 40.3457 -76.2715 54.5137 -118.737 62.0596c-47.082 8.36719 -95.3613 8.85742 -142.89 4.33594zM188.383 401.419c-0.0253906 0.859375 -0.0517578 1.71973 -0.0839844 2.5791c-2.09473 -1.80859 -4.20215 -3.61035 -6.29688 -5.41895
c2.12695 0.942383 4.25391 1.89746 6.38086 2.83984z" />
    <glyph glyph-name="L" unicode="L" horiz-adv-x="581" 
d="M1035.82 -241.508c8.44336 -17.2559 -36.1357 -21.7549 -43.751 -6.89258c-25.1582 49.1963 -88.2363 32.1309 -132.357 25.623c-44.0068 -6.48828 -87.8291 -14.2314 -131.384 -23.293c-86.25 -17.9443 -170.934 -41.6191 -254.579 -69.1396
c1.70605 -29.1641 2.74414 -58.3154 2.71191 -87.4023c-0.0195312 -22.9043 -54.7051 -23.9863 -61.168 -4.71777c-7.49512 22.3379 -14.1113 45.0195 -20.1416 67.9238c-116.075 -32.1123 -242.689 -46.4648 -340.948 36.4033
c-18.7148 15.7793 30.3672 25.6807 43.8984 14.626c68.7637 -56.1748 159.464 -54.5703 241.619 -34.7861c16.1484 3.89062 32.1631 8.29688 48.1328 12.8877c-27.585 116.133 -39.5947 237.659 -51.4258 355.008c-11.4424 113.452 -20.1982 227.172 -25.2227 341.076
c-15.0527 -23.9736 -29.7109 -48.1836 -43.6748 -72.8135c-28.8711 -50.9346 -54.6406 -104.13 -71.5342 -160.324c-10.0547 -33.4619 -16.6006 -68.0059 -18.498 -102.92c-0.636719 -11.6846 2.09473 -95.5273 31.3926 -74.5332
c11.124 7.97266 52.584 -2.94824 36.0156 -15.8428c-34.5186 -26.8584 -89.834 -16.8867 -109.07 24.1719c-23.8535 50.9092 -3.23535 125.779 11.9834 176.688c32.6787 109.307 95.8584 208.954 160.617 303.424c-0.363281 12.6719 -0.751953 25.3438 -1.0127 38.0156
c-2.80859 135.911 -0.319336 272.51 13.1289 407.86c12.251 123.328 30.6982 252.037 81.3018 366.196c41.2559 93.0752 115.12 201.815 226.42 209.66c113.604 8.01074 159.355 -95.0049 162.271 -192.78c3.60449 -120.953 -42.5166 -237.92 -99.7236 -342.292
c-61.3525 -111.937 -136.567 -215.882 -210.788 -319.477c-22.2803 -31.1055 -44.6494 -62.2236 -66.7959 -93.5205c0.458008 -46.9736 1.63574 -93.9414 3.4502 -140.871c5.18359 -133.81 13.9072 -267.6 26.3818 -400.925
c8.68555 -92.7568 21.707 -186.399 28.6416 -279.901c41.5488 13.3906 83.085 26.8838 125.315 37.8105c86.1924 22.2998 173.613 39.9766 261.824 52.1387c60.2695 8.30371 144.621 19.0137 176.969 -47.082zM465.251 1175.07
c-28.8516 -124.563 -38.752 -255.296 -46.2344 -382.661c-3.51465 -59.7725 -5.29785 -119.622 -5.79492 -179.49c50.2148 70.209 100.679 140.246 147.958 212.487c66.7969 102.073 131.154 210.094 161.789 329.251c14.9834 58.2705 20.9814 120.253 12.5693 180.045
c-6.94043 49.3105 -33.2705 120.52 -93.8965 119.628c-58.0918 -0.853516 -97.3037 -59.0283 -119.457 -105.875c-25.9482 -54.8701 -43.2686 -114.389 -56.9336 -173.385z" />
    <glyph glyph-name="M" unicode="M" horiz-adv-x="1201" 
d="M313.856 425.139c-7.67969 -12.124 -13.958 -25.2061 -19.3896 -38.4697c-11.9072 -29.0996 -18.7783 -59.9512 -24.248 -90.8154c-23.293 -131.396 -32.3418 -265.664 -31.3545 -399.047c4.08203 -19.7266 8.81934 -40.835 5.50195 -59.6514
c-3.86523 -21.9424 -46.8594 -24.2412 -59.4229 -9.17578c-30.7617 36.8809 -44.0576 93.7061 -56.4932 139.426c-13.2002 48.54 -24.8213 97.4629 -33.8701 146.952c-18.2109 99.6279 -29.7998 200.039 -36.1611 301.094
c-12.8877 204.904 -9.5957 410.343 0.585938 615.266c2.2666 45.5537 115.891 44.9297 115.515 0c-1.66797 -201.083 -9.49414 -402.364 -0.114258 -603.365c4.64844 -99.6279 12.4424 -199.485 25.9482 -298.33c1.56055 17.9697 3.26074 35.9395 5.25977 53.877
c9.32812 83.7275 15.5938 181.834 63.1025 254.336c17.6572 26.9414 44.4072 42.3066 77.0225 31.6094c33.6465 -11.041 49.8779 -48.5332 62.0273 -78.6396c16.1611 -40.04 27.2539 -82.4678 39.582 -123.807c4.58496 -15.3779 9.24609 -30.7305 14.1426 -46.0127
c0.636719 2.33008 1.28613 4.6543 1.92285 6.97852c6.52637 23.8848 12.9707 47.7891 19.4082 71.6992c13.3721 49.6807 26.209 99.5459 40.9248 148.844c29.4375 98.6094 61.7725 196.181 102.252 290.893c35.9131 84.0332 75.29 165.532 123.219 243.453
c22.7832 37.0342 47.5342 72.833 74.1641 107.205c25.0117 32.29 51.667 66.6875 92.2412 79.2949c30.6982 9.54492 69.8848 7.02344 93.833 -16.4795c28.0049 -27.4824 30.208 -77.7871 34.5 -114.102c12.5254 -105.989 9.29688 -212.883 12.124 -319.33
c5.66699 -213.093 2.12695 -427.459 24.7705 -639.692c10.7422 -100.666 25.7129 -202.949 59.4102 -298.795c15.4609 -43.9746 34.4365 -88.2236 60.5566 -127.021c17.8672 -26.5273 50.1006 -69.1143 85.3389 -71.5723c14.7471 -1.03125 46.5664 -5.20215 46.5664 -26.54
c0 -20.4971 -31.1885 -26.7119 -46.5664 -26.54c-144.635 1.62402 -211.953 142.89 -246.854 263.855c-41.1289 142.539 -48.8975 293.834 -50.7822 441.391c-1.7959 141.05 6.72363 281.832 12.6523 422.696c5.71191 135.662 9.1123 276.622 -11.29 411.278
c-4.98633 32.8955 -16.5117 99.4375 -64.6123 67.6123c-25.4961 -16.8682 -44.5166 -46.1406 -62.2119 -70.4336c-34.6523 -47.5723 -65.459 -97.8896 -92.1836 -150.32c-53.8896 -105.716 -93.0508 -217.43 -125.398 -331.392
c-32.876 -115.827 -64.0137 -232.126 -95.9854 -348.208c-13.2451 -48.082 -16.8555 -125.162 -81.6211 -124.958c-63.6572 0.204102 -67.8916 72.127 -75.5068 119.77c-9.97168 62.415 -16.9375 124.9 -46.585 181.885c-10.5254 20.2236 -16.084 38.2891 -31.9199 13.2832z
" />
    <glyph glyph-name="N" unicode="N" horiz-adv-x="855" 
d="M370.562 760.719c-31.7295 -90.2861 -58.5068 -182.241 -81.2197 -275.202c-45.1914 -185.068 -73.5469 -373.761 -91.79 -563.28c-0.0957031 -0.967773 -0.375977 -1.83984 -0.694336 -2.70605c0.833984 -2.53418 1.5918 -5.09375 2.5918 -7.55762
c9.46875 -23.3496 -41.3066 -23.8594 -51.9219 -12.4736c-53.8125 57.7354 -54.8438 150.938 -64.7646 225.649c-11.5254 86.791 -18.3008 174.772 -23.2734 262.168c-10.1885 179.096 -13.627 358.892 -3.01172 538.045c2.52832 42.6572 108.906 41.9121 108.053 0
c-3.52734 -173.11 -5.85742 -346.228 0.81543 -519.293c3.13281 -81.3145 7.27832 -162.533 12.6338 -243.721c18.9951 130.861 44.2363 260.773 78.0039 388.692c24.2988 92.0508 52.7109 183.185 86.5166 272.204c25.9922 68.4453 61.5557 158.84 129.04 197.236
c153.759 87.4854 194.607 -278.87 205.299 -359.198c24.4258 -183.566 32.6016 -368.935 58.9316 -552.277c12.9961 -90.4902 30.9658 -180.389 59.041 -267.511c19.6445 -60.9639 59.748 -205.796 151.741 -169.608c15.8877 6.25293 62.1865 -11.7607 34.124 -25.2031
c-77.5645 -37.1611 -164.521 -1.45801 -214.398 63.498c-57.2129 74.5078 -84.8486 173.314 -106.441 263.391c-41.5742 173.416 -50.1455 350.48 -60.3145 527.812c-5.02441 87.5742 -11.5254 174.74 -20.2432 262.015c-4.7627 47.6553 -8.2207 95.7627 -16.8428 142.94
c-3.45117 18.9248 -7.83203 38.2188 -15.7725 55.8447c-4.41895 9.80664 -11.3154 24.6309 -19.7783 31.3037c-18.4785 14.5752 -26.2148 3.78223 -38.7715 -7.83887c-62.0654 -57.4678 -90.3184 -147.436 -117.553 -224.93z" />
    <glyph glyph-name="O" unicode="O" horiz-adv-x="914" 
d="M526.486 -236.859c-165.928 -6.22754 -210.378 176.44 -232.372 305.786c-7.37402 43.3887 -12.3281 87.2168 -15.4609 131.262c-28.6094 11.5889 -56.0352 26.916 -81.5566 46.2676c-127.302 96.5078 -156.797 268.797 -144.559 419.207
c11.3662 139.737 61.9248 277.68 149.836 387.509c82.5566 103.143 211.329 176.695 346.845 150.689c122.29 -23.4707 201.605 -125.206 248.299 -233.818c61.0723 -142.056 72.3428 -300.005 64.918 -452.758c-7.6543 -157.344 -29.3936 -315.07 -77.5391 -465.468
c-38.3203 -119.692 -111.783 -283.175 -258.41 -288.677zM445.912 -112.309c13.0283 -26.0752 36.4355 -61.7471 67.6494 -68.2168c23.7324 -4.92188 48.7637 17.5879 64.4727 32.7178c89.0127 85.7148 127.244 223.931 155.153 340.273
c31.876 132.886 50.5518 271.369 56.2764 407.878c5.32324 126.945 1.55957 265.282 -51.1133 383.242c-43.8477 98.1826 -127.544 196.104 -243.677 196.334c-131.619 0.260742 -234.673 -106.11 -297.012 -211.686c-63.6631 -107.816 -96.9463 -232.361 -97.9775 -357.435
c-0.993164 -120.552 26.1709 -251.693 120.443 -334.778c17.5938 -15.5049 36.499 -28.4756 56.3213 -39.1094c-4.97949 103.245 -0.426758 207.362 7.71777 309.607c3.19629 40.1797 102.824 39.6826 102.079 0c-2.1582 -114.599 -8.76758 -229.082 -3.11328 -343.362
c65.7842 -8.24609 134.44 3.88379 196.193 34.3525c9.00391 4.44434 25.585 7.01074 34.1943 0c6.99121 -5.69238 10.2832 -14.4229 -0.000976562 -19.4912c-71.3555 -35.2129 -151.288 -50.75 -228.693 -43.4912c1.87891 -27.4697 4.52832 -54.9336 8.22754 -82.3848
c9.2207 -68.458 21.708 -142.08 52.8584 -204.451z" />
    <glyph glyph-name="O" unicode="&#xd6;" horiz-adv-x="914" 
d="M526.486 -236.859c-165.928 -6.22754 -210.378 176.44 -232.372 305.786c-7.37402 43.3887 -12.3281 87.2168 -15.4609 131.262c-28.6094 11.5889 -56.0352 26.916 -81.5566 46.2676c-127.302 96.5078 -156.797 268.797 -144.559 419.207
c11.3662 139.737 61.9248 277.68 149.836 387.509c82.5566 103.143 211.329 176.695 346.845 150.689c122.29 -23.4707 201.605 -125.206 248.299 -233.818c61.0723 -142.056 72.3428 -300.005 64.918 -452.758c-7.6543 -157.344 -29.3936 -315.07 -77.5391 -465.468
c-38.3203 -119.692 -111.783 -283.175 -258.41 -288.677zM445.912 -112.309c13.0283 -26.0752 36.4355 -61.7471 67.6494 -68.2168c23.7324 -4.92188 48.7637 17.5879 64.4727 32.7178c89.0127 85.7148 127.244 223.931 155.153 340.273
c31.876 132.886 50.5518 271.369 56.2764 407.878c5.32324 126.945 1.55957 265.282 -51.1133 383.242c-43.8477 98.1826 -127.544 196.104 -243.677 196.334c-131.619 0.260742 -234.673 -106.11 -297.012 -211.686c-63.6631 -107.816 -96.9463 -232.361 -97.9775 -357.435
c-0.993164 -120.552 26.1709 -251.693 120.443 -334.778c17.5938 -15.5049 36.499 -28.4756 56.3213 -39.1094c-4.97949 103.245 -0.426758 207.362 7.71777 309.607c3.19629 40.1797 102.824 39.6826 102.079 0c-2.1582 -114.599 -8.76758 -229.082 -3.11328 -343.362
c65.7842 -8.24609 134.44 3.88379 196.193 34.3525c9.00391 4.44434 25.585 7.01074 34.1943 0c6.99121 -5.69238 10.2832 -14.4229 -0.000976562 -19.4912c-71.3555 -35.2129 -151.288 -50.75 -228.693 -43.4912c1.87891 -27.4697 4.52832 -54.9336 8.22754 -82.3848
c9.2207 -68.458 21.708 -142.08 52.8584 -204.451z" />
    <glyph glyph-name="O" unicode="&#xd5;" horiz-adv-x="914" 
d="M526.486 -236.859c-165.928 -6.22754 -210.378 176.44 -232.372 305.786c-7.37402 43.3887 -12.3281 87.2168 -15.4609 131.262c-28.6094 11.5889 -56.0352 26.916 -81.5566 46.2676c-127.302 96.5078 -156.797 268.797 -144.559 419.207
c11.3662 139.737 61.9248 277.68 149.836 387.509c82.5566 103.143 211.329 176.695 346.845 150.689c122.29 -23.4707 201.605 -125.206 248.299 -233.818c61.0723 -142.056 72.3428 -300.005 64.918 -452.758c-7.6543 -157.344 -29.3936 -315.07 -77.5391 -465.468
c-38.3203 -119.692 -111.783 -283.175 -258.41 -288.677zM445.912 -112.309c13.0283 -26.0752 36.4355 -61.7471 67.6494 -68.2168c23.7324 -4.92188 48.7637 17.5879 64.4727 32.7178c89.0127 85.7148 127.244 223.931 155.153 340.273
c31.876 132.886 50.5518 271.369 56.2764 407.878c5.32324 126.945 1.55957 265.282 -51.1133 383.242c-43.8477 98.1826 -127.544 196.104 -243.677 196.334c-131.619 0.260742 -234.673 -106.11 -297.012 -211.686c-63.6631 -107.816 -96.9463 -232.361 -97.9775 -357.435
c-0.993164 -120.552 26.1709 -251.693 120.443 -334.778c17.5938 -15.5049 36.499 -28.4756 56.3213 -39.1094c-4.97949 103.245 -0.426758 207.362 7.71777 309.607c3.19629 40.1797 102.824 39.6826 102.079 0c-2.1582 -114.599 -8.76758 -229.082 -3.11328 -343.362
c65.7842 -8.24609 134.44 3.88379 196.193 34.3525c9.00391 4.44434 25.585 7.01074 34.1943 0c6.99121 -5.69238 10.2832 -14.4229 -0.000976562 -19.4912c-71.3555 -35.2129 -151.288 -50.75 -228.693 -43.4912c1.87891 -27.4697 4.52832 -54.9336 8.22754 -82.3848
c9.2207 -68.458 21.708 -142.08 52.8584 -204.451z" />
    <glyph glyph-name="O" unicode="&#xd4;" horiz-adv-x="914" 
d="M526.486 -236.859c-165.928 -6.22754 -210.378 176.44 -232.372 305.786c-7.37402 43.3887 -12.3281 87.2168 -15.4609 131.262c-28.6094 11.5889 -56.0352 26.916 -81.5566 46.2676c-127.302 96.5078 -156.797 268.797 -144.559 419.207
c11.3662 139.737 61.9248 277.68 149.836 387.509c82.5566 103.143 211.329 176.695 346.845 150.689c122.29 -23.4707 201.605 -125.206 248.299 -233.818c61.0723 -142.056 72.3428 -300.005 64.918 -452.758c-7.6543 -157.344 -29.3936 -315.07 -77.5391 -465.468
c-38.3203 -119.692 -111.783 -283.175 -258.41 -288.677zM445.912 -112.309c13.0283 -26.0752 36.4355 -61.7471 67.6494 -68.2168c23.7324 -4.92188 48.7637 17.5879 64.4727 32.7178c89.0127 85.7148 127.244 223.931 155.153 340.273
c31.876 132.886 50.5518 271.369 56.2764 407.878c5.32324 126.945 1.55957 265.282 -51.1133 383.242c-43.8477 98.1826 -127.544 196.104 -243.677 196.334c-131.619 0.260742 -234.673 -106.11 -297.012 -211.686c-63.6631 -107.816 -96.9463 -232.361 -97.9775 -357.435
c-0.993164 -120.552 26.1709 -251.693 120.443 -334.778c17.5938 -15.5049 36.499 -28.4756 56.3213 -39.1094c-4.97949 103.245 -0.426758 207.362 7.71777 309.607c3.19629 40.1797 102.824 39.6826 102.079 0c-2.1582 -114.599 -8.76758 -229.082 -3.11328 -343.362
c65.7842 -8.24609 134.44 3.88379 196.193 34.3525c9.00391 4.44434 25.585 7.01074 34.1943 0c6.99121 -5.69238 10.2832 -14.4229 -0.000976562 -19.4912c-71.3555 -35.2129 -151.288 -50.75 -228.693 -43.4912c1.87891 -27.4697 4.52832 -54.9336 8.22754 -82.3848
c9.2207 -68.458 21.708 -142.08 52.8584 -204.451z" />
    <glyph glyph-name="O" unicode="&#xd3;" horiz-adv-x="914" 
d="M526.486 -236.859c-165.928 -6.22754 -210.378 176.44 -232.372 305.786c-7.37402 43.3887 -12.3281 87.2168 -15.4609 131.262c-28.6094 11.5889 -56.0352 26.916 -81.5566 46.2676c-127.302 96.5078 -156.797 268.797 -144.559 419.207
c11.3662 139.737 61.9248 277.68 149.836 387.509c82.5566 103.143 211.329 176.695 346.845 150.689c122.29 -23.4707 201.605 -125.206 248.299 -233.818c61.0723 -142.056 72.3428 -300.005 64.918 -452.758c-7.6543 -157.344 -29.3936 -315.07 -77.5391 -465.468
c-38.3203 -119.692 -111.783 -283.175 -258.41 -288.677zM445.912 -112.309c13.0283 -26.0752 36.4355 -61.7471 67.6494 -68.2168c23.7324 -4.92188 48.7637 17.5879 64.4727 32.7178c89.0127 85.7148 127.244 223.931 155.153 340.273
c31.876 132.886 50.5518 271.369 56.2764 407.878c5.32324 126.945 1.55957 265.282 -51.1133 383.242c-43.8477 98.1826 -127.544 196.104 -243.677 196.334c-131.619 0.260742 -234.673 -106.11 -297.012 -211.686c-63.6631 -107.816 -96.9463 -232.361 -97.9775 -357.435
c-0.993164 -120.552 26.1709 -251.693 120.443 -334.778c17.5938 -15.5049 36.499 -28.4756 56.3213 -39.1094c-4.97949 103.245 -0.426758 207.362 7.71777 309.607c3.19629 40.1797 102.824 39.6826 102.079 0c-2.1582 -114.599 -8.76758 -229.082 -3.11328 -343.362
c65.7842 -8.24609 134.44 3.88379 196.193 34.3525c9.00391 4.44434 25.585 7.01074 34.1943 0c6.99121 -5.69238 10.2832 -14.4229 -0.000976562 -19.4912c-71.3555 -35.2129 -151.288 -50.75 -228.693 -43.4912c1.87891 -27.4697 4.52832 -54.9336 8.22754 -82.3848
c9.2207 -68.458 21.708 -142.08 52.8584 -204.451z" />
    <glyph glyph-name="P" unicode="P" horiz-adv-x="825" 
d="M169.286 402.489c-1.36914 47.0508 41.3887 79.5781 83.1797 95.8281c15.4795 55.3857 33.5186 110.097 54.4238 163.884c45.8027 117.846 104.735 232.953 181.108 334.052c69.5596 92.082 175.269 198.332 300.686 190.678
c116.527 -7.11914 165.857 -117.394 183.489 -218.34c22.0957 -126.506 -14.7285 -255.521 -80.1182 -363.955c-63.001 -104.48 -150.34 -194.659 -256.972 -254.846c-107.396 -60.6201 -244.269 -95.2412 -364.687 -55.2715
c-4.29785 1.43262 -8.5957 3.0498 -12.8809 4.7627c-25.999 -150.136 -35.4355 -303.111 -33.2324 -455.45c2.87793 -33.335 4.31738 -66.6055 3.15234 -99.6533c-0.725586 -20.415 -44.6113 -19.1221 -51.8896 -4.00488
c-48.5791 100.883 -65.8037 218.671 -83.5635 328.379c-18.1982 112.434 -29.666 226.472 -35.8428 340.172c-12.3721 227.7 -7.10645 456.419 25.5596 682.253c6.0752 42.001 110.778 40.7852 107.06 0c-20.5039 -224.72 -31.3857 -450.586 -21.2607 -676.159
c4.06934 -90.7256 10.7236 -181.185 19.6699 -271.497c5.99805 60.7285 14.3584 121.195 25.3359 181.146c-24.4326 18.8799 -42.2432 44.5986 -43.2178 78.0225zM229.44 436.501c-12.8057 -21.707 -13.0391 -39.8418 -5.58301 -54.7168
c4.90918 23.0449 10.1748 46.0127 15.918 68.8594c-3.77637 -4.25391 -7.25977 -8.92773 -10.335 -14.1426zM355.082 327.424c55.8252 1.4834 111.796 15.8379 162.915 37.8887c14.9766 6.46289 29.6475 13.6836 44.0576 21.458
c-46.0059 32.1689 -93.54 63.8037 -146.538 82.6709c-33.5635 11.9521 -78.5127 20.0586 -117.54 12.417c-3.09473 -11.3857 -6.11914 -22.7588 -8.99707 -34.0869c-8.56445 -33.7354 -16.0781 -67.6943 -22.8086 -101.806
c29.0303 -13.3652 65.0898 -19.1787 88.9111 -18.542zM571.396 1030.62c-128.384 -143.991 -211.577 -333.11 -265.122 -519.268c105.729 12.5889 204.611 -45.7002 290.16 -104.486c149.926 94.5215 262.646 257.743 303.838 426.612
c23.127 94.8271 29.2783 213.138 -44.5293 288.677c-92.0186 94.1709 -219.843 -19.1924 -284.347 -91.5352z" />
    <glyph glyph-name="Q" unicode="Q" horiz-adv-x="925" 
d="M784.897 51.8174c-26.2852 -82.123 -69.1318 -184.853 -140.793 -243.033c12.3213 -1.62402 24.3057 -5.56543 35.5635 -12.8564c25.6484 -16.6191 -21.0195 -31.5254 -37.0088 -21.0957c-25.7188 16.7656 -82.0088 -11.3096 -108.664 -20.5488
c-32.8633 -11.3857 -65.1787 -24.4014 -96.6729 -39.1807c-65.084 -30.5518 -127.271 -67.8027 -184.986 -110.663c-8.86328 -6.59082 -22.1523 -9.29688 -32.7354 -4.89648c-6.50098 2.70605 -17.8672 11.5059 -8.58301 18.6631
c72.6035 55.9844 150.913 102.061 235.373 137.802c9.66016 4.08789 19.4023 8.02344 29.1895 11.8379c-124.551 29.1445 -161.916 186.113 -181.465 301.081c-7.37402 43.3887 -12.3281 87.2168 -15.4609 131.262c-28.6094 11.5889 -56.0352 26.916 -81.5566 46.2676
c-127.302 96.5078 -156.797 268.797 -144.559 419.207c11.3662 139.737 61.9248 277.68 149.836 387.509c82.5566 103.143 211.329 176.695 346.845 150.689c122.284 -23.4707 201.605 -125.206 248.299 -233.818c61.0723 -142.056 72.3428 -300.005 64.918 -452.758
c-7.6543 -157.344 -29.3936 -315.07 -77.5391 -465.468zM393.06 92.1426c9.2207 -68.458 21.7012 -142.081 52.8516 -204.445c13.0215 -26.0752 36.4355 -61.7471 67.6494 -68.2227c23.7324 -4.92188 48.7637 17.5879 64.4727 32.7178
c89.0127 85.7148 127.244 223.931 155.153 340.273c31.876 132.886 50.5518 271.369 56.2764 407.878c5.32324 126.945 1.55957 265.282 -51.1133 383.242c-43.8477 98.1826 -127.544 196.104 -243.677 196.334c-131.612 0.260742 -234.666 -106.11 -297.005 -211.686
c-63.6631 -107.816 -96.9463 -232.361 -97.9775 -357.435c-0.993164 -120.552 26.1709 -251.693 120.443 -334.778c17.5938 -15.5049 36.499 -28.4756 56.3213 -39.1094c-4.97949 103.245 -0.426758 207.362 7.71777 309.607c3.19629 40.1797 102.824 39.6826 102.079 0
c-2.1582 -114.599 -8.76758 -229.082 -3.11328 -343.362c65.7842 -8.24609 134.44 3.88379 196.193 34.3525c9.00391 4.44434 25.585 7.01074 34.1943 0c6.98535 -5.69238 10.2842 -14.4229 0 -19.4912c-71.3555 -35.2129 -151.288 -50.75 -228.693 -43.4912
c1.88477 -27.4697 4.52734 -54.9336 8.22656 -82.3848z" />
    <glyph glyph-name="R" unicode="R" horiz-adv-x="1137" 
d="M62.5635 322.888c55.5068 24.1143 115.038 33.4092 174.474 42.4131c8.60938 1.30566 17.2314 2.55371 25.8467 3.81445c-0.535156 17.1738 -1.13379 34.3535 -1.53516 51.5273c-2.72559 115.477 -3.92285 231.221 -0.694336 346.704
c3.17773 113.859 13.0732 226.599 21.0518 340.114c3.05664 43.4785 111.721 42.0391 109.543 0c-5.85156 -113.019 -5.46289 -226.923 -6.97852 -340.114c-1.51562 -113.497 -2.66211 -226.911 -0.611328 -340.408c0.260742 -14.3848 0.624023 -28.7695 0.942383 -43.1543
c4.2793 0.369141 8.5459 0.84082 12.8252 1.16602c0.878906 0.0703125 1.75781 0.115234 2.63672 0.178711c7.15723 2.68066 14.3076 5.38672 21.4453 8.11816c6.31055 2.41309 12.5635 5.01074 18.8486 7.51953c15.2314 58.0029 32.6084 115.426 52.9658 171.843
c70.3428 194.933 182.107 407.847 362.579 521.77c81.1367 51.2217 195.709 88.1025 282.563 28.3682c38.5117 -26.4893 57.0098 -69.3115 63.9248 -114.509c7.76855 -50.7695 -9.02246 -98.5518 -31.0293 -143.73c-48.623 -99.832 -128.065 -181.694 -212.659 -251.91
c-87.0332 -72.2412 -182.854 -132.811 -283.061 -185.013c-32.6914 -17.0332 -65.8408 -33.0098 -99.4619 -47.7764c45 -6.97852 89.2422 -18.9053 132.357 -37.2568c208.495 -88.7334 294.586 -304.15 324.38 -514.537
c4.95996 -35.0605 -89.8799 -38.0283 -95.1201 -0.000976562c-24.7188 179.318 -85.7393 387.947 -253.762 484.475c-48.7441 27.998 -104.582 40.6953 -161.343 45.0703c-15.8486 -6.24023 -31.7998 -12.2197 -47.8652 -17.8867
c-18.0332 -75.1953 -32.7676 -151.244 -45.1084 -227.528c-17.1797 -106.244 -26.9854 -213.641 -15.4531 -321.03c0.464844 -4.36133 -1.96094 -7.72949 -5.88379 -10.1172c-0.229492 -5.46973 -0.401367 -10.9775 -0.394531 -16.6064
c0.0195312 -24.5664 -54.2197 -23 -62.6377 -4.83301c-12.6904 27.3867 -25.8779 50.1641 -33.1367 79.8623c-6.35449 25.999 -11.6396 52.5332 -15.9697 78.9521c-8.77441 53.5264 -13.9004 108.109 -18.0586 162.171c-5.26562 68.4902 -9.20703 137.114 -12.2002 205.764
c-32.1758 -4.55957 -64.5615 -7.30371 -97.4951 -8.08691c-33.3662 -0.795898 -100.29 -10.3408 -117.598 28.3232c-3.78223 8.4502 5.30469 13.582 11.6719 16.3457zM128.552 312.781c22.6875 3.12695 51.4072 10.1191 57.4434 11.3164
c18.7529 3.71191 37.4287 8.05469 56.0479 12.5371c-38.499 -6.01758 -76.584 -12.4424 -113.491 -23.8535zM397.356 209.181c7.2207 37.7217 15.124 75.3555 23.7012 112.835c-11.5 -3.51465 -23.0449 -6.91504 -34.6592 -10.1113
c1.28613 -45.4844 2.79492 -90.9688 4.6543 -136.44c2.06348 11.252 4.1582 22.4971 6.30371 33.7168zM738.872 931.799c-117.84 -147.748 -191.812 -326.425 -242.122 -507.374c77.1631 34.2646 152.078 74.6289 223.58 118.763
c82.9697 51.208 161.801 109.007 232.342 176.466c70.248 67.1719 138.019 141.763 171.397 234.73c16.5938 46.2158 31.0801 95.5967 -7.0625 135.637c-40.9756 43.0195 -102.697 39.7979 -154.256 20.3643c-90.7197 -34.2002 -164.342 -103.938 -223.879 -178.586z" />
    <glyph glyph-name="S" unicode="S" horiz-adv-x="1012" 
d="M594.929 1104.18c-71.1777 46.6494 -156.878 26.4824 -214.027 -32.7363c-55.71 -57.7285 -64.8984 -149.919 -55.8115 -226.178c18.1924 -152.606 128.562 -277.399 235.634 -378.849c106.199 -100.621 225.656 -190.704 315.783 -307.06
c41.5039 -53.5771 91.7383 -119.839 82.0723 -191.927c-9.46191 -70.5977 -69.9287 -121.787 -127.568 -156.408c-3.06934 -1.83984 -6.17676 -3.61621 -9.29102 -5.37988c14.6582 -17.6826 29.5518 -35.1748 44.9873 -52.1953
c25.0625 -27.6416 65.4844 -81.2061 108.039 -74.3926c23.4834 3.75684 43.8027 -20.918 12.5889 -26.0312c-81.0918 -13.2832 -137.681 57.4678 -185.323 112.242c-6.10645 7.02344 -12.124 14.123 -18.1221 21.2354
c-116.337 -52.2021 -256.266 -58.5889 -379.798 -44.6377c-75.4121 8.51953 -151.327 27.501 -220.174 59.8164c-54.0996 25.3945 -112.242 66.625 -128.734 127.366c-35.0986 129.244 115.668 220.384 222.893 233.559c134.783 16.5498 258.227 -49.3486 354.486 -138.674
c56.71 -52.6289 104.55 -113.777 152.956 -173.875c4.44434 -5.52051 8.9082 -11.0225 13.3721 -16.5303c38.2314 24.4258 70.3496 57.3848 82.9834 101.2c22.1016 76.6279 -44.0967 148.805 -91.0703 201.179c-97.9082 109.16 -216.231 195.734 -324.08 294.344
c-107.74 98.5137 -214.328 217.016 -241.849 365.178c-24.9863 134.517 34.3662 278.718 161.114 339.389c114.241 54.6855 242.428 25.0312 316.127 -79.0352c90.8594 -128.302 71.0176 -291.86 98.2646 -438.908c3.25391 -17.5488 -45.2041 -19.4336 -48.8525 0
c-29.915 159.241 0.419922 384.407 -156.6 487.309zM714.375 -205.875c15.5879 5.20898 31.6289 11.5312 47.376 18.9688c-42.459 51.6865 -83.5879 104.519 -129.441 153.282c-104.468 111.09 -261.914 220.072 -418.736 147.596
c-59.9385 -27.6992 -118.171 -88.9434 -113.937 -159.382c4.33008 -71.9863 76.8574 -116.853 136.72 -141.196c145.959 -59.3525 327.793 -69.4199 478.019 -19.2686z" />
    <glyph glyph-name="T" unicode="T" horiz-adv-x="1024" 
d="M771.046 1105.28c5.25293 39.0977 99.1367 40.1641 101.104 -0.015625c0.101562 -2.01172 0.165039 -4.02344 0.260742 -6.03516c168.851 35.7354 341.827 57.8438 513.18 42.9375c55.3281 -4.81348 110.363 -14.25 163.571 -30.3857
c41.1855 -12.4873 87.1348 -29.5654 110.721 -68.1338c56.793 -92.8848 -56.1494 -170.818 -124.831 -207.4c-15.9766 -8.50684 -61.1992 6.66113 -35.6016 20.2939c49.6934 26.4707 106.486 56.8701 120.387 116.376c15.6514 67.0254 -41.3965 97.501 -96.0947 114.089
c-118.043 35.792 -246.542 36.3779 -368.457 25.6162c-93.6426 -8.27148 -188.087 -22.5156 -281.666 -41.8926c8.53906 -216.888 -0.853516 -434.609 5.51367 -651.65c3.3877 -115.343 7.66016 -230.578 14.1484 -345.794
c3.0625 -54.373 6.11914 -108.766 9.02246 -163.146c2.88477 -54.0293 12.1367 -115.171 -3.0625 -167.768c-6.12598 -21.1855 -53.832 -16.3779 -62.46 0c-25.7891 48.9668 -29.3105 113.662 -36.5889 167.768c-0.585938 4.32324 -1.1084 8.65918 -1.6748 12.9824
c-18.3965 107.874 -61.9961 210.966 -128.468 298.228c-72.3809 95.0176 -170.519 162.477 -276.183 215.837c-50.043 25.2734 -101.442 47.6748 -152.95 69.7578c-42.3896 18.167 -88.1543 33.8818 -127.417 58.4229c-34.2832 21.4336 -62.8037 52.8135 -63.4854 95.3877
c-0.757812 47.248 30.2715 90.1533 61.4922 122.692c70.7891 73.7812 164.17 122.29 256.621 163.183c105.977 46.8789 216.551 82.2959 328.697 111.084c23.3887 6.00488 46.9043 11.8887 70.5156 17.6064c1.19043 9.99707 2.36816 19.9941 3.70508 29.96zM758.112 419.087
c-8.39258 207.381 -15.8916 419.285 5.91113 626.488c-81.3525 -20.4531 -161.547 -44.5869 -239.404 -71.9297c-95.3301 -33.4814 -190.736 -73.2852 -275.802 -128.397c-62.874 -40.7275 -196.861 -142.667 -132.931 -230.037
c26.3428 -36.0029 76.252 -51.6543 115.534 -68.5225c41.6123 -17.8672 83.3008 -35.5879 124.537 -54.3154c86.4531 -39.2627 171.085 -83.7344 245.51 -143.24c73.2217 -58.5508 132.18 -131.874 174.977 -213.832c-7.9209 94.4639 -14.499 189.087 -18.332 283.786z" />
    <glyph glyph-name="U" unicode="U" horiz-adv-x="1483" 
d="M1647.86 -208.822c2.56641 -59.5059 -44.2363 -101.959 -101.838 -102.697c-66.0576 -0.866211 -131.822 34.627 -178.783 78.8633c-32.5957 30.6982 -56.2002 67.6182 -73.7178 107.613c-60.2061 -28.0879 -116.075 -69.9746 -164.667 -109.416
c-13.5889 -11.0225 -60.6201 -0.331055 -42.6123 14.2002c58.0029 46.8018 124.755 93.4697 196.085 123.417c-7.64746 21.2617 -13.8877 43.1348 -19.0264 65.2236c-37.5498 161.381 -38.4473 329.779 -30.8379 494.707
c-27.7119 -94.3047 -61.6006 -186.801 -106.479 -274.343c-50.0244 -97.5771 -114.42 -203.872 -211.176 -261.729c-101.118 -60.4541 -223.67 -5.05566 -272.179 95.2217c-53.1631 109.918 -67.3438 238.359 -74.7617 358.676
c-7.76172 125.895 -5.95996 252.165 -15.6582 377.951c-7.71777 100.022 -19.6699 316.706 -172.155 285.619c-108.212 -22.0576 -186.986 -123.456 -229.49 -218.722c-47.8467 -107.243 -74.3867 -243.708 -31.0166 -356.46
c40.2812 -104.716 165.991 -200.695 272.038 -115.872c12.7988 10.2451 57.6592 0.483398 40.46 -13.4805c-90.4268 -73.4248 -227.025 -53.7295 -303.794 30.2148c-93.8203 102.596 -90.6875 251.427 -55.7676 377.799c27.9541 101.137 81.9072 199.854 166.819 263.977
c87.2559 65.8857 198.078 89.1338 288.422 17.377c103.392 -82.123 120.858 -228.515 133.346 -351.512c13.5371 -133.281 13.6133 -267.733 31.1055 -400.613c8.90234 -67.6562 21.6504 -134.191 41.6514 -199.491c13.1426 -42.9053 37.709 -123.851 88.2549 -136.783
c33.7871 -8.64746 75.2852 24.3115 99.0557 44.5859c21.5605 18.3896 41.0264 39.3965 58.9326 61.3203c42.2432 51.7119 76.4307 110.555 105.805 170.359c58.4609 119.018 97.7939 246.549 129.32 375.041c17.3076 70.5469 30.2471 141.66 38.7861 213.321
c2.22266 44.9492 4.21582 90.3438 10.7559 134.656c0.790039 19.4404 1.29297 38.9189 1.42676 58.4424c0.0507812 7.94727 8.1123 12.6533 17.7783 14.2646c11.5127 7.46875 37.4482 4.8457 41.5049 -6.33594c27.1895 -75.0107 23.9863 -158.134 23.8975 -236.978
c-0.0888672 -77.9082 -4.20898 -155.733 -6.78125 -233.584c-4.6543 -140.922 -7.87598 -281.22 4.33691 -421.894c4.97949 -57.3662 11.1182 -122.132 26.5146 -183.516c56.1943 9.88867 114.013 6.30371 171.69 -18.0205
c49.7568 -20.9814 100.252 -63.377 102.755 -121.405zM1380.84 -96.3447c16.3779 -53.7871 41.127 -103.59 80.084 -141.706c21.6758 -21.2041 53.4756 -42.835 85.1104 -43.2168c31.2842 -0.375977 49.2158 28.5459 53.1514 56.5254
c8.79395 62.5684 -49.5459 107.04 -103.002 122.908c-39.085 11.6084 -77.7305 12.2832 -115.344 5.48926z" />
    <glyph glyph-name="U" unicode="&#xdc;" horiz-adv-x="1483" 
d="M1647.86 -208.822c2.56641 -59.5059 -44.2363 -101.959 -101.838 -102.697c-66.0576 -0.866211 -131.822 34.627 -178.783 78.8633c-32.5957 30.6982 -56.2002 67.6182 -73.7178 107.613c-60.2061 -28.0879 -116.075 -69.9746 -164.667 -109.416
c-13.5889 -11.0225 -60.6201 -0.331055 -42.6123 14.2002c58.0029 46.8018 124.755 93.4697 196.085 123.417c-7.64746 21.2617 -13.8877 43.1348 -19.0264 65.2236c-37.5498 161.381 -38.4473 329.779 -30.8379 494.707
c-27.7119 -94.3047 -61.6006 -186.801 -106.479 -274.343c-50.0244 -97.5771 -114.42 -203.872 -211.176 -261.729c-101.118 -60.4541 -223.67 -5.05566 -272.179 95.2217c-53.1631 109.918 -67.3438 238.359 -74.7617 358.676
c-7.76172 125.895 -5.95996 252.165 -15.6582 377.951c-7.71777 100.022 -19.6699 316.706 -172.155 285.619c-108.212 -22.0576 -186.986 -123.456 -229.49 -218.722c-47.8467 -107.243 -74.3867 -243.708 -31.0166 -356.46
c40.2812 -104.716 165.991 -200.695 272.038 -115.872c12.7988 10.2451 57.6592 0.483398 40.46 -13.4805c-90.4268 -73.4248 -227.025 -53.7295 -303.794 30.2148c-93.8203 102.596 -90.6875 251.427 -55.7676 377.799c27.9541 101.137 81.9072 199.854 166.819 263.977
c87.2559 65.8857 198.078 89.1338 288.422 17.377c103.392 -82.123 120.858 -228.515 133.346 -351.512c13.5371 -133.281 13.6133 -267.733 31.1055 -400.613c8.90234 -67.6562 21.6504 -134.191 41.6514 -199.491c13.1426 -42.9053 37.709 -123.851 88.2549 -136.783
c33.7871 -8.64746 75.2852 24.3115 99.0557 44.5859c21.5605 18.3896 41.0264 39.3965 58.9326 61.3203c42.2432 51.7119 76.4307 110.555 105.805 170.359c58.4609 119.018 97.7939 246.549 129.32 375.041c17.3076 70.5469 30.2471 141.66 38.7861 213.321
c2.22266 44.9492 4.21582 90.3438 10.7559 134.656c0.790039 19.4404 1.29297 38.9189 1.42676 58.4424c0.0507812 7.94727 8.1123 12.6533 17.7783 14.2646c11.5127 7.46875 37.4482 4.8457 41.5049 -6.33594c27.1895 -75.0107 23.9863 -158.134 23.8975 -236.978
c-0.0888672 -77.9082 -4.20898 -155.733 -6.78125 -233.584c-4.6543 -140.922 -7.87598 -281.22 4.33691 -421.894c4.97949 -57.3662 11.1182 -122.132 26.5146 -183.516c56.1943 9.88867 114.013 6.30371 171.69 -18.0205
c49.7568 -20.9814 100.252 -63.377 102.755 -121.405zM1380.84 -96.3447c16.3779 -53.7871 41.127 -103.59 80.084 -141.706c21.6758 -21.2041 53.4756 -42.835 85.1104 -43.2168c31.2842 -0.375977 49.2158 28.5459 53.1514 56.5254
c8.79395 62.5684 -49.5459 107.04 -103.002 122.908c-39.085 11.6084 -77.7305 12.2832 -115.344 5.48926z" />
    <glyph glyph-name="U" unicode="&#xdb;" horiz-adv-x="1483" 
d="M1647.86 -208.822c2.56641 -59.5059 -44.2363 -101.959 -101.838 -102.697c-66.0576 -0.866211 -131.822 34.627 -178.783 78.8633c-32.5957 30.6982 -56.2002 67.6182 -73.7178 107.613c-60.2061 -28.0879 -116.075 -69.9746 -164.667 -109.416
c-13.5889 -11.0225 -60.6201 -0.331055 -42.6123 14.2002c58.0029 46.8018 124.755 93.4697 196.085 123.417c-7.64746 21.2617 -13.8877 43.1348 -19.0264 65.2236c-37.5498 161.381 -38.4473 329.779 -30.8379 494.707
c-27.7119 -94.3047 -61.6006 -186.801 -106.479 -274.343c-50.0244 -97.5771 -114.42 -203.872 -211.176 -261.729c-101.118 -60.4541 -223.67 -5.05566 -272.179 95.2217c-53.1631 109.918 -67.3438 238.359 -74.7617 358.676
c-7.76172 125.895 -5.95996 252.165 -15.6582 377.951c-7.71777 100.022 -19.6699 316.706 -172.155 285.619c-108.212 -22.0576 -186.986 -123.456 -229.49 -218.722c-47.8467 -107.243 -74.3867 -243.708 -31.0166 -356.46
c40.2812 -104.716 165.991 -200.695 272.038 -115.872c12.7988 10.2451 57.6592 0.483398 40.46 -13.4805c-90.4268 -73.4248 -227.025 -53.7295 -303.794 30.2148c-93.8203 102.596 -90.6875 251.427 -55.7676 377.799c27.9541 101.137 81.9072 199.854 166.819 263.977
c87.2559 65.8857 198.078 89.1338 288.422 17.377c103.392 -82.123 120.858 -228.515 133.346 -351.512c13.5371 -133.281 13.6133 -267.733 31.1055 -400.613c8.90234 -67.6562 21.6504 -134.191 41.6514 -199.491c13.1426 -42.9053 37.709 -123.851 88.2549 -136.783
c33.7871 -8.64746 75.2852 24.3115 99.0557 44.5859c21.5605 18.3896 41.0264 39.3965 58.9326 61.3203c42.2432 51.7119 76.4307 110.555 105.805 170.359c58.4609 119.018 97.7939 246.549 129.32 375.041c17.3076 70.5469 30.2471 141.66 38.7861 213.321
c2.22266 44.9492 4.21582 90.3438 10.7559 134.656c0.790039 19.4404 1.29297 38.9189 1.42676 58.4424c0.0507812 7.94727 8.1123 12.6533 17.7783 14.2646c11.5127 7.46875 37.4482 4.8457 41.5049 -6.33594c27.1895 -75.0107 23.9863 -158.134 23.8975 -236.978
c-0.0888672 -77.9082 -4.20898 -155.733 -6.78125 -233.584c-4.6543 -140.922 -7.87598 -281.22 4.33691 -421.894c4.97949 -57.3662 11.1182 -122.132 26.5146 -183.516c56.1943 9.88867 114.013 6.30371 171.69 -18.0205
c49.7568 -20.9814 100.252 -63.377 102.755 -121.405zM1380.84 -96.3447c16.3779 -53.7871 41.127 -103.59 80.084 -141.706c21.6758 -21.2041 53.4756 -42.835 85.1104 -43.2168c31.2842 -0.375977 49.2158 28.5459 53.1514 56.5254
c8.79395 62.5684 -49.5459 107.04 -103.002 122.908c-39.085 11.6084 -77.7305 12.2832 -115.344 5.48926z" />
    <glyph glyph-name="U" unicode="&#xda;" horiz-adv-x="1483" 
d="M1647.86 -208.822c2.56641 -59.5059 -44.2363 -101.959 -101.838 -102.697c-66.0576 -0.866211 -131.822 34.627 -178.783 78.8633c-32.5957 30.6982 -56.2002 67.6182 -73.7178 107.613c-60.2061 -28.0879 -116.075 -69.9746 -164.667 -109.416
c-13.5889 -11.0225 -60.6201 -0.331055 -42.6123 14.2002c58.0029 46.8018 124.755 93.4697 196.085 123.417c-7.64746 21.2617 -13.8877 43.1348 -19.0264 65.2236c-37.5498 161.381 -38.4473 329.779 -30.8379 494.707
c-27.7119 -94.3047 -61.6006 -186.801 -106.479 -274.343c-50.0244 -97.5771 -114.42 -203.872 -211.176 -261.729c-101.118 -60.4541 -223.67 -5.05566 -272.179 95.2217c-53.1631 109.918 -67.3438 238.359 -74.7617 358.676
c-7.76172 125.895 -5.95996 252.165 -15.6582 377.951c-7.71777 100.022 -19.6699 316.706 -172.155 285.619c-108.212 -22.0576 -186.986 -123.456 -229.49 -218.722c-47.8467 -107.243 -74.3867 -243.708 -31.0166 -356.46
c40.2812 -104.716 165.991 -200.695 272.038 -115.872c12.7988 10.2451 57.6592 0.483398 40.46 -13.4805c-90.4268 -73.4248 -227.025 -53.7295 -303.794 30.2148c-93.8203 102.596 -90.6875 251.427 -55.7676 377.799c27.9541 101.137 81.9072 199.854 166.819 263.977
c87.2559 65.8857 198.078 89.1338 288.422 17.377c103.392 -82.123 120.858 -228.515 133.346 -351.512c13.5371 -133.281 13.6133 -267.733 31.1055 -400.613c8.90234 -67.6562 21.6504 -134.191 41.6514 -199.491c13.1426 -42.9053 37.709 -123.851 88.2549 -136.783
c33.7871 -8.64746 75.2852 24.3115 99.0557 44.5859c21.5605 18.3896 41.0264 39.3965 58.9326 61.3203c42.2432 51.7119 76.4307 110.555 105.805 170.359c58.4609 119.018 97.7939 246.549 129.32 375.041c17.3076 70.5469 30.2471 141.66 38.7861 213.321
c2.22266 44.9492 4.21582 90.3438 10.7559 134.656c0.790039 19.4404 1.29297 38.9189 1.42676 58.4424c0.0507812 7.94727 8.1123 12.6533 17.7783 14.2646c11.5127 7.46875 37.4482 4.8457 41.5049 -6.33594c27.1895 -75.0107 23.9863 -158.134 23.8975 -236.978
c-0.0888672 -77.9082 -4.20898 -155.733 -6.78125 -233.584c-4.6543 -140.922 -7.87598 -281.22 4.33691 -421.894c4.97949 -57.3662 11.1182 -122.132 26.5146 -183.516c56.1943 9.88867 114.013 6.30371 171.69 -18.0205
c49.7568 -20.9814 100.252 -63.377 102.755 -121.405zM1380.84 -96.3447c16.3779 -53.7871 41.127 -103.59 80.084 -141.706c21.6758 -21.2041 53.4756 -42.835 85.1104 -43.2168c31.2842 -0.375977 49.2158 28.5459 53.1514 56.5254
c8.79395 62.5684 -49.5459 107.04 -103.002 122.908c-39.085 11.6084 -77.7305 12.2832 -115.344 5.48926z" />
    <glyph glyph-name="V" unicode="V" horiz-adv-x="1177" 
d="M1097.72 472.106c-17.4795 -79.9834 -33.5605 -160.268 -51.6768 -240.086c-17.2559 -76.1055 -32.6592 -155.942 -63.2051 -228.03c-26.6807 -62.9756 -70.8398 -123.939 -147.582 -111.962c-76.5195 11.9453 -122.354 76.3096 -157.789 139.101
c-82.9258 146.939 -108.74 320.043 -122.762 485.799c-7.72363 91.3691 -11.7158 182.961 -18.8408 274.362c-6.6416 85.1924 -8.5459 181.999 -40.6064 262.34c-28.915 72.4697 -107.415 133.236 -187.418 107.932c-78.3984 -24.7959 -134.784 -101.131 -168.94 -172.047
c-65.9365 -136.923 -54.0986 -341.317 108.289 -404.924c29.4629 -11.5381 -5.76953 -31.0674 -24.4072 -23.7959c-77.793 30.3477 -135.948 95.4189 -159.986 175.377c-26.1006 86.8477 -10.124 180.21 28.5088 260.817c36.4355 76.0293 94.1582 148.85 173.588 182.356
c74.6982 31.5137 158.159 17.709 219.085 -35.7852c61.3457 -53.8643 96.1387 -137.159 113.713 -214.845c21.5479 -95.2471 33.6719 -192.685 42.9619 -289.804c17.6641 -184.693 36.9834 -370.1 108.708 -543.025c17.3965 -41.9375 37.1426 -86.3516 63.6895 -123.398
c8.97852 -12.5254 23.8408 -36.5254 38.6709 -42.7598c22.5986 -9.50098 41.7207 17.7139 53.1699 34.0918c49.5908 70.9287 65.0957 167.812 84.7529 250.433c41.2305 173.27 70.8594 349.507 122.984 520.051c10.7803 35.2578 22.6045 70.2227 35.6074 104.735
c-146.978 -27.7754 -293.592 -67.5791 -408.61 -167.735c-16.3389 -14.2256 -73.7178 -1.08887 -52.0615 17.3457c133.65 113.776 304.952 155.758 474.127 184.788c14.6133 36.0469 30.6211 71.5146 48.501 106.091c36.7539 71.0693 80.5762 142.858 146.029 191.017
c60.123 44.2295 140.553 65.1025 213.621 44.3945c67.7129 -19.1982 125.531 -79.7988 109.332 -154.191c-16.5938 -76.2139 -88.6885 -120.335 -157.204 -144.232c-86.0078 -29.998 -178.357 -43.5547 -267.848 -58.8115
c-16.4854 -2.81445 -33.0605 -5.62891 -49.6797 -8.51953c-47.5723 -121.698 -78.8633 -249.579 -106.722 -377.078zM1390.36 1148.29c-63.9375 -50.0879 -105.462 -124.588 -140.803 -196.23c-11.2578 -22.8154 -21.6748 -45.9746 -31.5127 -69.3564
c90.0127 14.3018 181.503 27.2725 268.218 55.5c78.1758 25.458 189.774 106.276 129.53 200.836c-51.3672 80.6201 -160.992 59.7275 -225.433 9.25098z" />
    <glyph glyph-name="W" unicode="W" horiz-adv-x="1797" 
d="M2224.18 1058.71c-25.2412 -113.445 -170.513 -160.227 -269.81 -178.718c-52.4121 -9.76172 -105.32 -13.5312 -158.395 -14.9131c-28.8203 -78.3984 -46.917 -161.152 -61.2246 -242.823c-22.8213 -130.275 -36.4033 -262.193 -66.7773 -391.094
c-14.4668 -61.4092 -32.5957 -122.366 -56.8311 -180.675c-19.332 -46.5088 -45.458 -93.3486 -87.4844 -122.882c-110.682 -77.7803 -228.241 11.4941 -284.933 109.867c-35.6328 61.8359 -54.9268 130.568 -65.0322 200.848
c-35.9775 -103.392 -85.4727 -204.886 -171.271 -267.894c-57.041 -41.8867 -127.537 -55.2588 -195.117 -31.8643c-67.5605 23.3945 -116.312 76.0234 -150.372 137.159c-77.0293 138.254 -97.998 305.303 -128.817 458.157
c-16.2822 80.7539 -35.3281 160.565 -54.5967 240.619c-16.1865 67.2549 -35.2891 169.392 -112.427 192.519c-68.917 20.6631 -150.709 -49.1768 -191.863 -97.5703c-49.4893 -58.1934 -83.333 -136.42 -68.3057 -213.462c3.27344 -16.7529 -43.1143 -18.5742 -46.8584 0
c-29.3164 145.443 104.996 306.265 243.123 337.905c153.912 35.2578 232.884 -133.599 271.637 -253.011c50.916 -156.86 73.6611 -320.381 118.916 -478.629c30.2275 -105.703 125.404 -384.103 279.89 -262.035c112.338 88.7646 156.688 245.987 196.072 378.619
c-0.0126953 0.942383 -0.0449219 1.89746 -0.0517578 2.83984c-0.0449219 3.99902 1.44531 7.4375 3.97949 10.3477c0.00683594 0.0195312 0.0136719 0.0449219 0.0205078 0.0644531c2.73145 9.11816 16.8867 12.6973 29.6729 11.2773
c17.6699 1.13965 36.2695 -4.12598 39.2305 -16.0586c32.3662 -130.396 52.4688 -275.305 139.94 -382.574c18.4023 -22.5732 43.4971 -52.5391 73.7559 -58.9062c30.1504 -6.3418 58.7539 28.2471 74.5459 50.0625c41.0518 56.7041 63.377 130.085 81.6836 196.817
c60.2246 219.537 59.6455 457.234 138.107 671.677c-61.0205 -0.197266 -122.149 1.29883 -182.909 -0.770508c-268.402 -9.125 -542.815 -112.72 -676.325 -359.701c-9.29004 -17.1924 -61.002 -11.7285 -50.9414 8.00488c132.077 259.086 430.382 366.884 704.865 380.129
c71.8584 3.4707 144.277 0.701172 216.454 1.17285c8.57129 21.1787 17.9385 42.1279 28.3428 62.7656c50.3232 99.8066 127.365 191.265 234.259 231.77c47.9863 18.1855 106.919 25.1768 153.626 -0.503906c45.8789 -25.2227 63.2432 -78.9971 52.2207 -128.537z
M2127.17 986.746c43.7451 38.6074 74.0352 112.605 30.8564 163.75c-46.7832 55.4111 -134.644 10.2139 -181.286 -22.751c-50.0176 -35.3535 -90 -84.333 -121.297 -136.528c-18.6318 -31.0674 -34.417 -63.5615 -48.1006 -96.9727
c44.7773 1.59863 89.3887 5.28516 133.65 13.4551c65.1855 12.0283 135.593 34.3975 186.177 79.0469z" />
    <glyph glyph-name="X" unicode="X" horiz-adv-x="850" 
d="M1082.31 -190.407c-65.4785 -20.0645 -143.078 2.12402 -203.514 31.167c-8.55176 -5.02441 -16.7783 -10.1758 -24.5088 -15.2764c-53.5713 -35.3467 -97.2217 -82.2637 -132.988 -135.229c-10.5889 -15.6768 -61.7275 -10.3984 -50.4629 7.93359
c37.0596 60.2949 97.0684 122.883 166.667 164.922c-115.521 68.751 -207.343 179.644 -278.469 291.115c-54.2393 85.0078 -98.6279 175.944 -136.751 269.37c-50.3301 -85.7402 -101.315 -171.175 -157.771 -253.056
c-29.0615 -42.1533 -59.4092 -83.5176 -92.1963 -122.869c-27.4062 -32.8887 -56.9453 -58.3018 -101.442 -59.0654c-28.0684 -0.484375 -27.5967 25.3555 0.000976562 26.1455c32.6719 0.936523 60.1416 46.3311 77.8115 69.2227
c21.3701 27.6738 42.0908 55.8379 62.041 84.5498c38.2695 55.0674 73.9854 111.86 108.6 169.283c27.7246 46.0059 54.8125 92.5088 81.9893 138.986c-10.5762 27.7822 -20.6875 55.7236 -30.3789 83.748c-46.9229 135.644 -86.498 329.837 -239.054 384.166
c-29.998 10.6846 5.8457 29.9717 24.4072 23.8018c138.037 -45.8975 220.536 -171.009 269.975 -300.812c11.4424 -30.0488 22.8662 -60.1865 34.4551 -90.2861c67.8213 113.14 139.285 223.904 225.114 324.589c69.2412 81.2256 148.671 159.465 240.696 214.672
c66.166 39.6953 200.039 94.9404 248.465 1.0498c9.81934 -19.0391 -40.752 -24.8086 -49.501 -7.78125c-34.5566 67.2549 -137.846 3.05664 -181.031 -25.1455c-49.7627 -32.4941 -95.126 -72.209 -137.438 -113.815c-132.326 -130.135 -231.56 -287.645 -325.604 -446.701
c72.4766 -183.572 155.39 -362.923 292.517 -508.869c41.1602 -43.8096 86.6055 -85.0205 137.368 -117.521c49.3301 16.8105 100.851 21.3057 150.729 6.70508c23.3311 -6.83203 60.5049 -20.2168 64.166 -48.3867c3.29883 -25.4072 -23.5029 -40.3652 -43.8916 -46.6123z
M952.922 -125.887c17.377 -8.58984 35.3975 -15.8301 54.125 -20.9814c11.041 -3.03711 35.1357 -11.4297 46.1963 -8.07422c25.4707 7.71777 7.5332 23.4648 -9.18164 29.5264c-29.3486 10.6465 -60.709 8.36719 -91.1396 -0.470703z" />
    <glyph glyph-name="Y" unicode="Y" horiz-adv-x="1266" 
d="M1216.22 -267.137c-0.34375 -20.0967 -51.3408 -19.7021 -50.8379 -0.000976562c1.94238 76.2646 -43.5732 136.655 -105.938 171.932c-16.2881 -37.8369 -36.0342 -74.043 -60.7021 -107.192c-52.7881 -70.9355 -125.086 -123.22 -211.45 -144.729
c-75.3486 -18.7656 -165.381 -17.0205 -231.579 28.5332c-80.5635 55.4434 -12.1436 142.935 43.1406 185.661c68.8848 53.2461 152.263 87.708 238.646 98.6797c40.5811 5.15137 86.5107 4.59082 132.039 -2.49609c7.51367 21.7197 14.04 43.5293 19.7393 64.9883
c43.2295 162.826 59.8047 333.721 57.6465 501.871c-1.25488 97.4053 -13.3467 192.951 -26.9033 288.415c-17.4414 -112.382 -46.1211 -223.025 -83.0146 -330.772c-25.8203 -75.4121 -55.3086 -149.971 -94.2148 -219.684
c-34.5889 -61.9824 -77.3154 -126.805 -137.764 -166.277c-119.101 -77.7744 -256.985 -13.2256 -321.833 102.041c-79.9453 142.119 -69.6045 312.714 -74.9092 469.88c-1.52832 45.2803 -3.60449 90.5605 -8.41797 135.618
c-3.66113 34.2578 -7.4375 71.3428 -24.8975 101.837c-21.0264 36.7217 -69.9043 47.9668 -107.836 32.7295c-33.3857 -13.417 -56.9336 -41.7207 -71.0635 -73.8896c-6.97852 -15.874 -52.959 -11.4102 -45.1904 7.10059c59.1299 140.916 260.493 128.028 314.809 -10.1553
c58.7607 -149.474 35.6143 -320.368 59.5059 -476.541c16.8037 -109.797 79.4424 -374.423 243.733 -268.045c67.3311 43.5928 113.134 123.073 148.258 193.079c35.1943 70.1523 62.168 144.469 86.1357 219.098c51.0684 159.031 82.8232 323.863 86.5225 491.084
c0.0449219 1.8916 0.662109 3.53418 1.54102 5.0498c-0.292969 2.64258 -0.618164 5.27832 -0.898438 7.9209c-2.10742 19.7393 42.4854 16.8164 49.4453 3.81348c57.0537 -106.581 83.4092 -223.465 101.188 -342.298c17.0654 -114.121 20.3447 -231.26 12.6592 -346.297
c-6.81934 -102.016 -22.1904 -203.172 -46.7695 -302.418c-9.7168 -39.2178 -21.0898 -78.5635 -35.4805 -116.674c82.8809 -35.5889 146.424 -100.367 144.691 -201.861zM745.043 -305.929c109.313 39.791 174.831 138.688 215.342 244.066
c-71.6426 11.6211 -146.812 1.77637 -214.239 -23.9746c-41.708 -15.9258 -81.0029 -38.416 -115.547 -66.7266c-27.9033 -22.8662 -61.1045 -52.2979 -63.6387 -90.9365c-5.67383 -86.5234 124.245 -82.0215 178.083 -62.4287z" />
    <glyph glyph-name="Y" unicode="&#x178;" horiz-adv-x="1266" 
d="M1216.22 -267.137c-0.34375 -20.0967 -51.3408 -19.7021 -50.8379 -0.000976562c1.94238 76.2646 -43.5732 136.655 -105.938 171.932c-16.2881 -37.8369 -36.0342 -74.043 -60.7021 -107.192c-52.7881 -70.9355 -125.086 -123.22 -211.45 -144.729
c-75.3486 -18.7656 -165.381 -17.0205 -231.579 28.5332c-80.5635 55.4434 -12.1436 142.935 43.1406 185.661c68.8848 53.2461 152.263 87.708 238.646 98.6797c40.5811 5.15137 86.5107 4.59082 132.039 -2.49609c7.51367 21.7197 14.04 43.5293 19.7393 64.9883
c43.2295 162.826 59.8047 333.721 57.6465 501.871c-1.25488 97.4053 -13.3467 192.951 -26.9033 288.415c-17.4414 -112.382 -46.1211 -223.025 -83.0146 -330.772c-25.8203 -75.4121 -55.3086 -149.971 -94.2148 -219.684
c-34.5889 -61.9824 -77.3154 -126.805 -137.764 -166.277c-119.101 -77.7744 -256.985 -13.2256 -321.833 102.041c-79.9453 142.119 -69.6045 312.714 -74.9092 469.88c-1.52832 45.2803 -3.60449 90.5605 -8.41797 135.618
c-3.66113 34.2578 -7.4375 71.3428 -24.8975 101.837c-21.0264 36.7217 -69.9043 47.9668 -107.836 32.7295c-33.3857 -13.417 -56.9336 -41.7207 -71.0635 -73.8896c-6.97852 -15.874 -52.959 -11.4102 -45.1904 7.10059c59.1299 140.916 260.493 128.028 314.809 -10.1553
c58.7607 -149.474 35.6143 -320.368 59.5059 -476.541c16.8037 -109.797 79.4424 -374.423 243.733 -268.045c67.3311 43.5928 113.134 123.073 148.258 193.079c35.1943 70.1523 62.168 144.469 86.1357 219.098c51.0684 159.031 82.8232 323.863 86.5225 491.084
c0.0449219 1.8916 0.662109 3.53418 1.54102 5.0498c-0.292969 2.64258 -0.618164 5.27832 -0.898438 7.9209c-2.10742 19.7393 42.4854 16.8164 49.4453 3.81348c57.0537 -106.581 83.4092 -223.465 101.188 -342.298c17.0654 -114.121 20.3447 -231.26 12.6592 -346.297
c-6.81934 -102.016 -22.1904 -203.172 -46.7695 -302.418c-9.7168 -39.2178 -21.0898 -78.5635 -35.4805 -116.674c82.8809 -35.5889 146.424 -100.367 144.691 -201.861zM745.043 -305.929c109.313 39.791 174.831 138.688 215.342 244.066
c-71.6426 11.6211 -146.812 1.77637 -214.239 -23.9746c-41.708 -15.9258 -81.0029 -38.416 -115.547 -66.7266c-27.9033 -22.8662 -61.1045 -52.2979 -63.6387 -90.9365c-5.67383 -86.5234 124.245 -82.0215 178.083 -62.4287z" />
    <glyph glyph-name="Y" unicode="&#xdd;" horiz-adv-x="1266" 
d="M1216.22 -267.137c-0.34375 -20.0967 -51.3408 -19.7021 -50.8379 -0.000976562c1.94238 76.2646 -43.5732 136.655 -105.938 171.932c-16.2881 -37.8369 -36.0342 -74.043 -60.7021 -107.192c-52.7881 -70.9355 -125.086 -123.22 -211.45 -144.729
c-75.3486 -18.7656 -165.381 -17.0205 -231.579 28.5332c-80.5635 55.4434 -12.1436 142.935 43.1406 185.661c68.8848 53.2461 152.263 87.708 238.646 98.6797c40.5811 5.15137 86.5107 4.59082 132.039 -2.49609c7.51367 21.7197 14.04 43.5293 19.7393 64.9883
c43.2295 162.826 59.8047 333.721 57.6465 501.871c-1.25488 97.4053 -13.3467 192.951 -26.9033 288.415c-17.4414 -112.382 -46.1211 -223.025 -83.0146 -330.772c-25.8203 -75.4121 -55.3086 -149.971 -94.2148 -219.684
c-34.5889 -61.9824 -77.3154 -126.805 -137.764 -166.277c-119.101 -77.7744 -256.985 -13.2256 -321.833 102.041c-79.9453 142.119 -69.6045 312.714 -74.9092 469.88c-1.52832 45.2803 -3.60449 90.5605 -8.41797 135.618
c-3.66113 34.2578 -7.4375 71.3428 -24.8975 101.837c-21.0264 36.7217 -69.9043 47.9668 -107.836 32.7295c-33.3857 -13.417 -56.9336 -41.7207 -71.0635 -73.8896c-6.97852 -15.874 -52.959 -11.4102 -45.1904 7.10059c59.1299 140.916 260.493 128.028 314.809 -10.1553
c58.7607 -149.474 35.6143 -320.368 59.5059 -476.541c16.8037 -109.797 79.4424 -374.423 243.733 -268.045c67.3311 43.5928 113.134 123.073 148.258 193.079c35.1943 70.1523 62.168 144.469 86.1357 219.098c51.0684 159.031 82.8232 323.863 86.5225 491.084
c0.0449219 1.8916 0.662109 3.53418 1.54102 5.0498c-0.292969 2.64258 -0.618164 5.27832 -0.898438 7.9209c-2.10742 19.7393 42.4854 16.8164 49.4453 3.81348c57.0537 -106.581 83.4092 -223.465 101.188 -342.298c17.0654 -114.121 20.3447 -231.26 12.6592 -346.297
c-6.81934 -102.016 -22.1904 -203.172 -46.7695 -302.418c-9.7168 -39.2178 -21.0898 -78.5635 -35.4805 -116.674c82.8809 -35.5889 146.424 -100.367 144.691 -201.861zM745.043 -305.929c109.313 39.791 174.831 138.688 215.342 244.066
c-71.6426 11.6211 -146.812 1.77637 -214.239 -23.9746c-41.708 -15.9258 -81.0029 -38.416 -115.547 -66.7266c-27.9033 -22.8662 -61.1045 -52.2979 -63.6387 -90.9365c-5.67383 -86.5234 124.245 -82.0215 178.083 -62.4287z" />
    <glyph glyph-name="Z" unicode="Z" horiz-adv-x="1280" 
d="M1187.34 225.883c-57.9004 -115.795 -163.771 -202.714 -277.84 -259.965c-77.1123 -38.7148 -163.146 -67.3311 -250.49 -77.0098c-56.9971 -110.383 -100.953 -227.968 -92.5352 -354.518c1.29883 -19.4912 -49.5342 -20.166 -50.8398 0
c-8.02344 124.066 33.6592 241.912 89.166 351.015c-35.8184 -0.598633 -71.585 2.26074 -106.792 9.22656c-108.81 21.5225 -221.733 100.15 -191.5 225.745c28.9346 120.221 142.068 213.596 251.891 259.245c80.5947 33.5 239.047 65.7842 285.881 -38.3779
c27.1836 -60.4609 -11.6338 -131.995 -38.0527 -185.579c-32.2969 -65.5039 -70.1143 -128.047 -106.181 -191.494c-3.75684 -6.60938 -7.49512 -13.2441 -11.207 -19.9043c97.3486 20.2998 191.207 67.0068 267.759 128.722
c81.1748 65.4404 149.327 154.804 167.29 259.672c17.2881 100.934 -5.78809 211.698 -83.7529 282.43c-75.3291 68.3438 -182.439 84.0781 -280.456 79.4043c-125.665 -5.99219 -246.217 -46.8408 -361.809 -93.7451c-18.8994 -7.43066 -54.9912 -6.27832 -69.4775 10.3857
c-15.7412 18.1035 1.15234 32.2842 18.2178 39.6006c26.9414 11.5508 54.4434 22.4775 82.3467 32.6465c103.831 43.4141 204.153 94.502 300.947 152.288c54.8887 32.7744 109.529 67.1279 159.986 106.479c37.2891 29.0811 135.605 98.0742 71.2031 145.717
c-49.0439 36.2891 -122.488 34.4746 -180.618 33.2715c-56.3154 -1.16504 -112.363 -8.09277 -167.437 -19.8604c-112.446 -24.0312 -220.091 -70.0439 -316 -133.338c-47.5342 -31.373 -92.3047 -67.376 -132.803 -107.454
c-43.9238 -43.4717 -84.6064 -101.78 -60.4287 -165.852c7.18945 -19.0518 -39.084 -23.1465 -45.1904 -7.09961c-27.3809 71.9482 14.9004 137.02 64.6504 186.598c52.1445 51.9658 111.676 97.2588 174.722 135.178c110.759 66.6113 235.067 111.076 362.923 129.938
c65.625 9.68555 132.854 13.3662 199.053 8.4248c53.3545 -3.98633 128.9 -15.1172 162.521 -62.626c37.875 -53.5137 -17.9814 -117.979 -55.334 -152.912c-51.9854 -48.6299 -111.669 -89.3828 -171.085 -128.314c-28.7373 -18.8291 -58.0352 -36.7666 -87.7148 -54.0225
c42.084 4.02441 84.3271 5.0498 126.43 2.42676c136.732 -8.53223 282.901 -58.1865 353.773 -184.125c58.6328 -104.188 51.2715 -237.245 -1.2168 -342.216zM367.715 50.2686c32.8311 -103.754 171.341 -123.691 263.779 -114.872
c32.7803 59.2764 68.0635 117.133 100.348 176.683c30.0684 55.4688 77.8379 128.913 71.4512 194.627c-12.7803 131.473 -202.981 60.6006 -267.479 22.5732c-87.5166 -51.6035 -203.955 -165.686 -168.099 -279.011z" />
    <glyph glyph-name="bracketleft" unicode="[" horiz-adv-x="394" 
d="M330.894 -252.768c10.4111 -6.46973 19.7861 -21.1396 7.08301 -31.3213c-42.4531 -33.9971 -103.723 -48.1846 -155.549 -28.0186c-47.4766 18.4727 -65.5479 66.4658 -79.5947 111.65c-30.6797 98.6729 -39.8301 203.942 -46.5098 306.557
c-6.92773 106.441 -7.73047 213.029 -4.48926 319.617c3.19043 104.964 5.92871 210.959 29.043 313.803c9.34082 41.542 18.6309 75.6406 64.0576 86.1152c44.1084 10.1689 93.0059 9.71094 137.509 2.82129c32.5254 -5.03711 10.9268 -30.0303 -12.9902 -26.8525
c-20.5996 2.73828 -76.3867 10.9648 -93.2607 -7.87109c-12.2705 -13.6963 -11.1885 -47.8838 -13.5381 -65.8848c-6.38672 -48.999 -7.47559 -98.3545 -9.00391 -147.685c-3.21582 -103.716 -2.64941 -207.533 0.394531 -311.249
c3.09473 -105.416 10.0039 -211.246 25.5664 -315.618c7.21484 -48.3809 17.25 -95.9277 31.959 -142.608c6.7373 -21.3828 15.4932 -40.8486 23.8984 -61.4229c1.75098 -3.52148 4.10742 -6.60938 7.02344 -9.29688c10.9775 1.76367 23.1143 8.21387 33.4805 11.3018
c17.0273 5.0752 39.2188 5.72461 54.9209 -4.03711z" />
    <glyph glyph-name="backslash" unicode="\" horiz-adv-x="548" 
d="M496.273 -197.796c18.6123 -51.2021 -101.527 -59.7979 -119.554 -18.7842c-72.998 166.17 -122.201 342.317 -174.677 515.74c-25.9482 85.7529 -51.2471 171.729 -78.2842 257.144c-13.7734 43.5098 -27.5977 87.0264 -41.7783 130.402
c-13.0596 39.9316 -31.0293 81.8184 -31.9785 124.284c-0.515625 23.2295 55.3926 24.8154 62.8174 4.61719c28.3232 -35.5947 45.4717 -78.3789 62.9951 -120.087c17.1484 -40.7979 33.3096 -81.9014 48.7451 -123.374c31.4883 -84.5879 61.1426 -169.787 89.9502 -255.317
c58.0986 -172.512 119.571 -343.578 181.764 -514.625z" />
    <glyph glyph-name="bracketright" unicode="]" horiz-adv-x="394" 
d="M343.338 381.817c2.26074 -106.55 -0.205078 -213.193 -8.81445 -319.443c-8.19531 -101.207 -18.7402 -207.215 -57.2959 -302.093c-16.46 -40.4922 -43.5928 -70.5029 -88.0957 -78.8574c-46.8789 -8.80664 -96.1768 4.95996 -133.071 34.5059
c-12.5381 10.0479 -3.3623 24.8145 7.08691 31.3096c15.6133 9.69141 38.0908 9.04785 54.9209 4.03613c6.64746 -1.98047 24.4072 -11.1885 34.9326 -12.9336c-1.59863 2.77637 6.34863 12.251 7.75 14.6582c10.2197 17.5684 15.6641 38.4287 21.7256 57.6973
c15.2822 48.6045 25.5146 98.1318 32.8057 148.519c14.8369 102.487 21.6758 206.248 24.7129 309.709c3.10059 105.696 3.59082 211.488 0.209961 317.191c-1.52148 47.3564 -2.68652 94.6934 -8.8252 141.744c-2.4834 19.0332 -2.44531 55.9082 -17.6953 68.1211
c-19.1152 15.3145 -67.2227 8.53906 -89.1016 5.63574c-24.0439 -3.19043 -45.4199 21.834 -12.9893 26.8516c47.1016 7.28418 108.587 10.9141 153.587 -7.74316c45.3506 -18.8037 48.7256 -79.7861 56.1631 -122.176c18.2754 -104.085 19.7529 -211.31 21.9941 -316.732z
" />
    <glyph glyph-name="asciicircum" unicode="^" horiz-adv-x="318" 
d="M267.354 537.85c12.0918 -44.1719 -88.4404 -51.3154 -99.877 -15.6953c-7.66016 23.8662 -12.1367 48.0693 -16.1357 72.5977c-11.8057 -28.4248 -25.999 -56.124 -47.4961 -78.29c-9.15625 -9.44336 -45.9102 -13.2197 -50.0996 3.73047
c-10.9648 44.3252 4.25391 94.1777 18.4668 136.593c13.5693 40.4854 33.1113 81.1426 80.4033 84.957c104.072 8.38574 96.3037 -136.555 114.738 -203.893z" />
    <glyph glyph-name="underscore" unicode="_" horiz-adv-x="466" 
d="M414.761 -83.2549c8.20801 -21.0195 -18.5361 -32.9121 -35.1299 -35.2686c-54.4883 -7.73047 -109.015 -14.334 -163.681 -20.6504c-48.1143 -5.55859 -104.678 -17.4854 -152.04 -4.33008c-7.86426 2.19043 -20.377 13.8242 -9.9209 21.5732
c35.7354 26.4893 93.7256 28.3994 136.58 35.251c54.0098 8.63477 108.071 16.4668 162.323 23.4453c17.5811 2.2666 53.6729 0.960938 61.8682 -20.0205z" />
    <glyph glyph-name="grave" unicode="`" horiz-adv-x="204" 
d="M152.559 585.32c10.2773 -17.25 -29.4941 -19.4326 -37.708 -16.5166c-35.5889 12.6143 -46.917 43.5352 -55.1562 78.1875c-11.1055 46.6807 -10.4307 93.4766 -8.72461 141.094c1.21582 34.0537 86.8223 33.417 86.1602 0
c-0.738281 -37.2949 -1.45801 -74.7686 0.363281 -112.038c1.3623 -27.8906 0.34375 -66.0137 15.0654 -90.7266z" />
    <glyph glyph-name="a" unicode="a" horiz-adv-x="463" 
d="M448.803 170.893c4.03027 15.0527 49.5459 12.1885 46.0186 -3.5459c-18.9883 -84.8809 -97.1641 -219.557 -201.963 -151.334c-46.3818 30.1953 -61.1416 88.1855 -70.4512 139.757c-8.59668 -39.7783 -21.1152 -78.4111 -42.2305 -114.312
c-20.79 -35.3535 -51.8262 -53.3037 -93.4893 -47.7637c-46.4199 6.16992 -77.1885 42.3828 -94.54 83.6455c-36.1553 85.957 -18.0332 204.331 52.0869 268.58c34.6523 31.7549 82.5117 47.5977 129.364 40.1543c15.9639 -2.54102 29.3418 -8.16992 40.874 -16.0723
c16.5498 33.0928 104.627 30.2783 105.442 -8.9209c1.80859 -86.6445 -0.667969 -173.314 15.0088 -259.029c3.32422 -18.1602 7.28516 -36.0664 14.3086 -53.208c11.9268 -29.126 32.8633 -8.35449 46.5088 8.74219c26.1074 32.7109 42.3389 73.2412 53.0615 113.307z
M171.117 148.148c16.2754 56.7676 20.5938 114.688 30.3555 172.214c-6.87109 10.1377 -14.8691 19.5742 -25.9043 24.4199c-18.4854 8.125 -31.1699 -4.04395 -43.5615 -18.5625c-17.9375 -21.0195 -29.7939 -48.7637 -39.6445 -74.2979
c-21.5732 -55.9395 -25.2793 -122.729 -7.30371 -180.376c2.87793 -9.22656 10.3984 -38.1738 20.6504 -42.9111c14.8496 -6.86426 26.6553 20.0195 31.915 29.9785c14.8809 28.1699 24.7441 59.0146 33.4932 89.5352z" />
    <glyph glyph-name="a" unicode="&#xe5;" horiz-adv-x="463" 
d="M448.803 170.893c4.03027 15.0527 49.5459 12.1885 46.0186 -3.5459c-18.9883 -84.8809 -97.1641 -219.557 -201.963 -151.334c-46.3818 30.1953 -61.1416 88.1855 -70.4512 139.757c-8.59668 -39.7783 -21.1152 -78.4111 -42.2305 -114.312
c-20.79 -35.3535 -51.8262 -53.3037 -93.4893 -47.7637c-46.4199 6.16992 -77.1885 42.3828 -94.54 83.6455c-36.1553 85.957 -18.0332 204.331 52.0869 268.58c34.6523 31.7549 82.5117 47.5977 129.364 40.1543c15.9639 -2.54102 29.3418 -8.16992 40.874 -16.0723
c16.5498 33.0928 104.627 30.2783 105.442 -8.9209c1.80859 -86.6445 -0.667969 -173.314 15.0088 -259.029c3.32422 -18.1602 7.28516 -36.0664 14.3086 -53.208c11.9268 -29.126 32.8633 -8.35449 46.5088 8.74219c26.1074 32.7109 42.3389 73.2412 53.0615 113.307z
M171.117 148.148c16.2754 56.7676 20.5938 114.688 30.3555 172.214c-6.87109 10.1377 -14.8691 19.5742 -25.9043 24.4199c-18.4854 8.125 -31.1699 -4.04395 -43.5615 -18.5625c-17.9375 -21.0195 -29.7939 -48.7637 -39.6445 -74.2979
c-21.5732 -55.9395 -25.2793 -122.729 -7.30371 -180.376c2.87793 -9.22656 10.3984 -38.1738 20.6504 -42.9111c14.8496 -6.86426 26.6553 20.0195 31.915 29.9785c14.8809 28.1699 24.7441 59.0146 33.4932 89.5352z" />
    <glyph glyph-name="a" unicode="&#xe4;" horiz-adv-x="463" 
d="M448.803 170.893c4.03027 15.0527 49.5459 12.1885 46.0186 -3.5459c-18.9883 -84.8809 -97.1641 -219.557 -201.963 -151.334c-46.3818 30.1953 -61.1416 88.1855 -70.4512 139.757c-8.59668 -39.7783 -21.1152 -78.4111 -42.2305 -114.312
c-20.79 -35.3535 -51.8262 -53.3037 -93.4893 -47.7637c-46.4199 6.16992 -77.1885 42.3828 -94.54 83.6455c-36.1553 85.957 -18.0332 204.331 52.0869 268.58c34.6523 31.7549 82.5117 47.5977 129.364 40.1543c15.9639 -2.54102 29.3418 -8.16992 40.874 -16.0723
c16.5498 33.0928 104.627 30.2783 105.442 -8.9209c1.80859 -86.6445 -0.667969 -173.314 15.0088 -259.029c3.32422 -18.1602 7.28516 -36.0664 14.3086 -53.208c11.9268 -29.126 32.8633 -8.35449 46.5088 8.74219c26.1074 32.7109 42.3389 73.2412 53.0615 113.307z
M171.117 148.148c16.2754 56.7676 20.5938 114.688 30.3555 172.214c-6.87109 10.1377 -14.8691 19.5742 -25.9043 24.4199c-18.4854 8.125 -31.1699 -4.04395 -43.5615 -18.5625c-17.9375 -21.0195 -29.7939 -48.7637 -39.6445 -74.2979
c-21.5732 -55.9395 -25.2793 -122.729 -7.30371 -180.376c2.87793 -9.22656 10.3984 -38.1738 20.6504 -42.9111c14.8496 -6.86426 26.6553 20.0195 31.915 29.9785c14.8809 28.1699 24.7441 59.0146 33.4932 89.5352z" />
    <glyph glyph-name="a" unicode="&#xe3;" horiz-adv-x="463" 
d="M448.803 170.893c4.03027 15.0527 49.5459 12.1885 46.0186 -3.5459c-18.9883 -84.8809 -97.1641 -219.557 -201.963 -151.334c-46.3818 30.1953 -61.1416 88.1855 -70.4512 139.757c-8.59668 -39.7783 -21.1152 -78.4111 -42.2305 -114.312
c-20.79 -35.3535 -51.8262 -53.3037 -93.4893 -47.7637c-46.4199 6.16992 -77.1885 42.3828 -94.54 83.6455c-36.1553 85.957 -18.0332 204.331 52.0869 268.58c34.6523 31.7549 82.5117 47.5977 129.364 40.1543c15.9639 -2.54102 29.3418 -8.16992 40.874 -16.0723
c16.5498 33.0928 104.627 30.2783 105.442 -8.9209c1.80859 -86.6445 -0.667969 -173.314 15.0088 -259.029c3.32422 -18.1602 7.28516 -36.0664 14.3086 -53.208c11.9268 -29.126 32.8633 -8.35449 46.5088 8.74219c26.1074 32.7109 42.3389 73.2412 53.0615 113.307z
M171.117 148.148c16.2754 56.7676 20.5938 114.688 30.3555 172.214c-6.87109 10.1377 -14.8691 19.5742 -25.9043 24.4199c-18.4854 8.125 -31.1699 -4.04395 -43.5615 -18.5625c-17.9375 -21.0195 -29.7939 -48.7637 -39.6445 -74.2979
c-21.5732 -55.9395 -25.2793 -122.729 -7.30371 -180.376c2.87793 -9.22656 10.3984 -38.1738 20.6504 -42.9111c14.8496 -6.86426 26.6553 20.0195 31.915 29.9785c14.8809 28.1699 24.7441 59.0146 33.4932 89.5352z" />
    <glyph glyph-name="a" unicode="&#xe2;" horiz-adv-x="463" 
d="M448.803 170.893c4.03027 15.0527 49.5459 12.1885 46.0186 -3.5459c-18.9883 -84.8809 -97.1641 -219.557 -201.963 -151.334c-46.3818 30.1953 -61.1416 88.1855 -70.4512 139.757c-8.59668 -39.7783 -21.1152 -78.4111 -42.2305 -114.312
c-20.79 -35.3535 -51.8262 -53.3037 -93.4893 -47.7637c-46.4199 6.16992 -77.1885 42.3828 -94.54 83.6455c-36.1553 85.957 -18.0332 204.331 52.0869 268.58c34.6523 31.7549 82.5117 47.5977 129.364 40.1543c15.9639 -2.54102 29.3418 -8.16992 40.874 -16.0723
c16.5498 33.0928 104.627 30.2783 105.442 -8.9209c1.80859 -86.6445 -0.667969 -173.314 15.0088 -259.029c3.32422 -18.1602 7.28516 -36.0664 14.3086 -53.208c11.9268 -29.126 32.8633 -8.35449 46.5088 8.74219c26.1074 32.7109 42.3389 73.2412 53.0615 113.307z
M171.117 148.148c16.2754 56.7676 20.5938 114.688 30.3555 172.214c-6.87109 10.1377 -14.8691 19.5742 -25.9043 24.4199c-18.4854 8.125 -31.1699 -4.04395 -43.5615 -18.5625c-17.9375 -21.0195 -29.7939 -48.7637 -39.6445 -74.2979
c-21.5732 -55.9395 -25.2793 -122.729 -7.30371 -180.376c2.87793 -9.22656 10.3984 -38.1738 20.6504 -42.9111c14.8496 -6.86426 26.6553 20.0195 31.915 29.9785c14.8809 28.1699 24.7441 59.0146 33.4932 89.5352z" />
    <glyph glyph-name="a" unicode="&#xe1;" horiz-adv-x="463" 
d="M448.803 170.893c4.03027 15.0527 49.5459 12.1885 46.0186 -3.5459c-18.9883 -84.8809 -97.1641 -219.557 -201.963 -151.334c-46.3818 30.1953 -61.1416 88.1855 -70.4512 139.757c-8.59668 -39.7783 -21.1152 -78.4111 -42.2305 -114.312
c-20.79 -35.3535 -51.8262 -53.3037 -93.4893 -47.7637c-46.4199 6.16992 -77.1885 42.3828 -94.54 83.6455c-36.1553 85.957 -18.0332 204.331 52.0869 268.58c34.6523 31.7549 82.5117 47.5977 129.364 40.1543c15.9639 -2.54102 29.3418 -8.16992 40.874 -16.0723
c16.5498 33.0928 104.627 30.2783 105.442 -8.9209c1.80859 -86.6445 -0.667969 -173.314 15.0088 -259.029c3.32422 -18.1602 7.28516 -36.0664 14.3086 -53.208c11.9268 -29.126 32.8633 -8.35449 46.5088 8.74219c26.1074 32.7109 42.3389 73.2412 53.0615 113.307z
M171.117 148.148c16.2754 56.7676 20.5938 114.688 30.3555 172.214c-6.87109 10.1377 -14.8691 19.5742 -25.9043 24.4199c-18.4854 8.125 -31.1699 -4.04395 -43.5615 -18.5625c-17.9375 -21.0195 -29.7939 -48.7637 -39.6445 -74.2979
c-21.5732 -55.9395 -25.2793 -122.729 -7.30371 -180.376c2.87793 -9.22656 10.3984 -38.1738 20.6504 -42.9111c14.8496 -6.86426 26.6553 20.0195 31.915 29.9785c14.8809 28.1699 24.7441 59.0146 33.4932 89.5352z" />
    <glyph glyph-name="b" unicode="b" horiz-adv-x="534" 
d="M568.203 159.984c5.83301 -8.36035 1.07422 -16.5225 -8.74512 -19.0566c-38.5938 -9.93359 -77.4873 -18.1992 -116.775 -24.3438c-12.8623 -61.0146 -42.4268 -117.808 -91.8711 -149.238c-44.79 -28.4697 -110.848 -36.8428 -155.064 -2.3877
c-38.3838 29.9092 -36.4922 77.2402 -4.12598 110.575c37.4229 38.5498 94.9102 50.5596 146.105 56.418c2.91016 0.337891 5.80078 0.681641 8.7041 1.01953c2.23535 9.39844 4.1709 18.7969 5.5332 28.0742c7.71777 52.5078 7.87012 107.219 -1.58594 159.503
c-1.80859 10.0039 -4.60352 20.1416 -8.64062 29.2598c-14.5117 -31.8252 -30.2656 -63.001 -46.8213 -93.3682c-49.3301 -90.4971 -106.855 -178.479 -174.556 -256.418c-0.222656 -0.260742 -0.490234 -0.496094 -0.738281 -0.738281
c-0.00683594 -0.0957031 -0.00683594 -0.191406 -0.00683594 -0.287109c-0.922852 -28.126 -56.627 -22.7139 -67.5215 -5.20898c-51.1191 82.1299 -62.9629 185.878 -70.9541 280.756c-7.39941 87.8604 -5.29785 178.535 9.9082 265.498
c23.6553 135.268 97.4502 304.156 251.196 325.558c60.6201 8.4375 122.411 -9.68457 154.988 -64.2363c30.8574 -51.6729 29.4883 -119.208 23.7764 -176.994c-7.83203 -79.2324 -30.0742 -156.535 -60.2764 -230.597c42.084 -25.623 67.9492 -77.7422 79.8057 -123.048
c9.64062 -36.8301 12.3721 -80.5762 7.13184 -123.946c29.1514 4.85254 58.1689 10.6475 87.1162 18.1992c8.80664 2.29883 27.0371 4.15137 33.417 -4.99219zM295.533 24.4951c18.8096 23.0508 32.9834 51.0049 42.8281 80.1172
c-37.0918 -4.57227 -73.7441 -13.334 -100.615 -39.7275c-19.5547 -19.2051 -32.6533 -59.4736 1.89746 -72.6738c22.2871 -8.51367 42.4473 15.8174 55.8896 32.2842zM250.679 272.24c19.1797 35.5 37.3008 72.0557 53.5127 109.479
c-6.31055 0.649414 -13.3721 -0.00683594 -21.3125 -2.35645c-28.0303 -8.30371 -49.5781 -33.5576 -65.6562 -56.6338c-50.2979 -72.1709 -74.1641 -158.503 -89.8926 -244.587c46.2549 61.2188 87.0781 126.965 123.349 194.099zM315.723 409.213
c24.3945 60.6836 43.1924 123.552 52.5527 187.96c7.75586 53.3545 11.2832 113.114 -6.32324 164.928c-11.0605 32.5703 -32.5068 64.5996 -68.8408 71.209c-32.2773 5.87695 -61.1357 -12.6016 -82.3271 -35.1426c-87.5488 -93.127 -113.758 -239.5 -120.521 -362.159
c-4.0752 -73.8584 -1.73145 -148.576 5.79492 -222.147c1.375 -13.4355 3.14551 -26.833 5.09375 -40.2178c4.68652 16.5117 9.9082 32.8701 15.8242 49.0117c20.459 55.8438 49.8838 117.953 97.4121 155.962c27.916 22.3184 65.542 34.6846 101.334 30.5967z" />
    <glyph glyph-name="c" unicode="c" horiz-adv-x="320" 
d="M308.977 168.116c9.0166 14.9512 54.832 9.3916 45.1855 -7.10059c-42.3252 -72.374 -111.121 -164.934 -202.503 -171.129c-101.742 -6.89648 -168.863 74.8574 -176.695 170.652c-7.35449 89.9297 27.2158 204.114 110.6 250.127
c32.7168 18.0586 81.5186 31.3223 113.98 5.50195c33.959 -27.0049 27.8711 -96.5586 23.21 -133.777c-2.4834 -19.8545 -51.8838 -18.6699 -49.8457 0c2.2666 20.7588 10.1436 100.679 -16.0146 106.74c-21.0957 4.89062 -37.2441 -42.8477 -43.6377 -58.9707
c-22.166 -55.9336 -36.8564 -119.929 -33.7812 -180.269c1.60449 -31.4941 8.55176 -62.0273 22.0068 -90.5986c15.8232 -33.6016 37.1611 -49.0684 73.2852 -32.5381c57.1748 26.1582 102.773 89.2236 134.21 141.361z" />
    <glyph glyph-name="d" unicode="d" horiz-adv-x="582" 
d="M647.781 624.376c-12.8242 -129.753 -64.1768 -254.36 -126.096 -367.921c-46.3691 -85.0654 -100.1 -167.794 -162.592 -242.161c56.8311 7.06152 113.152 15.0654 170.455 3.32324c31.2773 -6.41211 10.9453 -31.0615 -12.7236 -26.3047
c-60.4482 12.1494 -120.17 -1.68066 -180.497 -7.74219c-16.7656 -9.0293 -49.3936 -2.73828 -57.4678 10.2324c-30.5391 49.0693 -47.0117 105.868 -57.0664 163.864c-8.60938 -40.4473 -21.1729 -79.7354 -42.6191 -116.209
c-20.79 -35.3535 -51.8262 -53.3037 -93.4893 -47.7637c-46.4199 6.16992 -77.1885 42.3828 -94.54 83.6455c-36.1494 85.9629 -18.0332 204.337 52.0869 268.586c34.6523 31.7549 82.5117 47.5977 129.364 40.1543c11.7041 -1.85938 21.9941 -5.41211 31.2148 -10.2646
c0.222656 55.1309 4.59082 110.396 14.0088 164.233c23.6553 135.268 97.4502 304.156 251.196 325.558c60.6201 8.4375 122.411 -9.68457 154.988 -64.2363c30.8574 -51.6729 29.4883 -119.208 23.7764 -176.994zM170.115 148.148
c16.2754 56.7676 20.6006 114.688 30.3555 172.214c-6.87109 10.1377 -14.8691 19.5742 -25.9043 24.4199c-18.4854 8.125 -31.1699 -4.04395 -43.5615 -18.5625c-17.9375 -21.0195 -29.7939 -48.7637 -39.6445 -74.2979
c-21.5732 -55.9395 -25.2793 -122.729 -7.30371 -180.376c2.87793 -9.22656 10.3984 -38.1738 20.6504 -42.9111c14.8496 -6.86426 26.6553 20.0195 31.915 29.9785c14.8809 28.1699 24.7441 59.0146 33.4932 89.5352zM343.635 64.625
c50.5781 65.0264 94.8623 135.497 133.819 207.623c54.6084 101.08 100.971 210.565 117.603 324.935c7.76172 53.3545 11.2891 113.114 -6.31738 164.928c-11.0605 32.5703 -32.5068 64.5996 -68.8408 71.209c-32.2773 5.87695 -61.1357 -12.6016 -82.3271 -35.1426
c-87.5488 -93.127 -113.758 -239.5 -120.521 -362.159c-4.06934 -73.8584 -1.73242 -148.576 5.79395 -222.147c5.10645 -49.9287 15.6445 -99.4053 20.79 -149.245z" />
    <glyph glyph-name="e" unicode="e" horiz-adv-x="296" 
d="M289.272 165.646c7.78809 10.3477 48.8076 7.53711 41.0137 -9.86523c-26.1709 -58.3467 -74.4951 -121.08 -135.396 -145.895c-26.7891 -10.9141 -53.1318 -20.4844 -82.582 -19.2363c-50.96 2.1582 -91.6113 32.1309 -113.141 77.7998
c-38.7598 82.2314 -30.3096 212.78 21.1094 288.064c23.2803 34.0859 61.9766 68 104.844 71.1074c38.8428 2.82129 75.9277 -14.8555 87.3066 -53.9268c22.9805 -78.9199 -51.877 -128.601 -119.66 -145.876c-2.19043 -34.4746 -3.59766 -69.707 1.15234 -103.799
c3.65527 -26.209 15.7471 -92.8398 50.5332 -95.6924c10.8252 -0.884766 24.7832 6.09375 34.4814 11.1055c50.8389 26.2598 77.5068 82.5879 110.338 126.213zM115.314 366.039c-12.6846 -33.6279 -17.416 -69.751 -20.2627 -105.479
c27.9414 10.1504 52.2402 27.2158 65.2051 56.7549c8.94629 20.3828 11.29 47.0508 -2.75684 65.7842c-19.9502 26.5977 -33.8887 4.94727 -42.1855 -17.0596z" />
    <glyph glyph-name="e" unicode="&#xeb;" horiz-adv-x="296" 
d="M289.272 165.646c7.78809 10.3477 48.8076 7.53711 41.0137 -9.86523c-26.1709 -58.3467 -74.4951 -121.08 -135.396 -145.895c-26.7891 -10.9141 -53.1318 -20.4844 -82.582 -19.2363c-50.96 2.1582 -91.6113 32.1309 -113.141 77.7998
c-38.7598 82.2314 -30.3096 212.78 21.1094 288.064c23.2803 34.0859 61.9766 68 104.844 71.1074c38.8428 2.82129 75.9277 -14.8555 87.3066 -53.9268c22.9805 -78.9199 -51.877 -128.601 -119.66 -145.876c-2.19043 -34.4746 -3.59766 -69.707 1.15234 -103.799
c3.65527 -26.209 15.7471 -92.8398 50.5332 -95.6924c10.8252 -0.884766 24.7832 6.09375 34.4814 11.1055c50.8389 26.2598 77.5068 82.5879 110.338 126.213zM115.314 366.039c-12.6846 -33.6279 -17.416 -69.751 -20.2627 -105.479
c27.9414 10.1504 52.2402 27.2158 65.2051 56.7549c8.94629 20.3828 11.29 47.0508 -2.75684 65.7842c-19.9502 26.5977 -33.8887 4.94727 -42.1855 -17.0596z" />
    <glyph glyph-name="e" unicode="&#xea;" horiz-adv-x="296" 
d="M289.272 165.646c7.78809 10.3477 48.8076 7.53711 41.0137 -9.86523c-26.1709 -58.3467 -74.4951 -121.08 -135.396 -145.895c-26.7891 -10.9141 -53.1318 -20.4844 -82.582 -19.2363c-50.96 2.1582 -91.6113 32.1309 -113.141 77.7998
c-38.7598 82.2314 -30.3096 212.78 21.1094 288.064c23.2803 34.0859 61.9766 68 104.844 71.1074c38.8428 2.82129 75.9277 -14.8555 87.3066 -53.9268c22.9805 -78.9199 -51.877 -128.601 -119.66 -145.876c-2.19043 -34.4746 -3.59766 -69.707 1.15234 -103.799
c3.65527 -26.209 15.7471 -92.8398 50.5332 -95.6924c10.8252 -0.884766 24.7832 6.09375 34.4814 11.1055c50.8389 26.2598 77.5068 82.5879 110.338 126.213zM115.314 366.039c-12.6846 -33.6279 -17.416 -69.751 -20.2627 -105.479
c27.9414 10.1504 52.2402 27.2158 65.2051 56.7549c8.94629 20.3828 11.29 47.0508 -2.75684 65.7842c-19.9502 26.5977 -33.8887 4.94727 -42.1855 -17.0596z" />
    <glyph glyph-name="e" unicode="&#xe9;" horiz-adv-x="296" 
d="M289.272 165.646c7.78809 10.3477 48.8076 7.53711 41.0137 -9.86523c-26.1709 -58.3467 -74.4951 -121.08 -135.396 -145.895c-26.7891 -10.9141 -53.1318 -20.4844 -82.582 -19.2363c-50.96 2.1582 -91.6113 32.1309 -113.141 77.7998
c-38.7598 82.2314 -30.3096 212.78 21.1094 288.064c23.2803 34.0859 61.9766 68 104.844 71.1074c38.8428 2.82129 75.9277 -14.8555 87.3066 -53.9268c22.9805 -78.9199 -51.877 -128.601 -119.66 -145.876c-2.19043 -34.4746 -3.59766 -69.707 1.15234 -103.799
c3.65527 -26.209 15.7471 -92.8398 50.5332 -95.6924c10.8252 -0.884766 24.7832 6.09375 34.4814 11.1055c50.8389 26.2598 77.5068 82.5879 110.338 126.213zM115.314 366.039c-12.6846 -33.6279 -17.416 -69.751 -20.2627 -105.479
c27.9414 10.1504 52.2402 27.2158 65.2051 56.7549c8.94629 20.3828 11.29 47.0508 -2.75684 65.7842c-19.9502 26.5977 -33.8887 4.94727 -42.1855 -17.0596z" />
    <glyph glyph-name="f" unicode="f" horiz-adv-x="296" 
d="M370.883 486.88c-62.6133 -119.947 -149.899 -226.68 -250.947 -316.399c49.2666 7.34863 99.0488 10.5771 148.996 9.04883c30.1826 -0.922852 30.3164 -28.8516 0 -28.4121c-57.1309 0.828125 -113.414 -3.24121 -169.404 -13.0986
c3.67383 -44.3701 6.58984 -88.6826 4.67285 -132.772c-1.21582 -27.9033 -57.2578 -23.5283 -68.0127 -5.24707c-31.4434 53.4307 -42.1602 117.559 -48.8906 178.611c-7.5459 68.4707 -10.1123 137.14 -7.00488 205.961c5.14551 113.917 22.5098 235.15 81.6777 334.733
c58.7861 98.9404 206.279 207.471 321.871 127.513c113.273 -78.3604 36.0791 -266.002 -12.958 -359.938zM94.2041 201.459c92.2988 86.0518 172.087 185.68 229.752 298.316c30.1885 58.9707 53.9971 122.087 62.1416 188.151
c6.67969 54.2139 -1.61133 140.489 -71.5977 149.493c-58.9453 7.58398 -109.104 -53.2266 -136.434 -97.291c-26.7188 -43.0771 -45.0898 -91.5732 -57.7998 -140.534c-26.0625 -100.424 -30.6533 -206.916 -30.2715 -310.148
c0.108398 -29.291 1.9043 -58.6328 4.20898 -87.9873z" />
    <glyph glyph-name="g" unicode="g" horiz-adv-x="409" 
d="M349.751 106.993c5.45703 -87.6758 1.51758 -177.271 -14.1914 -263.782c-24.5537 -135.229 -95.4697 -302.8 -244.364 -336.51c-57.2578 -12.958 -124.258 -4.43848 -163.368 43.2676c-37.4229 45.6436 -41.6699 109.963 -37.5566 166.482
c8.9209 122.628 61.8359 236.411 124.016 340.936c-6.27246 8.56445 -11.8438 17.9062 -16.6963 27.8271c-41.9688 85.791 -25.5215 206.4 40.9502 275.693c33.4238 34.8438 80.2324 53.832 128.709 49.3242c22.1084 -2.05664 39.7402 -9.04785 54.4688 -19.8662
c12.1748 16.9248 54.9844 11.8242 64.2744 -4.10156c48.292 -82.7979 57.8945 -185.049 63.7588 -279.271zM90.6035 265.551c-12.7412 -35.0479 -18.2041 -74.7236 -15.835 -113.458c43.8789 64.9629 89.8467 129.078 126.378 198.084
c-8.52637 11.5449 -18.9121 21.835 -30.915 22.6309c-15.4229 1.02539 -31.4756 -17.918 -39.7471 -28.5332c-17.8613 -22.9238 -30.0176 -51.5977 -39.8809 -78.7236zM191.602 244.742c-34.6719 -52.501 -71.7314 -103.671 -105.148 -156.49
c0.987305 -3.06934 1.99316 -6.12598 3.09473 -9.13184c2.52832 -6.87695 13.0098 -38.5117 22.752 -39.5811c9.31543 -1.02539 22.1338 24.1709 26.0498 31.2139c16.6963 30.0107 27.4258 63.3262 36.8496 96.2148c7.37988 25.7441 12.3145 51.7178 16.4023 77.7744z
M237.538 -54.0908c5.16406 71.4893 4.67383 143.825 -0.700195 215.296c-1.12109 14.8936 -2.71973 29.749 -4.50293 44.5986c-8.78125 -51.3291 -21.9111 -101.475 -48.8203 -147.487c-18.7334 -32.0352 -45.0889 -50.4375 -83.0781 -49.2852
c-20.0195 0.604492 -37.3584 6.4502 -52.3223 15.9512c-48.0117 -83.1357 -88.917 -172.021 -103.671 -266.931c-8.57129 -55.1631 -11.207 -119.954 14.2441 -171.258c34.9072 -70.3555 108.956 -59.8994 154.453 -7.48145c85.708 98.749 115.241 239.888 124.397 366.597z
" />
    <glyph glyph-name="h" unicode="h" horiz-adv-x="565" 
d="M550.657 155.96c6.78125 16.9951 55.4346 12.207 47.5771 -7.46875c-28.0879 -70.3818 -71.7383 -185.668 -164.043 -186.024c-103.913 -0.401367 -146.5 110.593 -157.204 195.868c-2.375 18.8926 -4.10059 37.8174 -5.40625 56.7607
c-43.9434 -75.832 -93.9033 -149.06 -151.231 -215.06c-0.222656 -0.260742 -0.490234 -0.496094 -0.738281 -0.738281c-0.00683594 -0.0957031 -0.00683594 -0.191406 -0.00683594 -0.287109c-0.922852 -28.126 -56.627 -22.7139 -67.5215 -5.20898
c-51.1191 82.1299 -62.9629 185.878 -70.9541 280.756c-7.39941 87.8604 -5.29785 178.535 9.9082 265.498c23.6553 135.268 97.4502 304.156 251.196 325.558c60.6201 8.4375 122.411 -9.68457 154.988 -64.2363c30.8574 -51.6729 29.4883 -119.208 23.7764 -176.994
c-9.11816 -92.3369 -37.8105 -182.038 -75.876 -267.033c15.1865 -30.3672 21.8467 -65.6885 27.3613 -98.3672c9.25879 -54.8379 16.416 -109.95 26.1016 -164.725c4.13281 -23.4014 9.47559 -46.0889 14.582 -69.248c2.31152 -10.4746 2.41992 -23.4395 13.875 -28.9922
c20.1221 -9.75488 41.0459 15.2891 52.2461 27.7314c33.7295 37.4795 52.9346 86.0137 71.3691 132.211zM268.054 305.332c-0.0703125 3.76953 -0.139648 7.53906 -0.19043 11.3154c-0.260742 18.25 4.58496 51.3359 -3.45117 68.2734
c-13.0986 27.6035 -47.2803 -29.1387 -54.8574 -42.2686c-45.5664 -78.9902 -70.1582 -174.033 -83.1104 -265.728c46.6299 61.5684 87.7334 127.747 124.245 195.327c5.90234 10.9209 11.6846 21.9619 17.3643 33.0801zM312.31 400.942
c26.0312 63.25 46.1855 128.888 55.9658 196.231c7.76172 53.3545 11.2891 113.114 -6.31738 164.928c-11.0605 32.5703 -32.5068 64.5996 -68.8408 71.209c-32.2773 5.87695 -61.1357 -12.6016 -82.3271 -35.1426c-87.5488 -93.127 -113.758 -239.5 -120.521 -362.159
c-4.0752 -73.8584 -1.73145 -148.576 5.79492 -222.147c1.05078 -10.2842 2.34961 -20.542 3.76953 -30.7939c12.5947 51.7812 29.877 102.334 53.0615 149.34c16.8682 34.1943 42.1348 75.5078 80.0537 89.0137c31.0166 11.0479 57.3789 -0.414062 79.3604 -20.4785z" />
    <glyph glyph-name="i" unicode="i" horiz-adv-x="214" 
d="M201.501 170.893c4.03027 15.0596 49.5479 12.1895 46.0205 -3.55176c-13.7666 -61.4922 -50.0303 -149.646 -119.38 -165.023c-51.457 -11.4111 -97.0811 13.9707 -119.852 59.7734c-24.0254 48.3242 -27.0693 107.053 -28.9609 160.051
c-1.73828 48.6992 -0.401367 96.8574 4.33008 145.309c4.12598 42.2236 107.402 42.4463 108.052 0c1.19727 -78.335 -6.87012 -156.205 -1.78223 -234.616c1.62988 -25.0762 0.375 -75.8584 17.9053 -96.4385c28.915 -33.9521 87.6562 112.032 93.667 134.497z
M12.7285 464.965c-28.043 19.9629 -48.7139 47.165 -61.3086 79.3916c-10.2578 26.2471 -21.9746 66.8408 -4.31738 92.2666c15.0908 21.7393 48.9473 21.332 66.3311 2.73828c7.88965 -8.43066 13.124 -19.873 16.792 -32.5762
c19.4404 24.2539 45.4463 39.6953 77.8252 27.3291c61.1934 -23.3691 -27.4375 -137.961 -45.623 -169.354c-8.08691 -13.9512 -44.5479 -11.5508 -49.6992 0.204102z" />
    <glyph glyph-name="i" unicode="&#xef;" horiz-adv-x="214" 
d="M201.501 170.893c4.03027 15.0596 49.5479 12.1895 46.0205 -3.55176c-13.7666 -61.4922 -50.0303 -149.646 -119.38 -165.023c-51.457 -11.4111 -97.0811 13.9707 -119.852 59.7734c-24.0254 48.3242 -27.0693 107.053 -28.9609 160.051
c-1.73828 48.6992 -0.401367 96.8574 4.33008 145.309c4.12598 42.2236 107.402 42.4463 108.052 0c1.19727 -78.335 -6.87012 -156.205 -1.78223 -234.616c1.62988 -25.0762 0.375 -75.8584 17.9053 -96.4385c28.915 -33.9521 87.6562 112.032 93.667 134.497z
M12.7285 464.965c-28.043 19.9629 -48.7139 47.165 -61.3086 79.3916c-10.2578 26.2471 -21.9746 66.8408 -4.31738 92.2666c15.0908 21.7393 48.9473 21.332 66.3311 2.73828c7.88965 -8.43066 13.124 -19.873 16.792 -32.5762
c19.4404 24.2539 45.4463 39.6953 77.8252 27.3291c61.1934 -23.3691 -27.4375 -137.961 -45.623 -169.354c-8.08691 -13.9512 -44.5479 -11.5508 -49.6992 0.204102z" />
    <glyph glyph-name="i" unicode="&#xee;" horiz-adv-x="214" 
d="M201.501 170.893c4.03027 15.0596 49.5479 12.1895 46.0205 -3.55176c-13.7666 -61.4922 -50.0303 -149.646 -119.38 -165.023c-51.457 -11.4111 -97.0811 13.9707 -119.852 59.7734c-24.0254 48.3242 -27.0693 107.053 -28.9609 160.051
c-1.73828 48.6992 -0.401367 96.8574 4.33008 145.309c4.12598 42.2236 107.402 42.4463 108.052 0c1.19727 -78.335 -6.87012 -156.205 -1.78223 -234.616c1.62988 -25.0762 0.375 -75.8584 17.9053 -96.4385c28.915 -33.9521 87.6562 112.032 93.667 134.497z
M12.7285 464.965c-28.043 19.9629 -48.7139 47.165 -61.3086 79.3916c-10.2578 26.2471 -21.9746 66.8408 -4.31738 92.2666c15.0908 21.7393 48.9473 21.332 66.3311 2.73828c7.88965 -8.43066 13.124 -19.873 16.792 -32.5762
c19.4404 24.2539 45.4463 39.6953 77.8252 27.3291c61.1934 -23.3691 -27.4375 -137.961 -45.623 -169.354c-8.08691 -13.9512 -44.5479 -11.5508 -49.6992 0.204102z" />
    <glyph glyph-name="i" unicode="&#xed;" horiz-adv-x="214" 
d="M201.501 170.893c4.03027 15.0596 49.5479 12.1895 46.0205 -3.55176c-13.7666 -61.4922 -50.0303 -149.646 -119.38 -165.023c-51.457 -11.4111 -97.0811 13.9707 -119.852 59.7734c-24.0254 48.3242 -27.0693 107.053 -28.9609 160.051
c-1.73828 48.6992 -0.401367 96.8574 4.33008 145.309c4.12598 42.2236 107.402 42.4463 108.052 0c1.19727 -78.335 -6.87012 -156.205 -1.78223 -234.616c1.62988 -25.0762 0.375 -75.8584 17.9053 -96.4385c28.915 -33.9521 87.6562 112.032 93.667 134.497z
M12.7285 464.965c-28.043 19.9629 -48.7139 47.165 -61.3086 79.3916c-10.2578 26.2471 -21.9746 66.8408 -4.31738 92.2666c15.0908 21.7393 48.9473 21.332 66.3311 2.73828c7.88965 -8.43066 13.124 -19.873 16.792 -32.5762
c19.4404 24.2539 45.4463 39.6953 77.8252 27.3291c61.1934 -23.3691 -27.4375 -137.961 -45.623 -169.354c-8.08691 -13.9512 -44.5479 -11.5508 -49.6992 0.204102z" />
    <glyph glyph-name="j" unicode="j" horiz-adv-x="150" 
d="M110.758 106.993c5.45703 -87.6758 1.51562 -177.271 -14.1992 -263.795c-24.5537 -135.229 -95.4697 -302.8 -244.364 -336.51c-57.2578 -12.958 -124.265 -4.43848 -163.368 43.2676c-37.4229 45.6436 -41.6699 109.963 -37.5566 166.482
c9.5957 131.88 70.0566 253.54 138.216 364.438c60.7471 98.8447 135.649 191.067 186.177 295.854c0.853516 1.77051 2.22852 3.23535 3.85254 4.53418c1.78906 27.3359 56.8057 23.3057 67.4844 4.99902c48.292 -82.7979 57.8945 -185.049 63.7588 -279.271z
M-1.45898 -54.0918c5.16406 71.4893 4.6748 143.826 -0.706055 215.297c-3.29199 43.752 -10.5762 87.2363 -15.0977 130.829c-43.8154 -71.8457 -95.2852 -139.636 -139.648 -210.68c-61.8232 -99.0039 -119.501 -206.598 -137.643 -323.304
c-8.57129 -55.1631 -11.207 -119.954 14.2441 -171.258c34.9072 -70.3555 108.956 -59.8994 154.453 -7.48145c85.708 98.749 115.241 239.888 124.397 366.597zM22.6689 453.11c-4.18359 -11.9395 -41.5625 -14.5938 -50.0381 -0.776367
c-18.5234 30.2334 -110.746 144.335 -49.3809 167.959c31.9785 12.3154 58.1494 -2.36816 78.0479 -25.8838c3.38086 13.0088 8.41797 24.8018 16.3076 33.6016c16.9893 18.9434 51.1328 19.2109 66.3965 -2.15918c18.1289 -25.3818 7.40625 -65.6123 -2.31738 -92.4072
c-11.7676 -32.418 -31.6855 -59.7412 -59.0156 -80.334z" />
    <glyph glyph-name="k" unicode="k" horiz-adv-x="519" 
d="M507.045 140.016c9.86328 15.085 56.4775 8.55273 46.1426 -7.24512c-47.0254 -71.9033 -110.142 -148.933 -206.382 -134.676c-44.9551 6.6543 -87.0137 32.7803 -121.514 61.3643c-11.627 9.62793 -22.5791 20.542 -33.3467 31.5771
c-22.5225 -31.4688 -46.3506 -61.9375 -71.5986 -91.0059c-0.222656 -0.260742 -0.490234 -0.496094 -0.738281 -0.738281c-0.00683594 -0.0957031 -0.00683594 -0.191406 -0.00683594 -0.287109c-0.922852 -28.126 -56.627 -22.7139 -67.5215 -5.20898
c-51.1191 82.1299 -62.9629 185.878 -70.9541 280.756c-7.39941 87.8604 -5.29785 178.535 9.9082 265.498c23.6553 135.268 97.4502 304.156 251.196 325.558c60.6201 8.4375 122.411 -9.68457 154.988 -64.2363c30.8574 -51.6729 29.4883 -119.208 23.7764 -176.994
c-7.61523 -77.0615 -28.8828 -152.276 -57.8174 -224.473c2.71289 -0.942383 5.43848 -1.82129 8.11328 -2.95508c29.291 -12.3916 53.5391 -38.8301 43.7969 -72.4766c-10.3535 -35.7734 -46.7129 -61.6201 -77.959 -78.1699
c-20.2686 -10.7354 -41.377 -19.4336 -62.9883 -26.8643c-16.0078 -27.8076 -32.9014 -55.2266 -50.5967 -82.1299c25.7256 -19.1348 49.6426 -41.0459 70.5352 -65.1025c34.3027 -39.4922 75.6162 -61.2627 125.176 -31.7803c38.543 22.9238 63.8418 62.9697 87.79 99.5898
zM250.675 272.247c18.8291 34.8564 36.6318 70.7246 52.6084 107.428c-46.8467 -5.27832 -97.3164 -44.7324 -125.486 -73.4824c-27.4824 -28.0557 -48.5215 -61.0596 -63.04 -97.0557c39.2627 8.88965 78.6211 17.4414 117.101 29.1455
c6.40625 11.2705 12.6787 22.5986 18.8174 33.9648zM338.451 288.904c26.3682 22.3945 44.0947 61.168 12.3525 81.2959c-15.8359 -36.499 -33.4873 -72.1387 -52.1631 -106.785c14.1934 6.99121 27.7119 15.2119 39.8105 25.4893zM90.2656 436.017
c-3.19043 -57.8438 -2.40137 -116.208 1.68066 -174.147c21.5801 36.1172 50.4258 67.7578 85.1553 92.916c38.3145 27.75 88.5039 51.4629 137.783 52.4307c24.7832 61.3076 43.918 124.838 53.3867 189.966c7.76172 53.3545 11.2891 113.114 -6.31738 164.928
c-11.0605 32.5703 -32.5068 64.5996 -68.8408 71.209c-32.2773 5.87695 -61.1357 -12.6016 -82.3271 -35.1426c-87.5488 -93.127 -113.758 -239.5 -120.521 -362.159zM116.843 64.626c15.0781 19.3828 29.584 39.25 43.5547 59.5186
c-14.6963 17.3076 -34.5508 42.3008 -52.5137 42.25c-2.06348 -0.00683594 -3.94238 0.139648 -5.70605 0.375c5.11328 -34.0537 11.1436 -68.0127 14.665 -102.144zM186.409 163.172c7.99121 12.4355 15.8301 24.9609 23.4453 37.6074
c-20.873 -5.21484 -41.918 -9.9209 -62.8799 -14.6709c13.8047 -5.82031 26.7881 -14.2832 39.4346 -22.9365z" />
    <glyph glyph-name="l" unicode="l" horiz-adv-x="355" 
d="M420.999 624.376c-12.8184 -129.753 -64.1709 -254.362 -126.09 -367.929c-46.3691 -85.0654 -100.1 -167.794 -162.592 -242.161c56.8311 7.06152 113.152 15.0654 170.455 3.32324c31.2773 -6.41211 10.9453 -31.0615 -12.7236 -26.3047
c-60.4482 12.1494 -120.17 -1.68066 -180.497 -7.74219c-16.7656 -9.0293 -49.3936 -2.73828 -57.4678 10.2324c-51.1191 82.1299 -62.9629 185.878 -70.9541 280.756c-7.39941 87.8604 -5.29785 178.535 9.9082 265.498c23.6553 135.268 97.4502 304.156 251.196 325.558
c60.6201 8.4375 122.411 -9.68457 154.988 -64.2363c30.8574 -51.6729 29.4883 -119.208 23.7764 -176.994zM116.857 64.6221c50.5713 65.0264 94.8604 135.497 133.824 207.623c54.6084 101.08 100.971 210.565 117.603 324.935
c7.75586 53.3545 11.2832 113.114 -6.32324 164.928c-11.0605 32.5703 -32.5068 64.5996 -68.8408 71.209c-32.2773 5.87695 -61.1357 -12.6016 -82.3271 -35.1426c-87.5488 -93.127 -113.758 -239.5 -120.521 -362.159
c-4.0752 -73.8584 -1.73145 -148.576 5.79492 -222.147c5.10645 -49.9287 15.6445 -99.4053 20.79 -149.245z" />
    <glyph glyph-name="m" unicode="m" horiz-adv-x="687" 
d="M673.92 139.742c7.91504 16.4541 55.9473 11.1318 47.1152 -7.3916c-27.8906 -58.4736 -75.1514 -147.595 -145.845 -159.731c-31.9531 -5.48926 -70.1143 6.64746 -94.9541 27.2783c-28.4443 23.6172 -39.1162 65.835 -43.2744 100.99
c-5.10645 43.166 -2.19629 87.0576 0.204102 130.339c2.03125 36.6201 11.0283 82.9639 1.71875 118.992c-14.9189 57.7227 -70.3936 -55.7998 -78.1621 -74.2656c-11.1875 -26.585 -20.4395 -53.8447 -27.8193 -81.6328
c0.573242 -27.043 -1.41992 -50.2598 -5.58398 -64.5234c-7.50781 -25.7061 -81.0029 -27.0811 -87.4023 0c-12.8438 54.3545 -3.36914 117.77 -1.0957 173.314c0.445312 10.8506 7.43652 62.2822 -3.63086 68.083c-12.5254 6.57129 -43.7207 -43.9619 -48.4072 -52.0107
c-55.2715 -94.916 -69.6367 -212.679 -86.6572 -319.355c-0.0830078 -3.25391 -0.166016 -6.50098 -0.395508 -9.74219c-1.7832 -25.4453 -55.1885 -27.0439 -67.7646 -10.4629c-44.4902 58.6523 -48.1387 138.024 -49.4883 209.018
c-1.50879 79.1494 0.146484 158.465 10.9395 236.959c5.80078 42.1855 110.51 42.2686 108.549 0c-3.46387 -74.6475 -8.98438 -149.199 -9.90137 -223.949c1.7832 6.55273 3.54688 13.1113 5.48242 19.625c17.084 57.5693 40.1152 126.066 90.3623 163.629
c69.9043 52.2529 111.014 -7.3291 130.702 -83.6963c11.9971 25.8018 26.8271 49.5527 45.4971 68.999c21.2871 22.1719 50.9414 34.6973 81.665 26.7949c29.8965 -7.69238 49.1973 -40.1484 62.4551 -65.7461c40.3965 -78.0166 26.6104 -173.709 40.7148 -257.972
c3.0752 -18.3838 9.08008 -35.9014 12.5508 -54.0303c0.750977 -3.93555 -0.929688 -10.8506 1.6875 -13.8623c7.5459 -8.69141 28.1514 13.7158 33.8564 19.2939c32.7803 32.042 57.1553 74.0615 76.8818 115.057z" />
    <glyph glyph-name="n" unicode="n" horiz-adv-x="497" 
d="M483.865 134.412c7.69824 16.5117 55.7354 11.3486 47.0947 -7.39746c-29.4824 -64.0332 -84.7217 -160.643 -169.603 -141.119c-90.1406 20.7334 -108.275 120.361 -115.974 198.912c-4.40625 44.9297 -5.25293 90.0889 -9.52539 135.006
c-0.949219 9.95898 -0.49707 21.2676 -2.29297 31.0605c-3.70605 20.2109 -6.63477 24.3242 -23.8145 8.36035c-16.6318 -15.4609 -26.9473 -40.7471 -36.1934 -61.0029c-41.7139 -91.375 -65.0576 -189.513 -83.415 -287.867
c-0.509766 -2.73828 -1.96777 -5.01172 -3.9668 -6.91602c-2.21582 -6.20801 -5.03027 -12.3018 -8.7041 -18.249c-8.56445 -13.8564 -38.4541 -16.0723 -49.1895 -3.66211c-41.8164 48.3242 -40.3584 128.028 -44.1094 188.808
c-4.17676 67.6367 -8.72363 139.813 5.35547 206.508c8.2207 38.9062 98.4814 41.918 103.079 0c5.50195 -50.1582 3.22852 -101.539 1.81445 -152.429c8.1123 23.8467 17.1221 47.4004 27.2656 70.5342c22.4268 51.1514 80.9326 148.289 147.939 89.9873
c67.2041 -58.4678 72.2852 -162.591 87.7012 -243.523c4.57227 -24.0059 10.9717 -47.4893 17.5684 -70.9854c2.48926 -8.87012 4.99805 -17.6826 7.66602 -26.4893c0.573242 -1.88477 4.99902 -21.3447 6.14551 -22.4463c23.3184 -22.4775 87.7393 97.0049 95.1572 112.911
z" />
    <glyph glyph-name="o" unicode="o" horiz-adv-x="322" 
d="M323.375 168.409c18.4473 7.08105 53.3223 -11.9814 24.1582 -23.5518c-31.0928 -12.3281 -66.1846 -21.0459 -102.175 -24.7578c-7.06152 -30.4814 -18.791 -60.0723 -36.5439 -83.1426c-33.3857 -43.3955 -93.1455 -59.6523 -145.22 -44.6562
c-96.6924 27.8389 -98.8701 143.724 -64.0518 227.675c-48.1709 81.8809 0.146484 219.135 106.562 214.365c113.936 -5.10645 150.11 -153.683 147.824 -245.739c-0.305664 -12.2197 -1.29297 -25.0566 -3.04395 -38.0654c25.7441 3.24707 50.5781 9.46777 72.4893 17.873z
M141.075 47.4834c24.293 18.4404 40.2754 43.1855 49.9668 71.0186c-36.2314 1.66211 -71.7881 9.09277 -103.588 23.7129c-1.91016 -9.57715 -3.19043 -19.3643 -3.50879 -29.4697c-1.0957 -34.8496 10.4365 -100.723 57.1299 -65.2617zM198.95 148.303
c10.9141 58.168 -0.0380859 124.128 -18.1729 173.885c-16.5176 45.3125 -64.167 118.216 -116.172 65.1484c-27.7373 -28.3037 -39.3457 -73.0742 -33.3916 -112.783l0.0761719 0.0966797c14.5566 17.8291 96.2471 21.1973 90.4775 -13.9707
c-4.78809 -29.1572 -15.9443 -56.1182 -24.9287 -83.7725c29.4697 -18.2559 65.3574 -27.0049 102.111 -28.6035z" />
    <glyph glyph-name="o" unicode="&#xf6;" horiz-adv-x="322" 
d="M323.375 168.409c18.4473 7.08105 53.3223 -11.9814 24.1582 -23.5518c-31.0928 -12.3281 -66.1846 -21.0459 -102.175 -24.7578c-7.06152 -30.4814 -18.791 -60.0723 -36.5439 -83.1426c-33.3857 -43.3955 -93.1455 -59.6523 -145.22 -44.6562
c-96.6924 27.8389 -98.8701 143.724 -64.0518 227.675c-48.1709 81.8809 0.146484 219.135 106.562 214.365c113.936 -5.10645 150.11 -153.683 147.824 -245.739c-0.305664 -12.2197 -1.29297 -25.0566 -3.04395 -38.0654c25.7441 3.24707 50.5781 9.46777 72.4893 17.873z
M141.075 47.4834c24.293 18.4404 40.2754 43.1855 49.9668 71.0186c-36.2314 1.66211 -71.7881 9.09277 -103.588 23.7129c-1.91016 -9.57715 -3.19043 -19.3643 -3.50879 -29.4697c-1.0957 -34.8496 10.4365 -100.723 57.1299 -65.2617zM198.95 148.303
c10.9141 58.168 -0.0380859 124.128 -18.1729 173.885c-16.5176 45.3125 -64.167 118.216 -116.172 65.1484c-27.7373 -28.3037 -39.3457 -73.0742 -33.3916 -112.783l0.0761719 0.0966797c14.5566 17.8291 96.2471 21.1973 90.4775 -13.9707
c-4.78809 -29.1572 -15.9443 -56.1182 -24.9287 -83.7725c29.4697 -18.2559 65.3574 -27.0049 102.111 -28.6035z" />
    <glyph glyph-name="o" unicode="&#xf5;" horiz-adv-x="322" 
d="M323.375 168.409c18.4473 7.08105 53.3223 -11.9814 24.1582 -23.5518c-31.0928 -12.3281 -66.1846 -21.0459 -102.175 -24.7578c-7.06152 -30.4814 -18.791 -60.0723 -36.5439 -83.1426c-33.3857 -43.3955 -93.1455 -59.6523 -145.22 -44.6562
c-96.6924 27.8389 -98.8701 143.724 -64.0518 227.675c-48.1709 81.8809 0.146484 219.135 106.562 214.365c113.936 -5.10645 150.11 -153.683 147.824 -245.739c-0.305664 -12.2197 -1.29297 -25.0566 -3.04395 -38.0654c25.7441 3.24707 50.5781 9.46777 72.4893 17.873z
M141.075 47.4834c24.293 18.4404 40.2754 43.1855 49.9668 71.0186c-36.2314 1.66211 -71.7881 9.09277 -103.588 23.7129c-1.91016 -9.57715 -3.19043 -19.3643 -3.50879 -29.4697c-1.0957 -34.8496 10.4365 -100.723 57.1299 -65.2617zM198.95 148.303
c10.9141 58.168 -0.0380859 124.128 -18.1729 173.885c-16.5176 45.3125 -64.167 118.216 -116.172 65.1484c-27.7373 -28.3037 -39.3457 -73.0742 -33.3916 -112.783l0.0761719 0.0966797c14.5566 17.8291 96.2471 21.1973 90.4775 -13.9707
c-4.78809 -29.1572 -15.9443 -56.1182 -24.9287 -83.7725c29.4697 -18.2559 65.3574 -27.0049 102.111 -28.6035z" />
    <glyph glyph-name="o" unicode="&#xf4;" horiz-adv-x="322" 
d="M323.375 168.409c18.4473 7.08105 53.3223 -11.9814 24.1582 -23.5518c-31.0928 -12.3281 -66.1846 -21.0459 -102.175 -24.7578c-7.06152 -30.4814 -18.791 -60.0723 -36.5439 -83.1426c-33.3857 -43.3955 -93.1455 -59.6523 -145.22 -44.6562
c-96.6924 27.8389 -98.8701 143.724 -64.0518 227.675c-48.1709 81.8809 0.146484 219.135 106.562 214.365c113.936 -5.10645 150.11 -153.683 147.824 -245.739c-0.305664 -12.2197 -1.29297 -25.0566 -3.04395 -38.0654c25.7441 3.24707 50.5781 9.46777 72.4893 17.873z
M141.075 47.4834c24.293 18.4404 40.2754 43.1855 49.9668 71.0186c-36.2314 1.66211 -71.7881 9.09277 -103.588 23.7129c-1.91016 -9.57715 -3.19043 -19.3643 -3.50879 -29.4697c-1.0957 -34.8496 10.4365 -100.723 57.1299 -65.2617zM198.95 148.303
c10.9141 58.168 -0.0380859 124.128 -18.1729 173.885c-16.5176 45.3125 -64.167 118.216 -116.172 65.1484c-27.7373 -28.3037 -39.3457 -73.0742 -33.3916 -112.783l0.0761719 0.0966797c14.5566 17.8291 96.2471 21.1973 90.4775 -13.9707
c-4.78809 -29.1572 -15.9443 -56.1182 -24.9287 -83.7725c29.4697 -18.2559 65.3574 -27.0049 102.111 -28.6035z" />
    <glyph glyph-name="o" unicode="&#xf3;" horiz-adv-x="322" 
d="M323.375 168.409c18.4473 7.08105 53.3223 -11.9814 24.1582 -23.5518c-31.0928 -12.3281 -66.1846 -21.0459 -102.175 -24.7578c-7.06152 -30.4814 -18.791 -60.0723 -36.5439 -83.1426c-33.3857 -43.3955 -93.1455 -59.6523 -145.22 -44.6562
c-96.6924 27.8389 -98.8701 143.724 -64.0518 227.675c-48.1709 81.8809 0.146484 219.135 106.562 214.365c113.936 -5.10645 150.11 -153.683 147.824 -245.739c-0.305664 -12.2197 -1.29297 -25.0566 -3.04395 -38.0654c25.7441 3.24707 50.5781 9.46777 72.4893 17.873z
M141.075 47.4834c24.293 18.4404 40.2754 43.1855 49.9668 71.0186c-36.2314 1.66211 -71.7881 9.09277 -103.588 23.7129c-1.91016 -9.57715 -3.19043 -19.3643 -3.50879 -29.4697c-1.0957 -34.8496 10.4365 -100.723 57.1299 -65.2617zM198.95 148.303
c10.9141 58.168 -0.0380859 124.128 -18.1729 173.885c-16.5176 45.3125 -64.167 118.216 -116.172 65.1484c-27.7373 -28.3037 -39.3457 -73.0742 -33.3916 -112.783l0.0761719 0.0966797c14.5566 17.8291 96.2471 21.1973 90.4775 -13.9707
c-4.78809 -29.1572 -15.9443 -56.1182 -24.9287 -83.7725c29.4697 -18.2559 65.3574 -27.0049 102.111 -28.6035z" />
    <glyph glyph-name="p" unicode="p" horiz-adv-x="473" 
d="M502.731 171.567c7.45605 -5.57812 10.2559 -14.8828 0.00390625 -19.8877c-41.2559 -20.1475 -85.1738 -30.7051 -130.894 -29.623c-6.93457 -17.377 -16.5049 -33.5439 -29.7178 -47.4258c-34.2324 -35.9707 -90.4971 -54.2393 -139.057 -41.498
c-37.2822 9.77441 -67.6113 40.04 -45.7832 79.8057c22.0635 40.1924 76.5645 50.9023 118.253 48.9346c3.33691 -0.152344 6.66113 -0.438477 9.97852 -0.744141c12.5635 39.4727 15.2822 83.5498 16.46 123.271c0.617188 21.0576 3.71191 60.0596 -9.76855 78.3281
c-25.6738 34.793 -61.1865 -12.3271 -74.832 -35.6006c-25.7637 -43.9492 -40.3643 -95.2979 -53.7617 -144.125c-29.9346 -109.115 -43.2051 -221.962 -52.126 -334.522c0.458008 -21.1338 -1.59277 -41.7461 -9.38672 -60.1738
c-6.4502 -15.25 -40.2178 -15.0078 -49.6484 -3.69922c-31.8193 38.1553 -37.5752 93.0635 -45.7197 140.7c-8.97168 52.5078 -14.8486 105.181 -18.6436 158.312c-7.41211 103.844 -11.3281 214.78 8.01074 317.516c7.48242 39.7402 105.461 42.4912 105.562 0
c0.248047 -101.093 -8.64746 -201.657 -6.63574 -302.922c10.5127 53.9336 24.0312 107.23 41.8857 159.375c16.498 48.1777 37.1924 103.048 81.4219 132.574c37.626 25.1201 84.2686 22.0635 117.081 -9.0293c40.1797 -38.0723 51.5908 -97.8711 52.5654 -151.009
c0.484375 -26.2217 -1.1709 -53.9404 -7.39844 -80.2129c30.4434 0.381836 59.8682 8.27734 87.2549 21.6553c9.54492 4.66113 25.6553 6.90234 34.8945 0zM268.72 122.362c2.31738 4.01758 4.41211 8.16309 6.40527 12.3789
c-28.5654 1.47754 -54.8633 -3.9668 -68.5088 -29.5518c-6.78809 -12.7285 -7.50781 -35.2383 11.8691 -36.1426c-5.98535 0.273438 9.16992 6.30957 11.0039 7.64648c16.2754 11.8633 29.208 28.3105 39.2305 45.6689z" />
    <glyph glyph-name="q" unicode="q" horiz-adv-x="486" 
d="M483.092 164.85c14.2637 7.97266 55.5908 -5.00195 32.4316 -18.4951c-52.0176 -30.291 -104.837 -58.9453 -158.421 -86.2754c21.8604 -4.7373 42.5361 -12.958 60.9131 -28.2217c33.4365 -27.7754 50.9473 -70.2598 51.9404 -113.254
c1.82715 -79.0791 -52.2725 -160.788 -140.681 -130.886c-45.7197 15.4609 -71.1016 68.9678 -85.2061 111.548c-16.3389 49.3301 -22.6553 101.321 -26.2275 152.899c-1.89746 27.4316 -2.75684 54.959 -3.27246 82.499
c-7.94727 -26.3174 -18.3457 -51.9219 -32.6348 -76.3545c-18.7334 -32.0352 -45.0889 -50.4375 -83.0781 -49.2852c-48.9922 1.49023 -82.1611 33.9336 -102.837 76.1895c-41.9688 85.791 -25.5215 206.4 40.9502 275.693c33.4238 34.8438 80.2324 53.832 128.709 49.3242
c20.4404 -1.9043 37.0283 -8.06152 51.0625 -17.5234c7.39941 42.2305 98.418 41.0713 106.518 -0.18457c14.9004 -75.8896 7.99121 -159.458 8.66602 -236.538c0.209961 -23.7451 0.311523 -47.5469 0.584961 -71.3486c50.7246 25.7188 100.934 52.4688 150.582 80.2129z
M173.626 166.96c16.6387 58.0664 20.8857 117.273 30.9531 176.04c-9.33496 14.1104 -21.459 28.8516 -35.9199 29.8066c-15.4229 1.02539 -31.4756 -17.918 -39.7471 -28.5332c-17.8613 -22.9238 -30.0176 -51.5977 -39.8809 -78.7236
c-21.0449 -57.8877 -22.3818 -128.403 -1.05664 -186.438c2.52832 -6.87695 13.0098 -38.5117 22.752 -39.5811c9.31543 -1.02539 22.1338 24.1709 26.0498 31.2139c16.6963 30.0107 27.4258 63.3262 36.8496 96.2148zM399.753 -10.0596
c-16.6191 26.2852 -39.2773 39.0078 -66.2822 44.834c0.993164 -34.7354 2.80176 -69.4258 6.45703 -103.938c3.68066 -34.7354 5.47656 -74.3359 23.0898 -105.378c3.00586 -5.28516 8.74902 -12.417 10.7803 -12.583c8.91504 -0.732422 20.6445 15.2061 24.79 21.1533
c10.4746 15.0215 15.9824 33.0039 18.918 50.9668c5.82031 35.5889 1.80859 74.0049 -17.7529 104.945z" />
    <glyph glyph-name="r" unicode="r" horiz-adv-x="374" 
d="M368.099 197.796c11.8945 9.36719 55.3564 1.25488 38.75 -12.9062c-46.2354 -39.416 -108.988 -31.8828 -157.644 -1.14648c-27.8457 17.5869 -48.2793 39.5996 -55.7227 72.5137c-4.16406 18.4092 -4.31641 36.7803 -3.04297 55.5205
c0.47168 6.99805 4.39453 29.0303 2.5293 43.7266c-14.2188 -17.6191 -23.7129 -47.3564 -29.2715 -62.4863c-10.6533 -28.9922 -19.377 -58.7031 -27.1777 -88.5732c-13.3145 -51.0107 -24.1904 -102.748 -33.2832 -154.727
c0.0126953 -0.808594 0.0380859 -1.61719 0.0449219 -2.42578c0.204102 -30.0039 4.19629 -70.8584 -14.3076 -96.291c-9.46191 -13.0029 -32.3984 -15.416 -45.8154 -6.89648c-32.3408 20.5352 -37.2695 55.0605 -43.4775 90.8018
c-7.1377 41.1094 -11.334 82.4229 -14.7529 123.991c-3.55273 43.2041 -4.5332 86.873 -3.58398 130.218c0.859375 39.2246 2.76953 82.3457 18.9111 118.616c14.1748 31.8506 89.3379 27.584 96.3486 -7.43164c7.94043 -39.6514 2.01855 -83.251 1.34961 -123.571
c-0.178711 -11.0098 -0.15332 -22.0127 -0.0517578 -33.0156c12.4102 50.2344 29.2402 108.944 67.4775 139.572c114.668 91.8467 89.3184 -274.853 202.72 -185.489z" />
    <glyph glyph-name="s" unicode="s" horiz-adv-x="257" 
d="M276.151 195.038c31.2461 -4.11328 10.5039 -28.5693 -12.4639 -25.7422c-40.1162 4.92188 -81.9131 0.369141 -116.037 -19.6699c27.8516 -22.5801 57.4102 -45.2041 73.832 -77.2588c19.3447 -37.7725 10.7549 -78.1816 -29.0869 -95.8965
c-36.3213 -16.1484 -88.5674 -17.498 -122.055 5.90332c-32.8574 22.9551 -37.2129 67.2734 -25.293 102.837c4.82715 14.4033 11.5127 27.209 19.6445 38.5684c-14.8174 10.2012 -29.2783 20.8857 -42.4971 33.2451c-65.3125 61.0654 -68.2285 154.81 -8.19434 222.071
c45.7773 51.2979 156.733 62.1289 178.104 -19.0332c5.52051 -20.9746 -42.46 -24.2793 -47.1084 -7.40527c-10.4619 38.0088 -49.4512 50.2793 -76.1885 17.6328c-20.0645 -24.5029 -19.8672 -55.9785 -12.5127 -85.1299
c11.4492 -45.376 32.3477 -81.7227 65.5234 -113.191c46.248 23.834 104.003 29.6982 154.333 23.0693zM170.083 42.083c-11.8379 15.3652 -28.8779 27.6035 -44.1279 39.3389c-8.41797 6.48242 -17.1162 12.583 -25.9033 18.5557
c-18.46 -36.0537 -26.7314 -89.8857 16.5938 -105.13c30.2207 -10.6338 81.8877 10.3027 53.4375 47.2354z" />
    <glyph glyph-name="t" unicode="t" horiz-adv-x="236" 
d="M222.716 159.59c2.43848 18.708 48.9453 17.4482 46.8633 -0.00585938c-7.70508 -64.6123 -39.6064 -146.978 -102.359 -177.192c-58.9834 -28.3994 -120.654 16.4736 -147.138 68.3447c-38.2881 74.9854 -40.9434 173.047 -41.0957 255.336
c-0.0957031 51.8896 1.6748 103.799 4.31055 155.67c-10.8125 -1.88477 -21.6182 -3.94824 -32.4238 -6.38672c-24.0312 -5.4248 -44.1152 19.4658 -12.8564 26.5781c15.5498 3.53418 31.1699 6.51465 46.8408 8.97266c1.71289 30.1758 3.64258 60.3262 5.6543 90.4453
c2.83984 42.459 107.428 42.2617 108.052 0c0.401367 -27.4131 -0.101562 -54.7939 -1.07617 -82.1553c11.1875 -0.0761719 22.3877 -0.318359 33.6074 -0.929688c29.4053 -1.59863 29.7363 -29.5078 -0.000976562 -27.8457
c-11.6338 0.65625 -23.2041 0.898438 -34.749 0.936523c-4.48242 -97.5967 -13.4355 -195.054 -8.74902 -292.988c1.54688 -32.373 3.59766 -65.1094 8.27148 -97.1895c3.45117 -23.6426 5.71777 -66.4072 32.1367 -72.1191
c30.2148 -6.5332 56.9336 42.8604 68.9619 66.1973c13.6709 26.5273 21.8916 54.793 25.75 84.332z" />
    <glyph glyph-name="u" unicode="u" horiz-adv-x="485" 
d="M470.146 156.291c4.03711 18.498 50.2021 16.6719 46.8652 0.0078125c-10.5508 -52.6416 -27.5781 -114.579 -71.3232 -149.945c-33.4111 -27.0117 -83.6455 -23.6494 -117.681 1.08203c-40.4277 29.3799 -58.2891 83.2568 -65.4531 133.147
c-1.71289 -5.48926 -3.39355 -10.9844 -5.15723 -16.4609c-17.6064 -54.5957 -38.9385 -139.03 -108.219 -144.653c-73.2275 -5.94141 -127.505 57.041 -149.581 120.704c-28.1318 81.1367 -24.502 174.231 -18.0576 258.711c3.29199 43.1152 104.626 42.542 109.045 0
c6.79395 -65.4404 -3.14551 -131.402 2.26074 -197.065c1.93555 -23.5156 19.3252 -167.673 61.3135 -146.514c20.2871 10.2266 33.0156 54.5449 40.415 73.9912c10.9014 28.6543 20.1221 58.041 29.0625 87.3574c12.6973 41.6064 23.8594 83.6523 33.6016 126.029
c2.30469 24.999 7.00391 49.1387 15.6895 70.7061c10.5381 26.1777 83.626 29.5273 92.1973 0.000976562c13.2451 -45.6182 6.43848 -96.8398 4.89746 -143.801c-1.35645 -41.1416 -1.52832 -83.0215 2.71289 -124.01c2.25391 -21.835 4.75684 -44.5293 11.7549 -65.4531
c1.95508 -5.83887 4.89062 -17.5107 10.1182 -20.752c7.45605 -4.62305 15.4219 7.04199 21.7383 14.1104c30.042 33.5889 44.3945 79.6719 53.7998 122.807z" />
    <glyph glyph-name="u" unicode="&#xfc;" horiz-adv-x="485" 
d="M470.146 156.291c4.03711 18.498 50.2021 16.6719 46.8652 0.0078125c-10.5508 -52.6416 -27.5781 -114.579 -71.3232 -149.945c-33.4111 -27.0117 -83.6455 -23.6494 -117.681 1.08203c-40.4277 29.3799 -58.2891 83.2568 -65.4531 133.147
c-1.71289 -5.48926 -3.39355 -10.9844 -5.15723 -16.4609c-17.6064 -54.5957 -38.9385 -139.03 -108.219 -144.653c-73.2275 -5.94141 -127.505 57.041 -149.581 120.704c-28.1318 81.1367 -24.502 174.231 -18.0576 258.711c3.29199 43.1152 104.626 42.542 109.045 0
c6.79395 -65.4404 -3.14551 -131.402 2.26074 -197.065c1.93555 -23.5156 19.3252 -167.673 61.3135 -146.514c20.2871 10.2266 33.0156 54.5449 40.415 73.9912c10.9014 28.6543 20.1221 58.041 29.0625 87.3574c12.6973 41.6064 23.8594 83.6523 33.6016 126.029
c2.30469 24.999 7.00391 49.1387 15.6895 70.7061c10.5381 26.1777 83.626 29.5273 92.1973 0.000976562c13.2451 -45.6182 6.43848 -96.8398 4.89746 -143.801c-1.35645 -41.1416 -1.52832 -83.0215 2.71289 -124.01c2.25391 -21.835 4.75684 -44.5293 11.7549 -65.4531
c1.95508 -5.83887 4.89062 -17.5107 10.1182 -20.752c7.45605 -4.62305 15.4219 7.04199 21.7383 14.1104c30.042 33.5889 44.3945 79.6719 53.7998 122.807z" />
    <glyph glyph-name="u" unicode="&#xfb;" horiz-adv-x="485" 
d="M470.146 156.291c4.03711 18.498 50.2021 16.6719 46.8652 0.0078125c-10.5508 -52.6416 -27.5781 -114.579 -71.3232 -149.945c-33.4111 -27.0117 -83.6455 -23.6494 -117.681 1.08203c-40.4277 29.3799 -58.2891 83.2568 -65.4531 133.147
c-1.71289 -5.48926 -3.39355 -10.9844 -5.15723 -16.4609c-17.6064 -54.5957 -38.9385 -139.03 -108.219 -144.653c-73.2275 -5.94141 -127.505 57.041 -149.581 120.704c-28.1318 81.1367 -24.502 174.231 -18.0576 258.711c3.29199 43.1152 104.626 42.542 109.045 0
c6.79395 -65.4404 -3.14551 -131.402 2.26074 -197.065c1.93555 -23.5156 19.3252 -167.673 61.3135 -146.514c20.2871 10.2266 33.0156 54.5449 40.415 73.9912c10.9014 28.6543 20.1221 58.041 29.0625 87.3574c12.6973 41.6064 23.8594 83.6523 33.6016 126.029
c2.30469 24.999 7.00391 49.1387 15.6895 70.7061c10.5381 26.1777 83.626 29.5273 92.1973 0.000976562c13.2451 -45.6182 6.43848 -96.8398 4.89746 -143.801c-1.35645 -41.1416 -1.52832 -83.0215 2.71289 -124.01c2.25391 -21.835 4.75684 -44.5293 11.7549 -65.4531
c1.95508 -5.83887 4.89062 -17.5107 10.1182 -20.752c7.45605 -4.62305 15.4219 7.04199 21.7383 14.1104c30.042 33.5889 44.3945 79.6719 53.7998 122.807z" />
    <glyph glyph-name="u" unicode="&#xfa;" horiz-adv-x="485" 
d="M470.146 156.291c4.03711 18.498 50.2021 16.6719 46.8652 0.0078125c-10.5508 -52.6416 -27.5781 -114.579 -71.3232 -149.945c-33.4111 -27.0117 -83.6455 -23.6494 -117.681 1.08203c-40.4277 29.3799 -58.2891 83.2568 -65.4531 133.147
c-1.71289 -5.48926 -3.39355 -10.9844 -5.15723 -16.4609c-17.6064 -54.5957 -38.9385 -139.03 -108.219 -144.653c-73.2275 -5.94141 -127.505 57.041 -149.581 120.704c-28.1318 81.1367 -24.502 174.231 -18.0576 258.711c3.29199 43.1152 104.626 42.542 109.045 0
c6.79395 -65.4404 -3.14551 -131.402 2.26074 -197.065c1.93555 -23.5156 19.3252 -167.673 61.3135 -146.514c20.2871 10.2266 33.0156 54.5449 40.415 73.9912c10.9014 28.6543 20.1221 58.041 29.0625 87.3574c12.6973 41.6064 23.8594 83.6523 33.6016 126.029
c2.30469 24.999 7.00391 49.1387 15.6895 70.7061c10.5381 26.1777 83.626 29.5273 92.1973 0.000976562c13.2451 -45.6182 6.43848 -96.8398 4.89746 -143.801c-1.35645 -41.1416 -1.52832 -83.0215 2.71289 -124.01c2.25391 -21.835 4.75684 -44.5293 11.7549 -65.4531
c1.95508 -5.83887 4.89062 -17.5107 10.1182 -20.752c7.45605 -4.62305 15.4219 7.04199 21.7383 14.1104c30.042 33.5889 44.3945 79.6719 53.7998 122.807z" />
    <glyph glyph-name="v" unicode="v" horiz-adv-x="384" 
d="M398.636 175.528c28.5459 -1.40039 28.8398 -28.4082 0.00683594 -26.9941c-31.0742 1.52148 -63.6895 9.62109 -93.9482 23.2988c-10.9209 -30.6982 -23.7959 -60.6895 -38.7598 -89.6748c-19.918 -38.5879 -49.502 -94.4004 -98.2656 -99.4883
c-46.1719 -4.82031 -96.6865 29.7812 -122.584 65.4404c-34.334 47.2861 -54.666 104.933 -67.9551 161.273c-13.5635 57.5 -25.3818 117.84 -25.1211 177.129c0.204102 45.3506 102.321 41.0654 111.038 0.000976562c21.4717 -101.156 23.3115 -203.146 59.8936 -301.405
c6.84473 -18.3965 13.0088 -40.7217 23.8271 -57.2266c12.7539 -19.4531 17.2939 -14.085 31.8818 1.64355c8.16992 8.80664 15.0215 18.7979 21.4844 28.8906c26.7314 41.7588 46.9873 88.7451 63.1162 135.496c0.126953 0.363281 0.241211 0.739258 0.368164 1.10254
c-49.082 34.0225 -84.333 84.9385 -82.4414 147.354c1.27344 41.8799 21.4521 87.3125 60.333 106.88c36.2188 18.2305 79.8311 8.02344 93.292 -32.29c17.7207 -53.0742 5.25879 -115.847 -7.34961 -168.564c-3.74414 -15.6641 -8.03613 -31.1885 -12.7803 -46.5664
c25.8145 -15.3711 54.9785 -24.8721 83.9639 -26.2988zM296.233 354.603c0.191406 14.1484 2.1084 76.7617 -24.1328 74.832c-21.7393 -1.5918 -37.9834 -48.6299 -41.2119 -64.6826c-10.0801 -50.1133 10.1182 -97.5137 44.6943 -132.376
c11.6846 39.8037 20.1025 81.1045 20.6504 122.227z" />
    <glyph glyph-name="w" unicode="w" horiz-adv-x="573" 
d="M588.064 167.23c29.3037 1.18457 28.7178 -26.1191 0.0126953 -27.2783c-29.7559 -1.19727 -59.2568 3.25977 -86.7393 12.6709c-14.6836 -73.1064 -47.0059 -153.536 -132.848 -146.277c-63.6826 5.38672 -102.768 44.8789 -125.067 95.3936
c-27.1387 -75.4502 -78.3467 -137.095 -167.831 -94.4697c-62.3838 29.7109 -87.7393 98.6855 -94.8838 163.177c-8.30371 74.9854 -2.66797 153.861 17.002 226.631c9.00977 33.3408 108.88 30.4502 105.143 -8.1123
c-9.68555 -99.9336 -34.8887 -210.138 -4.48926 -308.657c5.90918 -19.1406 13.6143 -49.4824 36.2256 -52.7236c23.8662 -3.41309 41.1797 31.6855 50.9795 50.457c19.2432 36.8682 28.8838 77.0732 34.5322 117.928c-0.707031 7.16406 -1.22949 14.2891 -1.53516 21.3252
c-1.71973 39.1797 96.1504 39.2559 100.589 -0.000976562c4.6543 -41.2051 6.76172 -83.4102 19.3379 -123.106c5.02441 -15.8555 10.4365 -35.4355 22.7578 -47.3936c25.585 -24.834 51.7627 4.03711 64.167 25.623c17.2686 30.0684 25.7754 65.8867 31.4492 100.902
c-45.083 27.2402 -79.959 70.0117 -93.5537 124.513c-15.0723 60.4414 -1.71289 191.506 90.4521 167.188c42.8604 -11.3086 54.9971 -55.8184 59.9766 -94.667c7.15039 -55.7549 2.54688 -115.076 -4.76953 -170.608
c-0.674805 -5.13867 -1.41309 -10.4561 -2.22852 -15.9004c24.6426 -11.71 52.291 -17.7842 81.3213 -16.6123zM462.552 213.849c5.00488 40.4531 7.66895 81.6445 6.79004 122.353c-0.490234 22.4463 -1.97363 46.0576 -8.55176 67.6816
c-2.66797 8.74902 -7.01074 23.2607 -14.6582 29.3164c-16.7217 13.2324 -22.0898 -0.463867 -28.165 -12.7529c-16.0342 -32.4434 -16.8047 -74.6543 -9.74316 -109.504c7.77441 -38.3838 27.2852 -72.0049 54.3281 -97.0938z" />
    <glyph glyph-name="x" unicode="x" horiz-adv-x="336" 
d="M324.585 159.603c5.86426 16.2246 52.0371 12.0527 45.1924 -7.08789c-36.7861 -102.856 -142.222 -207.298 -255.77 -139.712c-23 13.6904 -41.5869 32.9717 -56.7354 55.0674c-12.6846 -23.4199 -25.1201 -46.9805 -37.0273 -70.834
c-8.17578 -16.3711 -56.1816 -10.8691 -47.1074 7.39941c18.498 37.251 38.0723 73.8838 58.4932 110.021c-8.7998 19.9561 -15.7275 40.6191 -21.1465 60.626c-18.918 69.8525 -28.3164 144.52 -20.9111 216.607c4.41309 42.9619 108.084 43.3818 110.039 -0.000976562
c2.21582 -49.209 3.86523 -99.7617 9.39258 -149.678c30.335 46.5664 62.3008 92.1016 95.8643 136.566c10.7422 14.2256 58.1934 5.64844 43.0449 -14.3398c-46.083 -60.8047 -88.9375 -123.87 -128.71 -188.839c6.34863 -31.2266 15.0977 -61.8359 27.4697 -91.2861
c7.84473 -18.6631 17.1035 -41.1914 31.4053 -55.9199c19.5674 -20.1533 50.96 1.45215 69.3369 15.7285c37.5244 29.1514 61.2949 71.7129 77.1689 115.682z" />
    <glyph glyph-name="y" unicode="y" horiz-adv-x="452" 
d="M412.861 106.993c5.48926 -87.6504 1.58496 -177.3 -14.1689 -263.785c-24.7314 -135.675 -95.1953 -302.513 -244.255 -336.751c-58.9004 -13.5244 -127.499 -3.34277 -166.227 46.834c-36.7988 47.6807 -39.4736 114.483 -34.0801 172.047
c9.69824 103.43 50.1904 200.198 100.501 290.542c-83.8867 68.7383 -81.416 258.175 -73.3164 348.028c3.88379 43.1533 110.351 42.9746 110.038 -0.000976562c-0.477539 -65.8477 -5.29785 -131.766 -0.426758 -197.537
c0.987305 -13.3525 3.06934 -44.2734 9.1377 -73.9717c59.6904 95.0049 131.74 184.47 181.408 285.358c0.0507812 1.10156 0.0634766 2.19727 0.121094 3.29883c1.45801 27.5781 56.8369 23.5732 67.5215 5.20898c48.2285 -82.9004 57.8438 -184.992 63.7461 -279.271z
M148.489 84.5664c-9.65332 -15.333 -19.1982 -30.9014 -28.5527 -46.668c10.3096 -14.5498 24.3184 -20.2168 43.4404 -7.94043c49.1904 31.5957 71.3311 106.715 86.0654 159.719c6.34863 22.8408 12.7031 46.9551 18.1348 71.502
c-38.8936 -59.4736 -81.5059 -116.916 -119.088 -176.612zM300.262 -59.5068c5.64844 73.2598 5.22266 147.462 -0.304688 220.715c-0.598633 7.97852 -1.34961 15.9512 -2.17773 23.9111c-4.52734 -17.1797 -9.65332 -34.2002 -15.6582 -50.9219
c-22.2676 -62.002 -57.958 -131.836 -130.212 -142.24c-21.3252 -3.06934 -40.1035 -1.87207 -56.6846 2.75098c-40.1416 -73.1836 -73.3428 -150.703 -86.9443 -232.744c-8.9209 -53.7686 -11.9072 -116.031 9.89551 -167.157
c30.9717 -72.6162 105.11 -73.2334 154.415 -18.9619c87.6758 96.4951 117.96 238.64 127.671 364.648z" />
    <glyph glyph-name="y" unicode="&#xff;" horiz-adv-x="452" 
d="M412.861 106.993c5.48926 -87.6504 1.58496 -177.3 -14.1689 -263.785c-24.7314 -135.675 -95.1953 -302.513 -244.255 -336.751c-58.9004 -13.5244 -127.499 -3.34277 -166.227 46.834c-36.7988 47.6807 -39.4736 114.483 -34.0801 172.047
c9.69824 103.43 50.1904 200.198 100.501 290.542c-83.8867 68.7383 -81.416 258.175 -73.3164 348.028c3.88379 43.1533 110.351 42.9746 110.038 -0.000976562c-0.477539 -65.8477 -5.29785 -131.766 -0.426758 -197.537
c0.987305 -13.3525 3.06934 -44.2734 9.1377 -73.9717c59.6904 95.0049 131.74 184.47 181.408 285.358c0.0507812 1.10156 0.0634766 2.19727 0.121094 3.29883c1.45801 27.5781 56.8369 23.5732 67.5215 5.20898c48.2285 -82.9004 57.8438 -184.992 63.7461 -279.271z
M148.489 84.5664c-9.65332 -15.333 -19.1982 -30.9014 -28.5527 -46.668c10.3096 -14.5498 24.3184 -20.2168 43.4404 -7.94043c49.1904 31.5957 71.3311 106.715 86.0654 159.719c6.34863 22.8408 12.7031 46.9551 18.1348 71.502
c-38.8936 -59.4736 -81.5059 -116.916 -119.088 -176.612zM300.262 -59.5068c5.64844 73.2598 5.22266 147.462 -0.304688 220.715c-0.598633 7.97852 -1.34961 15.9512 -2.17773 23.9111c-4.52734 -17.1797 -9.65332 -34.2002 -15.6582 -50.9219
c-22.2676 -62.002 -57.958 -131.836 -130.212 -142.24c-21.3252 -3.06934 -40.1035 -1.87207 -56.6846 2.75098c-40.1416 -73.1836 -73.3428 -150.703 -86.9443 -232.744c-8.9209 -53.7686 -11.9072 -116.031 9.89551 -167.157
c30.9717 -72.6162 105.11 -73.2334 154.415 -18.9619c87.6758 96.4951 117.96 238.64 127.671 364.648z" />
    <glyph glyph-name="y" unicode="&#xfd;" horiz-adv-x="452" 
d="M412.861 106.993c5.48926 -87.6504 1.58496 -177.3 -14.1689 -263.785c-24.7314 -135.675 -95.1953 -302.513 -244.255 -336.751c-58.9004 -13.5244 -127.499 -3.34277 -166.227 46.834c-36.7988 47.6807 -39.4736 114.483 -34.0801 172.047
c9.69824 103.43 50.1904 200.198 100.501 290.542c-83.8867 68.7383 -81.416 258.175 -73.3164 348.028c3.88379 43.1533 110.351 42.9746 110.038 -0.000976562c-0.477539 -65.8477 -5.29785 -131.766 -0.426758 -197.537
c0.987305 -13.3525 3.06934 -44.2734 9.1377 -73.9717c59.6904 95.0049 131.74 184.47 181.408 285.358c0.0507812 1.10156 0.0634766 2.19727 0.121094 3.29883c1.45801 27.5781 56.8369 23.5732 67.5215 5.20898c48.2285 -82.9004 57.8438 -184.992 63.7461 -279.271z
M148.489 84.5664c-9.65332 -15.333 -19.1982 -30.9014 -28.5527 -46.668c10.3096 -14.5498 24.3184 -20.2168 43.4404 -7.94043c49.1904 31.5957 71.3311 106.715 86.0654 159.719c6.34863 22.8408 12.7031 46.9551 18.1348 71.502
c-38.8936 -59.4736 -81.5059 -116.916 -119.088 -176.612zM300.262 -59.5068c5.64844 73.2598 5.22266 147.462 -0.304688 220.715c-0.598633 7.97852 -1.34961 15.9512 -2.17773 23.9111c-4.52734 -17.1797 -9.65332 -34.2002 -15.6582 -50.9219
c-22.2676 -62.002 -57.958 -131.836 -130.212 -142.24c-21.3252 -3.06934 -40.1035 -1.87207 -56.6846 2.75098c-40.1416 -73.1836 -73.3428 -150.703 -86.9443 -232.744c-8.9209 -53.7686 -11.9072 -116.031 9.89551 -167.157
c30.9717 -72.6162 105.11 -73.2334 154.415 -18.9619c87.6758 96.4951 117.96 238.64 127.671 364.648z" />
    <glyph glyph-name="z" unicode="z" horiz-adv-x="383" 
d="M339.507 89.291c35.6777 -108.447 19.9424 -231.213 -38.8438 -328.803c-27.0049 -44.8154 -62.9248 -82.1934 -111.274 -103.582c-42.835 -18.9502 -99.8701 -29.8643 -141.081 -1.08887c-39.4219 27.5273 -44.9932 87.791 -46.5791 131.498
c-2.42578 67.083 8.36133 134.911 20.4092 200.695c13.6328 74.4375 28.7432 148.64 44.1396 222.784c-12.1875 -0.254883 -24.3174 -1.0957 -36.1035 -1.98047c-27.8652 -2.10156 -80.2012 29.1826 -38.3721 52.8066c32.7236 18.4785 66.4404 38.46 97.8076 61.2305
c4.75 22.8848 9.4873 45.7705 14.1484 68.6689c0.0380859 0.204102 0.152344 0.370117 0.203125 0.567383c-35.6455 -6.64746 -71.2852 -13.3018 -106.932 -19.9492c-24.0254 -4.48242 -44.4844 20.4531 -12.8564 26.5791c56.5254 10.9521 113.248 24.6357 170.213 32.9775
c25.5215 3.73828 61.0469 3.5918 76.7881 -21.4199c20.3574 -32.3477 -21.8027 -76.1572 -42.3643 -97.3232c-15.6895 -16.1543 -32.5957 -31.2197 -50.2402 -45.4004c31.1504 -4.93457 61.4092 -14.0908 89.0068 -29.5771
c55.5898 -31.1885 92.3945 -89.293 111.931 -148.684zM161.696 402.861c-3.62988 -0.617188 -7.23926 -1.3252 -10.8496 -1.97461c3.23438 -2.36914 5.04883 -5.48242 4.25879 -9.36035c-1.01855 -5.00488 -2.0498 -10.0098 -3.06836 -15.0146
c1.82715 1.91699 3.67969 3.82129 5.46875 5.76953c1.51562 1.66211 17.7979 17.6895 16.792 21.1084c-0.790039 2.66211 -7.41211 0.350586 -12.6016 -0.52832zM240.566 -185.388c31.4365 87.3066 23.8037 187.982 -10.1553 273.182
c-16.2441 40.7529 -39.3652 84.7598 -79.2334 106.62c-10.7354 5.88379 -22.1465 9.77441 -33.9072 12.3154c-12.0859 -59.0723 -24.1016 -118.17 -35.8311 -177.312c-19.4912 -98.2715 -47.0889 -216.264 -15.0215 -314.644
c7.86426 -24.127 21.6436 -46.668 50.374 -42.001c21.1406 3.43262 40.3965 18.2627 55.2207 32.8701c31.0996 30.6475 53.7812 67.9492 68.5537 108.97z" />
    <glyph glyph-name="braceleft" unicode="{" horiz-adv-x="545" 
d="M491.453 -265.872c8.09277 -11.1055 0.546875 -19.6875 -10.998 -23.9033c-61.6455 -22.5029 -133.893 -35.2832 -195.812 -6.83301c-53.373 24.5283 -86.5039 76.0547 -105.275 129.932c-24.1523 69.3115 -30.7363 142.521 -26.6104 215.462
c2.1709 38.4092 6.40527 76.959 2.01758 115.368c-1.73828 15.1934 -7.13184 27.1328 -11.373 41.2881c-0.0507812 0.171875 -0.133789 0.324219 -0.191406 0.496094c-1.96094 -0.477539 -3.78223 -0.974609 -5.14453 -1.49707
c-18.1094 -6.94043 -107.281 -1.92285 -84.3135 36.9453c76.7744 129.938 70.8076 285.709 121.494 424.848c21.3574 58.6143 58.5059 120.966 109.568 158.427c39.377 28.8896 101.162 48.6934 143.532 15.7344c16.4473 -12.7988 -24.707 -24.0693 -36.0225 -15.8428
c-25.4834 18.5303 -66.542 -14.168 -84.0273 -31.7236c-18.5488 -18.6191 -31.3027 -39.8428 -40.7393 -64.25c-20.3887 -52.7051 -27.0811 -110.434 -31.8818 -166.367c-8.3418 -97.0742 -13.7666 -199.765 -49.6543 -291.414
c29.043 -7.04297 54.0039 -24.2607 66.8535 -56.2646c26.165 -65.1602 7.37402 -140.26 7.0625 -207.967c-0.3125 -67.7002 7.44336 -143.851 36.7344 -205.75c31.2588 -66.0449 85.8105 -77.7422 152.855 -60.4219c11.2959 2.92285 33.6084 5.13281 41.9248 -6.26562z" />
    <glyph glyph-name="verticalbar" unicode="|" horiz-adv-x="235" 
d="M179.609 -1.81348c2.74414 -82.2822 12.54 -167.24 -4.30273 -248.479c-4.1709 -20.1406 -47.6426 -22.9424 -55.793 -4.30469c-33.7227 77.1123 -40.5811 163.681 -49.1328 246.562c-8.3291 80.7539 -12.9326 161.858 -16.3584 242.956
c-7.01758 166.214 -5.58496 333.091 10.1748 498.751c4.29785 45.1406 116.005 44.7715 115.018 0.000976562c-3.62988 -164.183 -7.95312 -328.276 -6.29785 -492.517c0.81543 -81.0342 3.98633 -161.986 6.69238 -242.97z" />
    <glyph glyph-name="braceright" unicode="}" horiz-adv-x="545" 
d="M491.172 241.386c22.624 -38.2949 -65.6533 -44.0967 -84.3105 -36.9395c-1.5918 0.649414 -3.22852 1.19043 -4.83984 1.80762c-0.267578 -0.388672 -0.458984 -0.6875 -0.49707 -0.808594c-5.08105 -16.3965 -10.417 -29.4756 -12.0469 -47.2988
c-3.51465 -38.4609 0.987305 -77.0361 3.02539 -115.439c3.75098 -70.8018 -3.52734 -142.177 -26.9414 -209.374c-19.3262 -55.4619 -54.043 -108.523 -109.982 -132.001c-61.1035 -25.6426 -130.899 -13.0791 -191.111 8.90234
c-11.6787 4.2666 -19.2432 12.6592 -10.9971 23.8984c8.44336 11.5059 30.2402 9.2832 41.9248 6.26465c34.4551 -8.90234 71.2285 -15.582 103.875 2.52148c24.3311 13.499 39.7539 37.3008 50.9482 62.0771c27.5723 61.0215 35.0674 135.3 34.7617 201.567
c-0.3125 68.1143 -20.7207 146.971 8.69727 211.768c13.4678 29.6602 37.4932 45.7832 65.1855 52.5459c-35.8623 91.624 -41.2871 194.283 -49.6221 291.332c-4.92871 57.3848 -11.8311 116.763 -33.5703 170.562c-9.79297 24.2412 -23.3047 45.0059 -42.2607 63.1279
c-17.2881 16.5303 -56.3789 46.4199 -80.8174 28.6543c-11.1689 -8.11914 -52.5205 2.99902 -36.0156 15.8428c43.7773 34.0537 107.288 11.9004 147.099 -18.4033c49.1328 -37.4102 85.2432 -98.5137 106.002 -155.759c50.4766 -139.165 44.752 -294.968 121.494 -424.849z
" />
    <glyph glyph-name="nonbreakingspace" unicode="&#xa0;" horiz-adv-x="293" 
 />
    <glyph glyph-name="exclamdown" unicode="&#xa1;" horiz-adv-x="225" 
d="M169.436 -85.7256c1.50293 -47.2031 15.1611 -111.254 -6.46973 -154.789c-10.8691 -21.8857 -52.5195 -16.9512 -64.8535 -0.000976562c-28.9346 39.7725 -27.8135 107.371 -33.0156 154.791c-5.92871 54.0488 -9.09961 108.288 -11.5635 162.591
c-4.91602 108.396 -4.85254 217.181 1.15234 325.539c2.4834 44.7451 114.471 43.6562 113.025 0c-3.5918 -108.511 -5.35547 -216.971 -3.36914 -325.539c0.993164 -54.2139 3.36816 -108.396 5.09375 -162.592zM128.511 514.062
c-6.88379 -14.5498 -41.123 -14.4932 -48.0703 0c-27.3359 57.0537 -17.8096 131.963 -15.001 193.271c1.61719 35.2324 90.3887 33.5703 88.1533 0c-4.11328 -61.7471 1.88477 -136.223 -25.082 -193.271z" />
    <glyph glyph-name="cent" unicode="&#xa2;" horiz-adv-x="632" 
d="M535.228 183.352c4.16406 16.8174 51.6543 13.5186 46.6367 -7.33496c-30.3164 -125.582 -91.4326 -274.878 -220.192 -327.965c2.09473 -57.4932 4.50195 -115.006 7.27148 -172.55c0.961914 -20.0391 -50.4316 -20.4531 -51.8389 0
c-3.63574 52.8389 -6.61621 105.76 -9.06152 158.732c-117.795 -11.0801 -195.964 113.579 -227.98 219.402c-40.2178 132.918 -37.4092 286.302 -7.39258 420.99c26.8398 120.45 96.3994 288.123 244.657 281.896c2.52148 42.625 5.24707 85.2119 8.25293 127.735
c1.31836 18.6758 48.0381 17.8672 46.8604 0c-3.0498 -46.127 -5.6543 -92.2285 -7.92773 -138.324c100.035 -44.4844 109.115 -216.971 113.579 -310.098c0.910156 -19.0713 -48.1338 -19.4854 -49.3496 0c-4.16406 66.5859 -10.1055 135.547 -35.0225 198.115
c-7.48242 18.7842 -17.2695 42.0898 -31.6094 59.3779c-11.6338 -269.014 -10.8125 -537.651 -1.80273 -806.709c16.3457 10.4434 31.4053 23.0449 45.2041 36.5566c70.6748 69.165 106.397 166.125 129.716 260.175zM306.61 -131.979
c-11.71 282.149 -7.27246 565.724 8.36035 847.625c-20.5166 -4.0625 -38.543 -24.1016 -51.0684 -39.9756c-66.752 -84.5938 -94.0879 -206.133 -104.098 -310.829c-10.373 -108.491 -10.1631 -222.491 20.8535 -327.844
c14.6836 -49.8711 36.6201 -107.288 74.6289 -144.156c16.1357 -15.6514 33.0605 -24.209 51.3232 -24.8203z" />
    </font>
</defs>
</svg>
